<svg xmlns="http://www.w3.org/2000/svg" xmlns:xlink="http://www.w3.org/1999/xlink" viewBox="0 0 199.62 199.19"><defs><linearGradient id="linear-gradient" y1="99.91" x2="198.91" y2="99.91" gradientUnits="userSpaceOnUse"><stop offset="1" stop-color="#2a3578"/><stop offset="1" stop-color="#38407f"/></linearGradient><linearGradient id="linear-gradient-2" x1=".72" y1="99.29" x2="199.62" y2="99.29" xlink:href="#linear-gradient"/><linearGradient id="linear-gradient-3" x1="104.55" y1="97.68" x2="125.92" y2="97.68" gradientUnits="userSpaceOnUse"><stop offset="0" stop-color="#d3cdf8"/><stop offset=".8" stop-color="#9f9fe1"/></linearGradient><linearGradient id="New_Gradient_Swatch_22_copy" x1="83.13" y1="79.23" x2="125.87" y2="79.23" gradientUnits="userSpaceOnUse"><stop offset="0" stop-color="#9d77c9"/><stop offset="1" stop-color="#9d77c9"/></linearGradient><linearGradient id="New_Gradient_Swatch_22_copy-2" x1="93.74" y1="106.2" x2="93.93" y2="74.88" xlink:href="#New_Gradient_Swatch_22_copy"/><linearGradient id="New_Gradient_Swatch" x1="46" y1="85.13" x2="14.82" y2="57.81" gradientTransform="matrix(.87 .5 0 1.15 23.87 47.65)" xlink:href="#linear-gradient-3"/><linearGradient id="linear-gradient-4" x1="57.15" y1="-85.9" x2="25.95" y2="-113.25" gradientTransform="matrix(.87 -.5 0 1.15 35.6 257.55)" xlink:href="#linear-gradient-3"/><linearGradient id="New_Gradient_Swatch-2" x1="46.01" y1="63.79" x2="14.83" y2="36.46" gradientTransform="matrix(.87 .5 0 1.15 23.87 47.65)" xlink:href="#linear-gradient-3"/><linearGradient id="linear-gradient-5" x1="57.15" y1="-107.23" x2="25.95" y2="-134.58" gradientTransform="matrix(.87 -.5 0 1.15 35.6 257.55)" xlink:href="#linear-gradient-3"/><linearGradient id="New_Gradient_Swatch-3" x1="46" y1="42.46" x2="14.83" y2="15.13" gradientTransform="matrix(.87 .5 0 1.15 23.87 47.65)" xlink:href="#linear-gradient-3"/><linearGradient id="linear-gradient-6" x1="57.15" y1="-128.53" x2="25.95" y2="-155.87" gradientTransform="matrix(.87 -.5 0 1.15 35.6 257.55)" xlink:href="#linear-gradient-3"/><linearGradient id="New_Gradient_Swatch-4" x1="46" y1="21.16" x2="14.83" y2="-6.16" gradientTransform="matrix(.87 .5 0 1.15 23.87 47.65)" xlink:href="#linear-gradient-3"/><linearGradient id="linear-gradient-7" x1="61.79" y1="48.46" x2="83.16" y2="48.46" xlink:href="#linear-gradient-3"/><linearGradient id="New_Gradient_Swatch-5" x1="40.43" y1="48.46" x2="61.79" y2="48.46" xlink:href="#linear-gradient-3"/><linearGradient id="New_Gradient_Swatch_22_copy-3" x1="83.07" y1="32.27" x2="83.26" y2=".95" xlink:href="#New_Gradient_Swatch_22_copy"/><linearGradient id="New_Gradient_Swatch-6" x1="83.16" y1="48.46" x2="104.53" y2="48.46" xlink:href="#linear-gradient-3"/><linearGradient id="linear-gradient-8" x1="125.89" y1="60.78" x2="147.26" y2="60.78" xlink:href="#linear-gradient-3"/><linearGradient id="New_Gradient_Swatch-7" x1="104.52" y1="60.78" x2="125.89" y2="60.78" xlink:href="#linear-gradient-3"/><linearGradient id="linear-gradient-9" x1="81.83" y1="-85.91" x2="50.62" y2="-113.25" gradientTransform="matrix(.87 -.5 0 1.15 35.6 257.55)" xlink:href="#linear-gradient-3"/><linearGradient id="linear-gradient-10" x1="155.87" y1="-21.83" x2="124.67" y2="-49.17" gradientTransform="matrix(.87 -.5 0 1.15 35.6 257.55)" xlink:href="#linear-gradient-3"/><linearGradient id="linear-gradient-11" x1="155.87" y1="-43.16" x2="124.67" y2="-70.51" gradientTransform="matrix(.87 -.5 0 1.15 35.6 257.55)" xlink:href="#linear-gradient-3"/><linearGradient id="New_Gradient_Swatch-8" x1="144.72" y1="21.03" x2="113.55" y2="-6.29" gradientTransform="matrix(.87 .5 0 1.15 23.87 47.65)" xlink:href="#linear-gradient-3"/><linearGradient id="linear-gradient-12" x1="155.87" y1="-64.49" x2="124.67" y2="-91.84" gradientTransform="matrix(.87 -.5 0 1.15 35.6 257.55)" xlink:href="#linear-gradient-3"/><linearGradient id="New_Gradient_Swatch-9" x1="144.72" y1="-.3" x2="113.55" y2="-27.62" gradientTransform="matrix(.87 .5 0 1.15 23.87 47.65)" xlink:href="#linear-gradient-3"/><linearGradient id="New_Gradient_Swatch_22_copy-4" x1="147.22" y1="93.83" x2="147.4" y2="62.51" xlink:href="#New_Gradient_Swatch_22_copy"/><linearGradient id="New_Gradient_Swatch-10" x1="125.94" y1="159.28" x2="147.31" y2="159.28" xlink:href="#linear-gradient-3"/><linearGradient id="New_Gradient_Swatch_22_copy-5" x1="104.57" y1="140.81" x2="147.31" y2="140.81" xlink:href="#New_Gradient_Swatch_22_copy"/><linearGradient id="linear-gradient-13" x1="106.53" y1="-21.88" x2="75.33" y2="-49.22" gradientTransform="matrix(.87 -.5 0 1.15 35.6 257.55)" xlink:href="#linear-gradient-3"/><linearGradient id="New_Gradient_Swatch_22_copy-6" x1="104.49" y1="167.7" x2="104.68" y2="136.39" xlink:href="#New_Gradient_Swatch_22_copy"/><linearGradient id="New_Gradient_Swatch-11" x1="95.38" y1="85.05" x2="64.2" y2="57.72" gradientTransform="matrix(.87 .5 0 1.15 23.87 47.65)" xlink:href="#linear-gradient-3"/><linearGradient id="New_Gradient_Swatch_22_copy-7" x1="104.44" y1="44.58" x2="104.62" y2="13.27" xlink:href="#New_Gradient_Swatch_22_copy"/><linearGradient id="New_Gradient_Swatch_22_copy-8" x1="104.52" y1="42.3" x2="147.26" y2="42.3" xlink:href="#New_Gradient_Swatch_22_copy"/><linearGradient id="New_Gradient_Swatch_22_copy-9" x1="40.42" y1="29.99" x2="83.16" y2="29.99" xlink:href="#New_Gradient_Swatch_22_copy"/><linearGradient id="New_Gradient_Swatch_22_copy-10" x1="83.1" y1="155.42" x2="83.28" y2="124.1" xlink:href="#New_Gradient_Swatch_22_copy"/><linearGradient id="New_Gradient_Swatch-12" x1="61.82" y1="159.28" x2="83.18" y2="159.28" xlink:href="#linear-gradient-3"/><linearGradient id="linear-gradient-14" x1="51.12" y1="7.95" x2="51.12" y2="191.22" gradientUnits="userSpaceOnUse"><stop offset="0" stop-color="#fffc2e"/><stop offset=".15" stop-color="#cbc93f" stop-opacity=".8"/><stop offset=".3" stop-color="#777759" stop-opacity=".6"/><stop offset=".7" stop-color="#606060" stop-opacity=".6"/><stop offset=".85" stop-color="#cecc3e" stop-opacity=".8"/><stop offset="1" stop-color="#fffc2e"/></linearGradient><linearGradient id="linear-gradient-15" x1="136.6" y1=".46" x2="136.6" y2="198.64" xlink:href="#linear-gradient-14"/><style>.cls-7{fill:#231f20}</style></defs><g style="isolation:isolate"><g id="Layer_2" data-name="Layer 2"><g id="Layer_1-2" data-name="Layer 1"><ellipse cx="99.45" cy="99.91" rx="99.45" ry="99.29" style="fill:url(#linear-gradient)"/><ellipse cx="100.17" cy="99.29" rx="99.45" ry="99.29" style="fill:url(#linear-gradient-2)"/><path style="fill:url(#linear-gradient-3);mix-blend-mode:overlay;stroke-linejoin:round;stroke:#231f20" d="m125.92 103.84-21.37 12.32V91.53l21.37-12.32v24.63z"/><path d="M104.5 91.54 83.13 79.23l21.37-12.32 21.37 12.32Z" style="fill:url(#New_Gradient_Swatch_22_copy);stroke:#000100;stroke-linejoin:round"/><path d="M83.18 103.85V79.22l21.37 12.32Z" style="fill:url(#New_Gradient_Swatch_22_copy-2);stroke:#000100;stroke-linejoin:round"/><path class="cls-7" d="m84.14 128.49 41.3-23.8v23.52l-20.9 12.04-20.4-11.76zM103.52 66.92 83.7 78.32V55.5l19.82 11.42z"/><path style="fill:url(#New_Gradient_Swatch);stroke:#170000;mix-blend-mode:overlay;stroke-linejoin:round" d="m61.81 165.46-21.36-12.32v-24.63l21.36 12.32v24.63z"/><path style="fill:url(#linear-gradient-4);mix-blend-mode:overlay;stroke-linejoin:round;stroke:#231f20" d="m83.18 128.5-21.36 12.31v-24.63l21.36-12.31v24.63z"/><path style="fill:url(#New_Gradient_Swatch-2);stroke:#170000;mix-blend-mode:overlay;stroke-linejoin:round" d="M61.82 140.81 40.45 128.5v-24.63l21.37 12.31v24.63z"/><path style="fill:url(#linear-gradient-5);mix-blend-mode:overlay;stroke-linejoin:round;stroke:#231f20" d="m83.18 103.87-21.37 12.31V91.55l21.37-12.31v24.63z"/><path style="fill:url(#New_Gradient_Swatch-3);stroke:#170000;mix-blend-mode:overlay;stroke-linejoin:round" d="m61.81 116.18-21.36-12.31V79.24l21.36 12.31v24.63z"/><path style="fill:url(#linear-gradient-6);mix-blend-mode:overlay;stroke-linejoin:round;stroke:#231f20" d="M83.18 79.28 61.81 91.6V66.97l21.37-12.32v24.63z"/><path style="fill:url(#New_Gradient_Swatch-4);stroke:#170000;mix-blend-mode:overlay;stroke-linejoin:round" d="M61.81 91.6 40.45 79.28V54.65l21.36 12.32V91.6z"/><path style="fill:url(#linear-gradient-7);mix-blend-mode:overlay;stroke-linejoin:round;stroke:#231f20" d="M83.16 54.62 61.79 66.94V42.3l21.37-12.31v24.63z"/><path style="fill:url(#New_Gradient_Swatch-5);stroke:#170000;mix-blend-mode:overlay;stroke-linejoin:round" d="M61.79 66.94 40.43 54.62V29.99L61.79 42.3v24.64z"/><path d="M83.16 30 61.79 17.67 83.16 5.36l21.36 12.31Z" style="fill:url(#New_Gradient_Swatch_22_copy-3);stroke:#000100;stroke-linejoin:round"/><path style="fill:url(#New_Gradient_Swatch-6);mix-blend-mode:overlay;stroke-linejoin:round;stroke:#231f20" d="M104.53 66.94 83.16 54.62V29.99l21.37 12.31v24.64z"/><path style="fill:url(#linear-gradient-8);mix-blend-mode:overlay;stroke-linejoin:round;stroke:#231f20" d="m147.26 66.93-21.37 12.32V54.62l21.37-12.32v24.63z"/><path style="fill:url(#New_Gradient_Swatch-7);mix-blend-mode:overlay;stroke-linejoin:round;stroke:#231f20" d="m125.89 79.25-21.36-12.32V42.3l21.36 12.32v24.63z"/><path style="fill:url(#linear-gradient-9);mix-blend-mode:overlay;stroke-linejoin:round;stroke:#231f20" d="m104.55 116.15-21.37 12.32v-24.63l21.37-12.32v24.63z"/><path style="fill:url(#linear-gradient-10);mix-blend-mode:overlay;stroke-linejoin:round;stroke:#231f20" d="m168.67 153.12-21.36 12.32v-24.63l21.36-12.32v24.63z"/><path style="fill:url(#linear-gradient-11);mix-blend-mode:overlay;stroke-linejoin:round;stroke:#231f20" d="m168.67 128.49-21.36 12.32v-24.63l21.36-12.32v24.63z"/><path style="fill:url(#New_Gradient_Swatch-8);mix-blend-mode:overlay;stroke-linejoin:round;stroke:#231f20" d="m147.31 140.81-21.37-12.32v-24.63l21.37 12.32v24.63z"/><path style="fill:url(#linear-gradient-12);mix-blend-mode:overlay;stroke-linejoin:round;stroke:#231f20" d="m168.67 103.86-21.36 12.32V91.55l21.36-12.32v24.63z"/><path style="fill:url(#New_Gradient_Swatch-9);mix-blend-mode:overlay;stroke-linejoin:round;stroke:#231f20" d="m147.31 116.18-21.37-12.32V79.23l21.37 12.32v24.63z"/><path d="m147.31 91.55-21.37-12.32 21.37-12.31 21.36 12.31Z" style="fill:url(#New_Gradient_Swatch_22_copy-4);stroke:#000100;stroke-linejoin:round"/><path style="fill:url(#New_Gradient_Swatch-10);mix-blend-mode:overlay;stroke-linejoin:round;stroke:#231f20" d="m147.31 165.43-21.37 12.32v-24.62l21.36-12.32.01 24.62z"/><path d="m125.94 153.12-21.37-12.31 21.37-12.32 21.37 12.32Z" style="fill:url(#New_Gradient_Swatch_22_copy-5);stroke:#000100;stroke-linejoin:round"/><path style="fill:url(#linear-gradient-13);mix-blend-mode:overlay;stroke-linejoin:round;stroke:#231f20" d="m125.94 177.74-21.36 12.31v-24.63l21.36-12.31v24.63z"/><path d="m104.58 165.42-21.37-12.31 21.37-12.32 21.36 12.32Z" style="fill:url(#New_Gradient_Swatch_22_copy-6);stroke:#000100;stroke-linejoin:round"/><path style="fill:url(#New_Gradient_Swatch-11);mix-blend-mode:overlay;stroke-linejoin:round;stroke:#231f20" d="m104.58 190.05-21.37-12.31v-24.63l21.37 12.31v24.63z"/><path d="M104.53 42.3 83.16 30l21.37-12.32L125.89 30Z" style="fill:url(#New_Gradient_Swatch_22_copy-7);stroke:#000100;stroke-linejoin:round"/><path d="M125.89 54.62 104.52 42.3 125.89 30l21.37 12.3Z" style="fill:url(#New_Gradient_Swatch_22_copy-8);stroke:#000100;stroke-linejoin:round"/><path d="M61.79 42.3 40.42 30l21.37-12.33L83.16 30Z" style="fill:url(#New_Gradient_Swatch_22_copy-9);stroke:#000100;stroke-linejoin:round"/><path d="m83.18 153.14-21.36-12.31 21.36-12.32 21.37 12.32Z" style="fill:url(#New_Gradient_Swatch_22_copy-10);stroke:#000100;stroke-linejoin:round"/><path style="fill:url(#New_Gradient_Swatch-12);mix-blend-mode:overlay;stroke-linejoin:round;stroke:#231f20" d="m83.18 177.75-21.37-12.31v-24.63l21.37 12.31v24.63z"/><path d="M40.44 179a99.44 99.44 0 0 0 21.37 12.22L61.79 8a99.43 99.43 0 0 0-21.37 12.23Z" style="fill:url(#linear-gradient-14)"/><path d="M104.55.46V42.3l21.36 12.32v24.59l21.41 12.34v24.63l-21.37-12.32v24.63l-21.34 12.3v57.85a98.42 98.42 0 0 0 21.37-3.59v-41.92l21.47-12.48 21.26-12.16V79.23l-21.45-12.34V42.3L125.89 30V3.84A99.32 99.32 0 0 0 104.55.46Z" style="fill:url(#linear-gradient-15)"/></g></g></g></svg>