<svg width="20" height="20" viewBox="0 0 20 20" fill="none" xmlns="http://www.w3.org/2000/svg">
<path d="M7.55334 5.51416L7.4 5.41748V5.59875V6.25C7.4 6.53977 7.16477 6.775 6.875 6.775C6.58523 6.775 6.35 6.53977 6.35 6.25V3.75C6.35 2.8015 7.1793 2.04395 8.47536 1.51893C9.76254 0.997511 11.4678 0.725 13.125 0.725C14.7822 0.725 16.4875 0.997511 17.7746 1.51893C19.0707 2.04395 19.9 2.8015 19.9 3.75V16.25C19.9 17.0913 19.2464 17.7757 18.2098 18.2848C17.1782 18.7914 15.7983 19.1072 14.4191 19.2228L14.4151 19.2231C14.3983 19.2242 14.387 19.225 14.3737 19.225C14.1038 19.225 13.8742 19.018 13.8522 18.7445L13.8522 18.7442C13.828 18.4551 14.0437 18.2002 14.3305 18.1772L14.3308 18.1772C15.7847 18.0558 16.9037 17.7495 17.6625 17.393C18.0416 17.2149 18.3342 17.0227 18.5337 16.8317C18.7305 16.6435 18.85 16.4434 18.85 16.25V15.5975V15.4152L18.6962 15.5132C17.9832 15.9677 16.9793 16.3317 15.7164 16.554L15.7164 16.554L15.7135 16.5546C15.686 16.5603 15.6557 16.5625 15.6237 16.5625C15.3754 16.5625 15.1537 16.3829 15.1085 16.1288C15.0581 15.8445 15.2492 15.5714 15.5336 15.521C16.5919 15.334 17.4117 15.0464 17.9699 14.7345C18.2487 14.5787 18.4657 14.4149 18.6142 14.2516C18.7615 14.0897 18.85 13.9186 18.85 13.75V13.0975V12.9152L18.6962 13.0132C17.9832 13.4677 16.9793 13.8317 15.7164 14.054L15.7164 14.054L15.7135 14.0546C15.686 14.0603 15.6557 14.0625 15.6237 14.0625C15.3754 14.0625 15.1537 13.8829 15.1085 13.6288C15.0581 13.3445 15.2492 13.0714 15.5336 13.021C16.5919 12.834 17.4117 12.5464 17.9699 12.2345C18.2487 12.0787 18.4657 11.9149 18.6142 11.7516C18.7615 11.5897 18.85 11.4186 18.85 11.25V10.5975V10.4149L18.6961 10.5132C17.9832 10.9689 16.9794 11.3317 15.7164 11.554L15.7164 11.554L15.7135 11.5546C15.686 11.5603 15.6557 11.5625 15.6237 11.5625C15.3754 11.5625 15.1537 11.3829 15.1085 11.1288C15.0581 10.8445 15.2492 10.5714 15.5336 10.521C16.5919 10.334 17.4117 10.0464 17.9699 9.73448C18.2487 9.57865 18.4657 9.41486 18.6142 9.25159C18.7615 9.08968 18.85 8.91856 18.85 8.75V8.08125V7.89902L18.6963 7.9969C17.6416 8.66849 16.0385 9.08728 14.4192 9.22285L14.4151 9.22311C14.3983 9.22424 14.3869 9.225 14.3737 9.225C14.1038 9.225 13.8742 9.018 13.8522 8.74448L13.8522 8.74417C13.828 8.45511 14.0437 8.20021 14.3305 8.17718L14.3308 8.17715C15.7847 8.05579 16.9037 7.74952 17.6625 7.39301C18.0416 7.21491 18.3342 7.02265 18.5337 6.83174C18.7305 6.64347 18.85 6.44336 18.85 6.25V5.59875V5.41748L18.6967 5.51416C17.3932 6.33607 15.2249 6.775 13.125 6.775C11.0251 6.775 8.85684 6.33607 7.55334 5.51416ZM7.4 3.75C7.4 3.98737 7.56716 4.2257 7.83278 4.44263C8.1028 4.66314 8.49446 4.87832 8.98915 5.06732C9.97944 5.44567 11.3981 5.725 13.125 5.725C14.8519 5.725 16.2706 5.44567 17.2608 5.06732C17.7555 4.87832 18.1472 4.66314 18.4172 4.44263C18.6828 4.2257 18.85 3.98737 18.85 3.75C18.85 3.51263 18.6828 3.2743 18.4172 3.05737C18.1472 2.83686 17.7555 2.62168 17.2608 2.43268C16.2706 2.05433 14.8519 1.775 13.125 1.775C11.3981 1.775 9.97944 2.05433 8.98915 2.43268C8.49446 2.62168 8.1028 2.83686 7.83278 3.05737C7.56716 3.2743 7.4 3.51263 7.4 3.75Z" fill="#888888" stroke="#888888" stroke-width="0.2"/>
<path d="M1.30334 15.5142L1.15 15.4175V15.5988V16.25C1.15 16.4874 1.31716 16.7257 1.58278 16.9426C1.8528 17.1631 2.24446 17.3783 2.73915 17.5673C3.72944 17.9457 5.14809 18.225 6.875 18.225C8.60191 18.225 10.0206 17.9457 11.0108 17.5673C11.5055 17.3783 11.8972 17.1631 12.1672 16.9426C12.4328 16.7257 12.6 16.4874 12.6 16.25V15.5988V15.4175L12.4467 15.5142C11.1432 16.3361 8.97492 16.775 6.875 16.775C4.77508 16.775 2.60684 16.3361 1.30334 15.5142ZM1.30334 13.0142L1.15 12.9175V13.0988V13.75C1.15 13.9874 1.31716 14.2257 1.58278 14.4426C1.8528 14.6631 2.24446 14.8783 2.73915 15.0673C3.72944 15.4457 5.14809 15.725 6.875 15.725C8.60191 15.725 10.0206 15.4457 11.0108 15.0673C11.5055 14.8783 11.8972 14.6631 12.1672 14.4426C12.4328 14.2257 12.6 13.9874 12.6 13.75V13.0988V12.9175L12.4467 13.0142C11.1432 13.8361 8.97492 14.275 6.875 14.275C4.77508 14.275 2.60684 13.8361 1.30334 13.0142ZM0.1 11.25C0.1 10.3015 0.929299 9.54395 2.22536 9.01893C3.51254 8.49751 5.21782 8.225 6.875 8.225C8.53218 8.225 10.2375 8.49751 11.5246 9.01893C12.8207 9.54395 13.65 10.3015 13.65 11.25V16.25C13.65 17.1985 12.8207 17.956 11.5246 18.4811C10.2375 19.0025 8.53218 19.275 6.875 19.275C5.21782 19.275 3.51254 19.0025 2.22536 18.4811C0.929299 17.956 0.1 17.1985 0.1 16.25V11.25ZM1.15 11.25C1.15 11.4874 1.31716 11.7257 1.58278 11.9426C1.8528 12.1631 2.24446 12.3783 2.73915 12.5673C3.72944 12.9457 5.14809 13.225 6.875 13.225C8.60191 13.225 10.0206 12.9457 11.0108 12.5673C11.5055 12.3783 11.8972 12.1631 12.1672 11.9426C12.4328 11.7257 12.6 11.4874 12.6 11.25C12.6 11.0126 12.4328 10.7743 12.1672 10.5574C11.8972 10.3369 11.5055 10.1217 11.0108 9.93268C10.0206 9.55433 8.60191 9.275 6.875 9.275C5.14809 9.275 3.72944 9.55433 2.73915 9.93268C2.24446 10.1217 1.8528 10.3369 1.58278 10.5574C1.31716 10.7743 1.15 11.0126 1.15 11.25Z" fill="#888888" stroke="#888888" stroke-width="0.2"/>
</svg>
