<svg width="16" height="16" viewBox="0 0 16 16" fill="none" xmlns="http://www.w3.org/2000/svg">
<g clip-path="url(#clip0_10742_43975)">
<path d="M11.25 11.5003C11.1174 11.5003 10.9902 11.4476 10.8965 11.3538C10.8027 11.2601 10.75 11.1329 10.75 11.0003C10.7517 10.3852 10.5463 9.78738 10.167 9.30315C9.78763 8.81892 9.25639 8.47642 8.65876 8.33078C8.55679 8.3058 8.46526 8.24936 8.39716 8.16945C8.32906 8.08954 8.28785 7.99023 8.27936 7.88558C8.27086 7.78094 8.29553 7.67628 8.34985 7.58643C8.40417 7.49659 8.4854 7.42613 8.58201 7.38503C8.90117 7.25067 9.16402 7.01002 9.32593 6.70392C9.48785 6.39781 9.53887 6.04511 9.47034 5.70567C9.4018 5.36623 9.21793 5.06096 8.94993 4.84166C8.68193 4.62236 8.3463 4.50254 8.00001 4.50254C7.65372 4.50254 7.31809 4.62236 7.05009 4.84166C6.78209 5.06096 6.59822 5.36623 6.52968 5.70567C6.46114 6.04511 6.51217 6.39781 6.67408 6.70392C6.836 7.01002 7.09885 7.25067 7.41801 7.38503C7.51462 7.42613 7.59585 7.49659 7.65017 7.58643C7.70449 7.67628 7.72916 7.78094 7.72066 7.88558C7.71217 7.99023 7.67095 8.08954 7.60286 8.16945C7.53476 8.24936 7.44323 8.3058 7.34126 8.33078C6.74363 8.47642 6.21239 8.81892 5.83305 9.30315C5.45371 9.78738 5.24835 10.3852 5.25001 11.0003C5.25001 11.1329 5.19733 11.2601 5.10356 11.3538C5.00979 11.4476 4.88262 11.5003 4.75001 11.5003C4.6174 11.5003 4.49022 11.4476 4.39646 11.3538C4.30269 11.2601 4.25001 11.1329 4.25001 11.0003C4.24851 10.3303 4.42706 9.67221 4.76698 9.09484C5.10689 8.51748 5.59569 8.04206 6.18226 7.71828C5.84699 7.36321 5.62306 6.91771 5.53812 6.43681C5.45318 5.95591 5.51094 5.46066 5.70427 5.01221C5.89761 4.56377 6.21805 4.18176 6.62603 3.91337C7.03401 3.64498 7.51166 3.50195 8.00001 3.50195C8.48836 3.50195 8.96601 3.64498 9.37399 3.91337C9.78197 4.18176 10.1024 4.56377 10.2957 5.01221C10.4891 5.46066 10.5468 5.95591 10.4619 6.43681C10.377 6.91771 10.153 7.36321 9.81776 7.71828C10.4043 8.04206 10.8931 8.51748 11.233 9.09484C11.573 9.67221 11.7515 10.3303 11.75 11.0003C11.75 11.1329 11.6973 11.2601 11.6036 11.3538C11.5098 11.4476 11.3826 11.5003 11.25 11.5003Z" fill="#D84293"/>
<path d="M8.00097 15.5C6.92516 15.499 5.86214 15.2666 4.88407 14.8185C3.90601 14.3704 3.03578 13.7172 2.33247 12.9031C1.62915 12.089 1.10921 11.1332 0.807925 10.1004C0.506641 9.06761 0.431068 7.98212 0.586336 6.91756C0.741604 5.853 1.12408 4.83431 1.7078 3.93062C2.29152 3.02693 3.06283 2.2594 3.96937 1.68011C4.87591 1.10083 5.89647 0.723352 6.96177 0.573306C8.02708 0.423259 9.11219 0.504153 10.1435 0.810497C10.2068 0.828839 10.266 0.859537 10.3174 0.900825C10.3688 0.942112 10.4116 0.993172 10.4432 1.05106C10.4749 1.10895 10.4947 1.17253 10.5017 1.23813C10.5086 1.30373 10.5025 1.37006 10.4837 1.43329C10.4649 1.49652 10.4338 1.5554 10.3921 1.60655C10.3505 1.6577 10.2991 1.70009 10.241 1.7313C10.1829 1.7625 10.1191 1.7819 10.0535 1.78837C9.98785 1.79484 9.92157 1.78826 9.85847 1.769C8.47388 1.35727 6.99153 1.41899 5.64595 1.9444C4.30038 2.46981 3.16842 3.4289 2.42918 4.66992C1.68993 5.91094 1.38561 7.36304 1.56438 8.79645C1.74314 10.2299 2.39476 11.5627 3.41616 12.5842C4.43756 13.6056 5.7704 14.2574 7.2038 14.4362C8.6372 14.615 10.0893 14.3108 11.3304 13.5716C12.5714 12.8325 13.5306 11.7006 14.0561 10.355C14.5816 9.00946 14.6434 7.52712 14.2317 6.1425C14.2125 6.0794 14.2059 6.01312 14.2124 5.94748C14.2188 5.88183 14.2382 5.81811 14.2694 5.75999C14.3006 5.70187 14.343 5.6505 14.3942 5.60884C14.4453 5.56718 14.5042 5.53606 14.5674 5.51725C14.6307 5.49845 14.697 5.49235 14.7626 5.4993C14.8282 5.50624 14.8918 5.5261 14.9497 5.55773C15.0076 5.58936 15.0586 5.63213 15.0999 5.68357C15.1412 5.73502 15.1719 5.79413 15.1902 5.8575C15.5228 6.977 15.5895 8.15867 15.3851 9.3085C15.1807 10.4583 14.7107 11.5446 14.0127 12.4809C13.3146 13.4171 12.4077 14.1776 11.364 14.7017C10.3204 15.2258 9.16883 15.4992 8.00097 15.5Z" fill="#D84293"/>
<path d="M12.5 6C12.1023 5.9996 11.721 5.84144 11.4398 5.56022C11.1586 5.279 11.0004 4.8977 11 4.5C11 4.36739 11.0527 4.24022 11.1464 4.14645C11.2402 4.05268 11.3674 4 11.5 4C11.6326 4 11.7598 4.05268 11.8536 4.14645C11.9473 4.24022 12 4.36739 12 4.5C12 4.59889 12.0293 4.69556 12.0843 4.77779C12.1392 4.86001 12.2173 4.9241 12.3087 4.96194C12.4 4.99978 12.5006 5.00969 12.5975 4.99039C12.6945 4.9711 12.7836 4.92348 12.8536 4.85355C12.9235 4.78363 12.9711 4.69454 12.9904 4.59755C13.0097 4.50056 12.9998 4.40002 12.9619 4.30866C12.9241 4.2173 12.86 4.13921 12.7778 4.08427C12.6956 4.02933 12.5989 4 12.5 4C12.2033 4 11.9133 3.91203 11.6666 3.74721C11.42 3.58238 11.2277 3.34811 11.1142 3.07403C11.0006 2.79994 10.9709 2.49834 11.0288 2.20737C11.0867 1.91639 11.2296 1.64912 11.4393 1.43934C11.6491 1.22956 11.9164 1.0867 12.2074 1.02882C12.4983 0.970945 12.7999 1.00065 13.074 1.11418C13.3481 1.22771 13.5824 1.41997 13.7472 1.66665C13.912 1.91332 14 2.20333 14 2.5C14 2.63261 13.9473 2.75979 13.8536 2.85355C13.7598 2.94732 13.6326 3 13.5 3C13.3674 3 13.2402 2.94732 13.1464 2.85355C13.0527 2.75979 13 2.63261 13 2.5C13 2.40111 12.9707 2.30444 12.9157 2.22222C12.8608 2.13999 12.7827 2.0759 12.6913 2.03806C12.6 2.00022 12.4994 1.99032 12.4025 2.00961C12.3055 2.0289 12.2164 2.07652 12.1464 2.14645C12.0765 2.21637 12.0289 2.30547 12.0096 2.40246C11.9903 2.49945 12.0002 2.59998 12.0381 2.69134C12.0759 2.78271 12.14 2.86079 12.2222 2.91574C12.3044 2.97068 12.4011 3 12.5 3C12.8978 3 13.2794 3.15804 13.5607 3.43934C13.842 3.72065 14 4.10218 14 4.5C14 4.89783 13.842 5.27936 13.5607 5.56066C13.2794 5.84197 12.8978 6 12.5 6Z" fill="#D84293"/>
<path d="M12.5 2C12.3674 2 12.2402 1.94732 12.1464 1.85355C12.0527 1.75979 12 1.63261 12 1.5V1C12 0.867392 12.0527 0.740215 12.1464 0.646447C12.2402 0.552678 12.3674 0.5 12.5 0.5C12.6326 0.5 12.7598 0.552678 12.8536 0.646447C12.9473 0.740215 13 0.867392 13 1V1.5C13 1.63261 12.9473 1.75979 12.8536 1.85355C12.7598 1.94732 12.6326 2 12.5 2Z" fill="#D84293"/>
<path d="M12.5 6.5C12.3674 6.5 12.2402 6.44732 12.1464 6.35355C12.0527 6.25979 12 6.13261 12 6V5.5C12 5.36739 12.0527 5.24021 12.1464 5.14645C12.2402 5.05268 12.3674 5 12.5 5C12.6326 5 12.7598 5.05268 12.8536 5.14645C12.9473 5.24021 13 5.36739 13 5.5V6C13 6.13261 12.9473 6.25979 12.8536 6.35355C12.7598 6.44732 12.6326 6.5 12.5 6.5Z" fill="#D84293"/>
</g>
<defs>
<clipPath id="clip0_10742_43975">
<rect width="16" height="16" fill="white"/>
</clipPath>
</defs>
</svg>
