<svg width="14" height="14" viewBox="0 0 16 16" fill="#eb2f96" xmlns="http://www.w3.org/2000/svg">
  <path fillRule="evenodd" clipRule="evenodd"
    d="M8.10879 1.41664C7.94625 1.25181 7.68274 1.25181 7.5202 1.41664C7.37115 1.5678 7.37115 1.81287 7.5202 1.96403L10.4083 4.8929C10.5568 5.04345 10.7975 5.04345 10.9459 4.8929C11.1091 4.72746 11.1091 4.45924 10.9459 4.29381L8.10879 1.41664ZM6.96725 0.855889C7.43517 0.38137 8.19382 0.38137 8.66174 0.855889L11.4989 3.73306C11.9674 4.20819 11.9674 4.97852 11.4989 5.45365C11.1373 5.82032 10.5968 5.89487 10.1624 5.67728L9.64772 6.20182C9.76651 6.25902 9.87783 6.33745 9.97613 6.43714C10.366 6.83249 10.4263 7.43549 10.157 7.89508L14.6541 12.4556C15.1153 12.9233 15.1153 13.6816 14.6541 14.1492C14.1929 14.6169 13.4452 14.6169 12.984 14.1492L8.48693 9.58871C8.03374 9.86177 7.43913 9.80063 7.04928 9.40528C6.95319 9.30783 6.87712 9.19778 6.82107 9.08036L6.32282 9.58785C6.49944 10.0218 6.41389 10.5396 6.06617 10.8922C5.60499 11.3599 4.85727 11.3599 4.39609 10.8922L1.53344 7.98917C1.07226 7.52148 1.07226 6.76322 1.53344 6.29553C1.90762 5.91608 2.47042 5.84449 2.91576 6.08077L6.74603 2.21217C6.53169 1.77125 6.60543 1.22281 6.96725 0.855889ZM7.25537 2.81696L3.50679 6.60307L5.83335 8.96244L6.4974 8.28609L6.95207 7.82311C6.98181 7.78444 7.01421 7.7472 7.04928 7.71164L8.30605 6.43714C8.33169 6.41114 8.35821 6.38658 8.38553 6.36347L9.56631 5.16049L7.25537 2.81696ZM2.65025 6.85595C2.49443 6.69829 2.24208 6.6984 2.0864 6.85628C1.9306 7.01427 1.9306 7.27043 2.0864 7.42842L4.94904 10.3314C5.10484 10.4894 5.35743 10.4894 5.51322 10.3314C5.66902 10.1734 5.66902 9.91729 5.51322 9.7593L2.65058 6.85628C2.65047 6.85617 2.65036 6.85606 2.65025 6.85595ZM9.06565 9.05409L12.0736 12.1044L12.6377 11.5323L9.62983 8.48196L9.06565 9.05409ZM13.1907 12.093L12.6265 12.6652L13.537 13.5885C13.6928 13.7465 13.9454 13.7465 14.1012 13.5885C14.257 13.4305 14.257 13.1743 14.1012 13.0163L13.1907 12.093ZM7.54908 8.33901L8.90694 6.95634C9.06293 6.84139 9.28251 6.85524 9.42318 6.99789C9.57897 7.15588 9.57897 7.41204 9.42318 7.57003L8.16641 8.84453C8.01061 9.00252 7.75802 9.00252 7.60223 8.84452C7.46682 8.70721 7.4491 8.49573 7.54908 8.33901ZM1.94593 13.6848C2.1277 12.7562 2.93551 12.0562 3.90454 12.0562H7.25593C8.22496 12.0562 9.03277 12.7562 9.21454 13.6848H9.69965C9.91559 13.6848 10.0906 13.8623 10.0906 14.0813C10.0906 14.3003 9.91559 14.4778 9.69965 14.4778H1.391C1.17505 14.4778 1 14.3003 1 14.0813C1 13.8623 1.17505 13.6848 1.391 13.6848H1.94593ZM2.75395 13.6848H8.40652C8.24375 13.1989 7.7901 12.8493 7.25593 12.8493H3.90454C3.37037 12.8493 2.91672 13.1989 2.75395 13.6848Z"
    fill="#eb2f96" />
</svg>