<svg xmlns="http://www.w3.org/2000/svg" viewBox="0 0 178.5 178.5" fill="#496ddb" xmlns:v="https://vecta.io/nano"><path d="M109.2 72c-1.1-4.2-3.7-6.9-8-8.1-3.6-1-7.3-1.4-11-1.6-4.2.1-8.5.4-12.6 1.6-4.3 1.2-6.9 3.9-8 8.1-.6 2.3-.8 4.7-.9 7-.2 2.2-.2 2.5 1.3 2.5h37.8c2.6 0 2.6 0 2.3-2.6-.1-2.2-.4-4.6-.9-6.9zm-.7 24.9H70.8c-2.6 0-2.6 0-2.3 2.6.1 2.3.3 4.7.9 7 1.1 4.2 3.7 6.9 8 8.1 3.6 1 7.3 1.4 11 1.6 4.2-.1 8.5-.4 12.6-1.6 4.3-1.2 6.9-3.9 8-8.1.6-2.3.8-4.7.9-7 .2-2.2.2-2.5-1.4-2.6zM89.2 0C40 0 0 40 0 89.2s40 89.2 89.2 89.2c49.3 0 89.2-40 89.2-89.2S138.5 0 89.2 0zm37.6 69.1c.4 2.6.7 5.2 1 7.9v4.6h13.8c1.1 0 2.1 0 3.1.2 2.4.4 3.9 1.8 4 4.1v6.7c-.1 2.3-1.6 3.7-4 4.1-1 .2-2 .2-3.1.2h-14v4.5c-.3 2.7-.6 5.3-1 7.9s-1.1 4.9-2 6.9h17.7c2.1 0 4.1.2 5.5 2.2 2.1 3.3 1 7.7-2.3 9.8-.4.3-.9.6-1.4.7-3.7 1.2-7.5 1.4-11.4 1.6l-43.2.4a2128.9 2128.9 0 0 1-43.6-.5c-3.9-.1-7.7-.3-11.3-1.6-.6-.1-1-.3-1.4-.7-3.3-2.1-4.4-6.4-2.3-9.8 1.3-2 3.3-2.2 5.4-2.2h17.5c-.8-2-1.5-4.3-1.9-6.8-.4-2.6-.7-5.2-1-7.9v-4.6h-14c-1.1 0-2.1 0-3.1-.2-2.4-.4-3.9-1.8-4-4.1v-6.7c.1-2.3 1.6-3.7 4-4.1 1-.2 2-.2 3.1-.2h14V77l1-7.9c.4-2.6 1.1-4.9 2-6.9H36.2c-2.1 0-4.1-.2-5.5-2.2-2.1-3.3-1-7.7 2.3-9.8.4-.3.9-.6 1.4-.7 3.7-1.2 7.5-1.4 11.3-1.6l43.2-.4 43.6.5c3.9.1 7.7.3 11.3 1.6.6.1 1 .3 1.4.7 3.3 2.1 4.4 6.4 2.3 9.8-1.3 2-3.3 2.2-5.4 2.2h-17.5c1.1 2 1.7 4.2 2.2 6.8z"/></svg>