<?xml version="1.0" encoding="utf-8"?>
<!-- Generator: Adobe Illustrator 25.2.1, SVG Export Plug-In . SVG Version: 6.00 Build 0)  -->
<svg version="1.1" id="Layer_1" xmlns="http://www.w3.org/2000/svg" xmlns:xlink="http://www.w3.org/1999/xlink" x="0px" y="0px"
	 viewBox="0 0 1400 1551.7" style="enable-background:new 0 0 1400 1551.7;" xml:space="preserve">
<style type="text/css">
	.st0{fill:#312056;}
	.st1{fill:url(#SVGID_1_);}
	.st2{opacity:0.1;enable-background:new    ;}
	.st3{fill:url(#SVGID_2_);}
	.st4{fill:url(#SVGID_3_);}
	.st5{fill:none;stroke:#312056;stroke-width:20;stroke-miterlimit:10;}
	.st6{fill:url(#SVGID_4_);}
	.st7{fill:url(#SVGID_5_);}
	.st8{fill:url(#SVGID_6_);}
	.st9{fill:url(#SVGID_7_);}
	.st10{fill:url(#SVGID_8_);}
	.st11{fill:url(#SVGID_9_);}
	.st12{fill:url(#SVGID_10_);}
	.st13{fill:url(#SVGID_11_);}
	.st14{fill:url(#SVGID_12_);}
	.st15{fill:url(#SVGID_13_);}
	.st16{fill:url(#SVGID_14_);}
	.st17{fill:url(#SVGID_15_);}
	.st18{fill:url(#SVGID_16_);}
	.st19{fill:url(#SVGID_17_);}
	.st20{fill:url(#SVGID_18_);}
	.st21{fill:url(#SVGID_19_);}
	.st22{fill:url(#SVGID_20_);}
	.st23{fill:url(#SVGID_21_);}
	.st24{fill:url(#SVGID_22_);}
	.st25{fill:url(#SVGID_23_);}
	.st26{fill:url(#SVGID_24_);}
	.st27{fill:url(#SVGID_25_);}
	.st28{fill:url(#SVGID_26_);}
	.st29{fill:url(#SVGID_27_);}
	.st30{fill:url(#SVGID_28_);}
	.st31{fill:url(#SVGID_29_);}
	.st32{fill:url(#SVGID_30_);}
	.st33{fill:url(#SVGID_31_);}
	.st34{fill:url(#SVGID_32_);}
	.st35{fill:url(#SVGID_33_);}
	.st36{fill:url(#SVGID_34_);}
</style>
<g>
	<path class="st0" d="M981.6,1416.3c0,35.2-125,63.7-279.2,63.7s-279.2-28.5-279.2-63.7s125-63.7,279.2-63.7
		S981.6,1381.2,981.6,1416.3z"/>
	<g>
		
			<radialGradient id="SVGID_1_" cx="755.3952" cy="146.9481" r="734.6995" fx="1112.1443" fy="145.2281" gradientTransform="matrix(-2.178714e-03 -1 -0.7004 1.525919e-03 883.549 1553.7002)" gradientUnits="userSpaceOnUse">
			<stop  offset="2.610000e-02" style="stop-color:#FEF0D9"/>
			<stop  offset="0.1525" style="stop-color:#FEEBD8"/>
			<stop  offset="0.312" style="stop-color:#FEDBD7"/>
			<stop  offset="0.4884" style="stop-color:#FFC1D4"/>
			<stop  offset="0.5855" style="stop-color:#FFB0D2"/>
			<stop  offset="0.7167" style="stop-color:#C484C6"/>
			<stop  offset="0.848" style="stop-color:#8F5DBC"/>
			<stop  offset="0.9461" style="stop-color:#6E45B5"/>
			<stop  offset="1" style="stop-color:#623CB3"/>
		</radialGradient>
		<path class="st1" d="M694.4,293c-150.8,3.8-362.5,238.3-375.2,555.1C306.6,1165,522,1307,686.8,1307
			c174.9,0,398-106.5,385.3-453.7C1059.4,506,841.4,289.4,694.4,293z"/>
		<path class="st2" d="M776.8,1183c-161.4,0-372.2-139-359.8-449.1C422.5,597.1,465.9,476,525.3,383
			c-106.8,94.8-201.5,267.8-209.8,476.5c-12.7,316.9,202.7,458.8,367.5,458.8c130.1,0,286.8-58.9,353.4-232
			C961.7,1156.4,863.3,1183,776.8,1183z"/>
		
			<linearGradient id="SVGID_2_" gradientUnits="userSpaceOnUse" x1="420.7363" y1="623.751" x2="847.0908" y2="987.6858" gradientTransform="matrix(0.9922 -0.1244 -0.1244 -0.9922 188.1305 1723.15)">
			<stop  offset="0" style="stop-color:#623CB3"/>
			<stop  offset="1" style="stop-color:#FF3976;stop-opacity:0.4"/>
		</linearGradient>
		<path class="st3" d="M589.3,658.2c5.1-14.9-0.3-30.2-12.1-34.2c-11.8-4-25.4,4.8-30.5,19.7c-5.1,14.9,0.3,30.2,12.1,34.2
			S584.2,673.1,589.3,658.2z M424.2,858.8c22.3,3.2,44-16,48.5-42.7s-9.9-51-32.2-54.2c-22.3-3.2-44,16-48.5,42.7
			C387.5,831.3,401.9,855.6,424.2,858.8z M1017.4,847c17.8-2.3,29.4-26,25.9-52.8c-3.5-26.8-20.8-46.7-38.6-44.4
			c-17.8,2.3-29.4,26-25.9,52.8C982.3,829.5,999.6,849.4,1017.4,847z M400.9,1082.2c-14.3,14.3-20,35-17.8,57.7
			c38,61.2,88.8,105.6,143.1,134.5c19.1,0.1,36.2-5.8,48.6-18.2c32.7-32.7,20.3-98.2-27.8-146.2S433.5,1049.5,400.9,1082.2z
			 M827.7,1084.6c-36.9,73.1-36.7,152.7-5.5,207.9c115-40,220.3-136.7,243-324.6C985,930.7,879.5,982.1,827.7,1084.6z M445.9,621
			c20.7,17.5,56.9-2.6,80.8-44.8c23.9-42.2,26.5-90.5,5.8-107.9s-56.9,2.6-80.8,44.8C427.8,555.2,425.1,603.6,445.9,621z"/>
		
			<linearGradient id="SVGID_3_" gradientUnits="userSpaceOnUse" x1="273.9023" y1="834.4713" x2="686.8864" y2="460.6468" gradientTransform="matrix(1 0 0 -1 0 1552)">
			<stop  offset="0.2963" style="stop-color:#FFFFFF;stop-opacity:0.6"/>
			<stop  offset="1" style="stop-color:#FFC6F0;stop-opacity:0"/>
		</linearGradient>
		<path class="st4" d="M421.5,507.5c-93,156-103.4,307-105.1,349.1c-12.7,316.9,202.7,458.8,367.6,458.8c61.1,0,128.2-13,189-44.8
			C629.5,1367.5,196.5,1137.5,421.5,507.5z"/>
		<path class="st5" d="M691.6,301.4c-150.8,3.8-362.5,238.3-375.2,555.1c-12.7,316.9,202.7,458.8,367.6,458.8
			c174.9,0,398-106.5,385.3-453.7C1056.7,514.3,838.6,297.7,691.6,301.4z"/>
		
			<linearGradient id="SVGID_4_" gradientUnits="userSpaceOnUse" x1="708.5184" y1="1126.3169" x2="895.4813" y2="962.937" gradientTransform="matrix(1 0 0 -1 0 1552)">
			<stop  offset="0" style="stop-color:#FFFFFF"/>
			<stop  offset="1" style="stop-color:#FFFFFF;stop-opacity:0"/>
		</linearGradient>
		<path class="st6" d="M875.9,431.2c42.8,74.2,34.1,159.4-19.4,190.3c-53.5,30.9-131.7-4.2-174.5-78.3s-34.1-159.4,19.4-190.3
			S833,357.1,875.9,431.2z"/>
		
			<linearGradient id="SVGID_5_" gradientUnits="userSpaceOnUse" x1="310.6648" y1="733.9836" x2="863.3206" y2="764.0616" gradientTransform="matrix(0.9959 9.040000e-02 9.040000e-02 -0.9959 37.3992 1531.6361)">
			<stop  offset="0" style="stop-color:#623CB3"/>
			<stop  offset="0.9964" style="stop-color:#FF3976"/>
		</linearGradient>
		<path class="st7" d="M947.5,668.2c-4.6-7.3-10.6-28.5-21.1-33.2c-24.5-11-56.3-4.2-56.3-4.2c-27.2,12.2-49.7,35.3-69.9,54.9
			c-140.4,59.2-254,163.5-273.2,181c34.9-6.8,135.1-27.3,185.1-49c4.4-2,8.7-4.1,12.9-6.3c-3.8,2.1-8.1,4.2-12.9,6.3
			c-55.5,30.5-78.5,37.4-131.3,57.8c0,0-92.3,77.5-149.1,138.7l-1.1,0.6c0,0-21.1,24.1-25.2,31.2c86.2-28.7,148.1-81.1,181.6-108
			c35-18.6,61.5-32.7,61.5-32.7c3,0.9-0.1,0.2,3.6,1.1l-3.5,24.3c-0.8,5.8,1.8,11.5,6.7,14.6l38.8,25c-8.5,3.5-28.8,15.4-38.5,24.2
			c26.9-8.4,59.2-13.3,94.1-13.2c34.8,0.1,67.2,5.1,94,13.6c-13.4-10.3-33.8-27.5-74.7-32.7l-8.8-3.3c0,0-25.2-17.2-36.3-24.9
			c-2.4-1.7-2.3-5.2,0.2-6.8c2.8-1.7,6.1-3.7,7.8-4.9c98-16.2,176.2-78.2,181-179.8c0.1-2,0.2-6.2,0.2-6.2l9.4,7.2l11.7-27.7
			c1.7-4.1,5.1-7.4,9.3-9l28.4-10.9C971.8,695.6,962.5,681.9,947.5,668.2z M731.9,961.7c-3.7,0.4-7.4,0.8-11,1.4l-10.2-3.4
			l-32.1-21.4c-3.7-2.4-4.8-7.3-2.5-11.1l7.6-12.9c5.3,1.2,3.7,1.6,11.1,3.1l-1.7,9c-0.8,4.4,1,8.9,4.7,11.5
			C705.7,943.5,719.7,953.3,731.9,961.7z"/>
	</g>
	<g>
		
			<linearGradient id="SVGID_6_" gradientUnits="userSpaceOnUse" x1="274.2217" y1="231.5951" x2="1137.6958" y2="231.5951" gradientTransform="matrix(1 0 0 -1 0 1552)">
			<stop  offset="0" style="stop-color:#441C8D"/>
			<stop  offset="0.6437" style="stop-color:#E4B85E"/>
			<stop  offset="0.8345" style="stop-color:#8A6C45"/>
		</linearGradient>
		<path class="st8" d="M703.8,1456c-13.1,0-23.8-10.7-23.8-23.8v-201.2h-181c13.1,23.2,19.9,49.8,19.2,76.8
			c-0.9,33.9-13.5,66.7-35.6,92.3c-23.3,27-57.1,42.5-92.9,42.5c-29.3,0-57.7-10.5-79.9-29.7c-20.8-17.9-33.3-42.8-35.3-70.1
			c-2-27.3,6.7-53.8,24.6-74.6c17.1-19.9,42.8-31.7,68.8-31.7c21.6,0,41,8.4,54.5,23.6c16.4,18.5,20.7,42.2,11.6,63.4
			c-6.7,15.4-19.5,26.1-31.8,26.4c-0.1,0-0.2,0-0.3,0c-3.9,0-7.4-2.2-9-5.7c-1.7-3.6-1.1-7.8,1.5-10.8c4.9-5.6,7.2-12.8,6.7-20.3
			s-4-14.2-9.6-19.1c-7.4-6.3-16.8-9.8-26.5-9.8c-11.9,0-23.1,5.1-30.8,14.1c-20.4,23.6-17.7,59.4,5.9,79.7
			c13.8,11.9,31.5,18.5,49.8,18.5c22.3,0,43.4-9.7,58-26.5c34.9-40.5,31.8-102.1-6.4-139h-30.1c-2.2,0-8,0-25.9-13.1
			c-19.2-14.1-19.2-18.8-19.2-22.3c0-3.5,1.7-6.8,4.6-8.8c1.3-0.9,3.4-1.9,6.4-1.9h657.7c3,0,5.1,1,6.4,1.9c2.9,2,4.6,5.2,4.6,8.8
			c0,3.5,0,8.2-19.2,22.3c-17.9,13.1-23.7,13.1-25.9,13.1h-30.1c-38.2,36.9-41.3,98.4-6.4,139c14.5,16.8,35.6,26.5,58,26.5
			c18.3,0,36-6.6,49.8-18.5c23.6-20.3,26.3-56.1,5.9-79.7c-7.7-8.9-18.9-14.1-30.8-14.1c-9.7,0-19.1,3.5-26.5,9.8
			c-5.6,4.9-9,11.6-9.6,19.1s1.8,14.6,6.7,20.3c2.6,3,3.2,7.2,1.5,10.8c-1.7,3.5-5.2,5.7-9,5.7c-0.1,0-0.2,0-0.3,0
			c-12.4-0.4-25.2-11-31.8-26.4c-9.1-21.2-4.8-44.9,11.6-63.4c13.5-15.2,32.8-23.6,54.4-23.6c25.9,0,51.7,11.8,68.8,31.7
			c17.9,20.8,26.6,47.2,24.6,74.6c-2,27.3-14.6,52.2-35.3,70.1c-22.2,19.1-50.6,29.7-79.9,29.7l0,0c-35.8,0-69.6-15.5-92.9-42.5
			c-22.1-25.7-34.8-58.4-35.6-92.3c-0.7-26.9,6-53.6,19.2-76.8H727.6v201.2C727.6,1445.3,717,1456,703.8,1456z"/>
		<g>
			<path class="st0" d="M1034.8,1194.8c7.2,0-26.9,26.1-34.1,26.1h-34c-45,40.3-49.6,109.6-10,155.5c17.1,19.8,41.2,30,65.5,30
				c20,0,40.1-6.9,56.4-20.9c27.8-23.9,30.9-66.1,7-93.8c-10-11.6-24.2-17.6-38.4-17.6c-11.7,0-23.5,4-33,12.2
				c-7.7,6.6-12.3,15.8-13,25.9c-0.8,10.1,2.5,19.9,9.1,27.5c-18.5-0.6-42.4-40.1-13.1-73.2c12.3-13.9,29.4-20.2,47-20.2
				c22.4,0,45.7,10.3,61.2,28.2c16.2,18.7,24,42.6,22.2,67.3c-1.8,24.7-13.2,47.2-31.9,63.3c-21.2,18.3-47.3,27.2-73.4,27.2
				c-31.6,0-63.1-13.2-85.3-39c-43-49.9-43.7-122-5.5-172.5H717.6v211.2c0,7.6-6.2,13.8-13.8,13.8s-13.8-6.2-13.8-13.8v-211.2H480.5
				c38.2,50.5,37.5,122.7-5.5,172.5c-22.2,25.8-53.7,39-85.3,39c0,0,0,0,0,0c-26,0-52.2-8.9-73.4-27.2
				c-18.7-16.2-30.1-38.6-31.9-63.3c-1.8-24.7,6.1-48.6,22.2-67.3c15.5-18,38.8-28.2,61.2-28.2c17.6,0,34.6,6.3,47,20.2
				c29.3,33.1,5.4,72.6-13.1,73.2c6.6-7.7,9.8-17.4,9.1-27.5c-0.8-10.1-5.4-19.3-13-25.9c-9.5-8.2-21.3-12.2-33-12.2
				c-14.2,0-28.4,5.9-38.4,17.6c-24,27.8-20.8,69.9,7,93.8c16.3,14.1,36.4,20.9,56.4,20.9c24.3,0,48.5-10.2,65.5-30
				c39.6-45.9,34.9-115.2-10-155.5h-34c-7.2,0-41.3-26.1-34.1-26.1h326.8L1034.8,1194.8 M1034.8,1174.8h-331H377.1
				c-4.4,0-8.5,1.3-12,3.6c-5.6,3.8-9,10.2-9,17c0,9.9,5.9,17.6,23.3,30.3c0.7,0.5,1.4,1.1,2.1,1.6c-4.4-0.7-9-1-13.6-1
				c-28.8,0-57.4,13.2-76.4,35.2c-19.6,22.8-29.2,51.8-27,81.8c2.2,30,16,57.3,38.8,77c24,20.7,54.7,32.1,86.4,32.1
				c38.7,0,75.3-16.8,100.5-45.9c12-14,21.4-29.7,27.9-46.9c6.3-16.5,9.7-33.9,10.1-51.7c0.6-23.1-4-46.1-13-67H670v191.2
				c0,18.6,15.2,33.8,33.8,33.8s33.8-15.2,33.8-33.8v-191.2h159c-9.1,21-13.6,43.9-13,67c0.5,17.8,3.9,35.2,10.1,51.7
				c6.5,17.1,15.9,32.9,27.9,46.9c25.2,29.2,61.8,45.9,100.4,45.9c31.7,0,62.4-11.4,86.4-32.1c22.8-19.6,36.6-47,38.8-77
				s-7.4-59.1-27-81.8c-19-22-47.5-35.2-76.3-35.2c-4.6,0-9.2,0.3-13.6,1c0.7-0.5,1.4-1,2.1-1.6c17.4-12.8,23.3-20.4,23.3-30.3
				c0-6.8-3.4-13.2-9-17C1043.3,1176.1,1039.2,1174.8,1034.8,1174.8L1034.8,1174.8z M974.7,1240.9H996c-5.1,3.5-9.8,7.7-14,12.4
				c-19,21.5-24,49.1-13.3,74c8.3,19.2,24.3,32,40.7,32.5c0.2,0,0.4,0,0.6,0c7.7,0,14.7-4.4,18.1-11.4c3.4-7.2,2.3-15.7-2.9-21.7
				c-3.2-3.7-4.7-8.2-4.3-13c0.4-4.8,2.5-9.1,6.2-12.2c5.5-4.8,12.6-7.4,20-7.4c8.9,0,17.4,3.9,23.2,10.6
				c16.8,19.4,14.6,48.9-4.9,65.6c-12,10.4-27.4,16.1-43.3,16.1c-19.4,0-37.8-8.4-50.4-23C941.1,1327.8,942.9,1274.4,974.7,1240.9
				L974.7,1240.9z M415.9,1240.9h21.3c31.8,33.5,33.6,86.9,3,122.5c-12.6,14.6-31,23-50.4,23c-15.9,0-31.3-5.7-43.3-16.1
				c-19.4-16.8-21.6-46.2-4.9-65.6c5.8-6.7,14.3-10.6,23.2-10.6c7.3,0,14.4,2.6,20,7.4c3.7,3.2,5.8,7.4,6.2,12.2
				c0.4,4.8-1.1,9.3-4.3,13c-5.2,6-6.3,14.5-2.9,21.7c3.3,7,10.4,11.4,18,11.4c0.2,0,0.4,0,0.6,0c16.4-0.5,32.4-13.2,40.7-32.5
				c10.7-24.9,5.8-52.5-13.3-74C425.6,1248.6,420.9,1244.4,415.9,1240.9L415.9,1240.9z"/>
		</g>
	</g>
	<g>
		
			<linearGradient id="SVGID_7_" gradientUnits="userSpaceOnUse" x1="707.9346" y1="251.9584" x2="698.7673" y2="49.0095" gradientTransform="matrix(1 0 0 -1 0 1552)">
			<stop  offset="0" style="stop-color:#C99C67"/>
			<stop  offset="0.5112" style="stop-color:#EBBA75"/>
			<stop  offset="1" style="stop-color:#674220"/>
		</linearGradient>
		<path class="st9" d="M703.9,1502.8c-13.7,0-24.8-11.1-24.8-24.8v-177.3c0-13.7,11.1-24.8,24.8-24.8c13.7,0,24.8,11.1,24.8,24.8
			V1478C728.7,1491.7,717.6,1502.8,703.9,1502.8z"/>
		<path class="st0" d="M703.9,1285.9c8.2,0,14.8,6.6,14.8,14.8V1478c0,8.2-6.6,14.8-14.8,14.8s-14.8-6.6-14.8-14.8v-177.3
			C689.1,1292.5,695.7,1285.9,703.9,1285.9 M703.9,1265.9c-19.2,0-34.8,15.6-34.8,34.8V1478c0,19.2,15.6,34.8,34.8,34.8
			s34.8-15.6,34.8-34.8v-177.3C738.7,1281.5,723.1,1265.9,703.9,1265.9L703.9,1265.9z"/>
	</g>
	<g>
		<g>
			
				<linearGradient id="SVGID_8_" gradientUnits="userSpaceOnUse" x1="313.1333" y1="438.445" x2="1089.9141" y2="438.445" gradientTransform="matrix(1 0 0 -1 0 1552)">
				<stop  offset="0" style="stop-color:#623CB3"/>
				<stop  offset="0.3731" style="stop-color:#A3975B"/>
				<stop  offset="0.5839" style="stop-color:#FFFFD1"/>
				<stop  offset="0.9357" style="stop-color:#8F6736"/>
			</linearGradient>
			<path class="st10" d="M1085.6,1055.9c-8.6,0-27.4,25.1-43.5,57.3c12.7-32.3,7.3-57.3-13.5-57.3c-22.3,0-54,29-70.6,64.8
				l-5.1,10.9l4.6-10.9c15.1-35.8,2.2-64.8-28.9-64.8c-28.9,0-63.3,25.2-80.1,57.6c1.3-32.4-25.7-57.6-63.6-57.6
				c-38.9,0-75.2,26.6-83.4,60.3c-8.2-33.7-44.5-60.3-83.4-60.3c-37.9,0-64.9,25.2-63.6,57.6c-16.8-32.4-51.2-57.6-80.1-57.6
				c-31,0-44,29-28.9,64.8l4.6,10.9l-5.1-10.9c-16.7-35.8-48.3-64.8-70.6-64.8c-20.8,0-26.2,25.1-13.5,57.3
				c-16.1-32.3-34.9-57.3-43.5-57.3c-9.2,0-3.1,29,13.7,64.8l12.7,24.9c7.3,15.6,23,25.5,40.2,25.5h636.4c17.2,0,32.8-9.9,40.2-25.5
				l11.4-24.9C1088.7,1084.9,1094.8,1055.9,1085.6,1055.9z"/>
		</g>
		<g>
			
				<linearGradient id="SVGID_9_" gradientUnits="userSpaceOnUse" x1="313.0099" y1="451.5234" x2="1177.9397" y2="451.5234" gradientTransform="matrix(1 0 0 -1 0 1552)">
				<stop  offset="0" style="stop-color:#623CB3"/>
				<stop  offset="0.3731" style="stop-color:#EECA73"/>
				<stop  offset="0.5559" style="stop-color:#FFFFD1"/>
				<stop  offset="0.6763" style="stop-color:#F7E88E"/>
				<stop  offset="0.8575" style="stop-color:#CAA356"/>
				<stop  offset="1" style="stop-color:#FFFFFF;stop-opacity:0"/>
			</linearGradient>
			<path class="st11" d="M1094.7,1059c-4.3-6.7-13.7-4.7-21.7-4.7c-8.8,0-15.8,1.5-25.2,11.6c-7.2-9.4-19.2-11.6-31.7-11.6
				c-20.1,0-38.6,13.1-50.5,24.1c-0.7,0.6-1.3,1.3-2,1.9c-0.6-1.1,1-10.4,0.3-11.4c-9.8-14.8-28.1-14.6-47.5-14.6
				c-24.6,0-51.5,13.4-72.6,34.6c-2.2-3.3-4.8-6.5-7.6-9.4c-15.5-16.2-37.9-25.2-63-25.2c-22.8,0-45.7,7.6-64.5,21.3
				c-7,5.1-13.3,11-18.6,17.3c-5.3-6.4-11.6-12.2-18.6-17.3c-18.8-13.7-41.7-21.3-64.5-21.3c-25.1,0-47.5,8.9-63,25.2
				c-2.8,3-5.4,6.1-7.6,9.4c-21.1-21.2-48-34.6-72.6-34.6c-19.4,0-35.5,8.1-45.3,22.9c-0.7,1-1.3,2.1-1.9,3.1
				c-0.7-0.6-1.4-1.3-2-1.9c-12-11-30.4-24.1-50.5-24.1c-12.5,0-23.2,5.2-30.4,14.6c-7.2-7.8-13.8-12.3-20.5-13.9l1.5,22.7
				c9.7,8.2,39,27.4,51.4,52.3c-12.7-32.3-17-50.9,5.4-55.1c21.9-4.1,62,22.9,78.6,58.7c0,0-11.9-21.9-9.4-39.3
				c1.5-10.1,15-19.2,28.2-20.7c28.6-3.3,68.9,9.5,85.6,41.9c-1.3-32.4,24.8-52.2,62-45.2c32,6,70.9,26,84.5,63.9
				c-2.6-56,44.2-62.4,70.8-62.4c37.8,0,70.7,28.5,69.4,60.9c11.5-36,38-64.9,75.4-58.9c50.8,8.2,36.1,58.5,36.1,58.5
				c20.8-49.8,41.3-58.5,63.6-58.5c20.7,0,31.6,10.9,27.5,36.3c16.1-32.3,10.6-43.4,29.3-36.3s4,73.1,4,73.1
				c7.5-16,13.2-31.2,16.5-43.9C1098.2,1085.3,1100.1,1067.5,1094.7,1059z"/>
		</g>
		<g>
			<g>
				<path class="st0" d="M1085.6,1055.9c9.2,0,3.1,29-13.7,64.8l-11.4,24.9c-7.3,15.6-23,25.5-40.2,25.5H383.9
					c-17.2,0-32.9-9.9-40.2-25.5l-12.7-24.9c-16.8-35.8-22.9-64.8-13.7-64.8c8.6,0,27.4,25.1,43.5,57.3
					c-12.7-32.3-7.3-57.3,13.5-57.3c22.3,0,54,29,70.6,64.8l5.1,10.9l-4.6-10.9c-15.1-35.8-2.1-64.8,28.9-64.8
					c28.9,0,63.3,25.2,80.1,57.6c-1.3-32.4,25.7-57.6,63.6-57.6c38.9,0,75.2,26.6,83.4,60.3c8.2-33.7,44.5-60.3,83.4-60.3
					c37.9,0,64.9,25.2,63.6,57.6c16.8-32.4,51.2-57.6,80.1-57.6c31,0,44,29,28.9,64.8l-4.6,10.9l5.1-10.9
					c16.7-35.8,48.3-64.8,70.6-64.8c20.8,0,26.2,25.1,13.5,57.3C1058.2,1081,1077,1055.9,1085.6,1055.9 M1085.6,1035.9
					c-8.9,0-17.1,4.4-26.4,14.3c-7.3-9.3-18.1-14.3-30.6-14.3c-20.3,0-38.9,13.2-51,24.2c-0.5,0.5-1.1,1-1.6,1.5
					c-0.5-0.9-1.1-1.8-1.7-2.7c-9.9-14.9-26.1-23.1-45.8-23.1c-24.7,0-51.6,13.3-72.8,34.4c-2.2-3.2-4.7-6.2-7.4-9
					c-15.7-16.3-38.2-25.3-63.5-25.3c-23,0-46,7.6-65,21.3c-6.9,5-13.1,10.8-18.4,17c-5.3-6.2-11.5-11.9-18.4-17
					c-18.9-13.8-42-21.3-65-21.3c-25.3,0-47.9,9-63.5,25.3c-2.7,2.8-5.2,5.9-7.4,9c-21.2-21-48.1-34.4-72.8-34.4
					c-19.6,0-35.9,8.2-45.8,23.1c-0.6,0.9-1.1,1.8-1.7,2.7c-0.5-0.5-1.1-1-1.6-1.5c-12-11.1-30.7-24.2-51-24.2
					c-12.5,0-23.2,5.1-30.5,14.3c-9.3-9.9-17.6-14.3-26.4-14.3c-8.1,0-15.5,4.1-19.9,11c-5.5,8.6-5.8,20.4-1.1,38.3
					c3.4,12.8,9.1,28,16.6,44c0.1,0.2,0.2,0.4,0.3,0.6l12.5,24.7c10.6,22.3,33.4,36.7,58.1,36.7h636.4c24.8,0,47.7-14.5,58.3-37
					c0-0.1,0.1-0.1,0.1-0.2l11.3-24.8c7.5-16,13.2-31.2,16.6-43.9c4.7-17.9,4.4-29.7-1.1-38.3
					C1101.2,1040,1093.7,1035.9,1085.6,1035.9L1085.6,1035.9z"/>
			</g>
		</g>
		<g>
			
				<linearGradient id="SVGID_10_" gradientUnits="userSpaceOnUse" x1="347.33" y1="390.5001" x2="1056.98" y2="390.5001" gradientTransform="matrix(1 0 0 -1 0 1552)">
				<stop  offset="8.710000e-02" style="stop-color:#623CB3"/>
				<stop  offset="0.4738" style="stop-color:#AEA084"/>
				<stop  offset="0.8402" style="stop-color:#635546"/>
			</linearGradient>
			<path class="st12" d="M1056.4,1151.8H347.9c-0.2,0-0.4,0-0.6,0c8.2,12,21.8,19.3,36.6,19.3h636.4c14.8,0,28.4-7.4,36.6-19.3
				C1056.8,1151.8,1056.6,1151.8,1056.4,1151.8z"/>
		</g>
	</g>
	<g>
		<g>
			
				<linearGradient id="SVGID_11_" gradientUnits="userSpaceOnUse" x1="284.2204" y1="217.1752" x2="1127.6696" y2="217.1752" gradientTransform="matrix(1 0 0 -1 0 1552)">
				<stop  offset="0" style="stop-color:#623CB3"/>
				<stop  offset="0.172" style="stop-color:#C29365"/>
				<stop  offset="0.5839" style="stop-color:#F7E789"/>
				<stop  offset="1" style="stop-color:#AD855E"/>
			</linearGradient>
			<path class="st13" d="M1105.2,1274.6c-27.6-32-80.1-39.7-108.2-8c-12.6,14.2-15.4,29.5-13,42.5c1.5-8.5,5.6-17.2,13-25.6
				c28.1-31.6,80.6-24,108.2,8c12.8,14.8,20.3,32.8,22.1,51.9c0-0.5,0.1-1,0.1-1.5C1129.2,1317.3,1121.3,1293.3,1105.2,1274.6z
				 M1078.5,1385.5c-36.1,31.1-90.8,27.1-121.9-9c-16.1-18.7-24.9-41.2-26.6-64.1c-2.1,28.4,6.6,57.7,26.6,80.9
				c31.1,36.1,85.8,40.2,121.9,9c17.5-15.1,25.2-37.4,22.5-58.9C1099,1359.2,1091.4,1374.3,1078.5,1385.5z M414.9,1283.5
				c7.4,8.4,11.4,17.2,13,25.6c2.4-13-0.4-28.3-13-42.5c-28.1-31.6-80.6-24-108.2,8c-16.1,18.7-24,42.6-22.2,67.3
				c0,0.5,0.1,1,0.1,1.5c1.7-19.1,9.3-37.1,22.1-51.9C334.3,1259.5,386.8,1251.8,414.9,1283.5z M455.3,1376.4
				c-31.1,36.1-85.8,40.2-121.9,9c-12.9-11.2-20.5-26.2-22.5-42c-2.7,21.4,5,43.8,22.5,58.9c36.1,31.1,90.8,27.1,121.9-9
				c20-23.3,28.7-52.5,26.6-80.9C480.2,1335.2,471.4,1357.8,455.3,1376.4z"/>
		</g>
	</g>
	<g>
		
			<radialGradient id="SVGID_12_" cx="503.8" cy="1291.83" r="82.905" gradientTransform="matrix(1 0 0 -1 0 1552)" gradientUnits="userSpaceOnUse">
			<stop  offset="0" style="stop-color:#FFFFFF"/>
			<stop  offset="1" style="stop-color:#FFFFFF;stop-opacity:0.4"/>
		</radialGradient>
		<path class="st14" d="M477.1,233.5l20.5-52.1c2.2-5.5,10-5.5,12.2,0l20.6,52.1l52.1,20.6c5.5,2.2,5.5,10,0,12.2l-52.1,20.5
			l-20.5,52.1c-2.2,5.5-10,5.5-12.2,0l-20.5-52.1l-52.1-20.5c-5.5-2.2-5.5-10,0-12.2L477.1,233.5z"/>
		
			<radialGradient id="SVGID_13_" cx="680.345" cy="1432.365" r="60.8" gradientTransform="matrix(1 0 0 -1 0 1552)" gradientUnits="userSpaceOnUse">
			<stop  offset="0" style="stop-color:#FFFFFF"/>
			<stop  offset="1" style="stop-color:#FFFFFF;stop-opacity:0.4"/>
		</radialGradient>
		<path class="st15" d="M660.8,100.1l15.1-38.2c1.6-4.1,7.3-4.1,9,0l15.1,38.2l38.2,15.1c4.1,1.6,4.1,7.3,0,8.9l-38.2,15.1
			l-15.1,38.2c-1.6,4.1-7.3,4.1-9,0l-15.1-38.2l-38.2-15.1c-4.1-1.6-4.1-7.3,0-8.9L660.8,100.1z"/>
		
			<radialGradient id="SVGID_14_" cx="325.71" cy="1112.98" r="53.38" gradientTransform="matrix(1 0 0 -1 0 1552)" gradientUnits="userSpaceOnUse">
			<stop  offset="0" style="stop-color:#FFFFFF"/>
			<stop  offset="1" style="stop-color:#FFFFFF;stop-opacity:0.4"/>
		</radialGradient>
		<path class="st16" d="M308.5,421.9l13.2-33.5c1.4-3.6,6.5-3.6,7.9,0l13.2,33.5l33.5,13.2c3.6,1.4,3.6,6.5,0,7.9l-33.5,13.2
			l-13.2,33.5c-1.4,3.6-6.5,3.6-7.9,0l-13.2-33.5L275,442.9c-3.6-1.4-3.6-6.5,0-7.9L308.5,421.9z"/>
		
			<radialGradient id="SVGID_15_" cx="934.65" cy="1224.42" r="41.1525" gradientTransform="matrix(1 0 0 -1 0 1552)" gradientUnits="userSpaceOnUse">
			<stop  offset="0" style="stop-color:#FFFFFF"/>
			<stop  offset="1" style="stop-color:#FFFFFF;stop-opacity:0.4"/>
		</radialGradient>
		<path class="st17" d="M921.4,314.4l10.2-25.9c1.1-2.8,5-2.8,6.1,0l10.2,25.9l25.9,10.2c2.8,1.1,2.8,5,0,6.1l-25.9,10.2l-10.2,25.9
			c-1.1,2.8-5,2.8-6.1,0l-10.2-25.9l-25.9-10.2c-2.8-1.1-2.8-5,0-6.1L921.4,314.4z"/>
		
			<radialGradient id="SVGID_16_" cx="611.975" cy="1318.845" r="22.6375" gradientTransform="matrix(1 0 0 -1 0 1552)" gradientUnits="userSpaceOnUse">
			<stop  offset="0" style="stop-color:#FFFFFF"/>
			<stop  offset="1" style="stop-color:#FFFFFF;stop-opacity:0.4"/>
		</radialGradient>
		<path class="st18" d="M604.7,225.9l5.6-14.2c0.6-1.5,2.7-1.5,3.3,0l5.6,14.2l14.2,5.6c1.5,0.6,1.5,2.7,0,3.3l-14.2,5.6l-5.6,14.2
			c-0.6,1.5-2.7,1.5-3.3,0l-5.6-14.2l-14.2-5.6c-1.5-0.6-1.5-2.7,0-3.3L604.7,225.9z"/>
		
			<radialGradient id="SVGID_17_" cx="354.435" cy="1317.495" r="22.6375" gradientTransform="matrix(1 0 0 -1 0 1552)" gradientUnits="userSpaceOnUse">
			<stop  offset="0" style="stop-color:#FFFFFF"/>
			<stop  offset="1" style="stop-color:#FFFFFF;stop-opacity:0.4"/>
		</radialGradient>
		<path class="st19" d="M347.2,227.2l5.6-14.2c0.6-1.5,2.7-1.5,3.3,0l5.6,14.2l14.2,5.6c1.5,0.6,1.5,2.7,0,3.3l-14.2,5.6l-5.6,14.2
			c-0.6,1.5-2.7,1.5-3.3,0l-5.6-14.2l-14.2-5.6c-1.5-0.6-1.5-2.7,0-3.3L347.2,227.2z"/>
		
			<radialGradient id="SVGID_18_" cx="861.495" cy="1311.365" r="22.6375" gradientTransform="matrix(1 0 0 -1 0 1552)" gradientUnits="userSpaceOnUse">
			<stop  offset="0" style="stop-color:#FFFFFF"/>
			<stop  offset="1" style="stop-color:#FFFFFF;stop-opacity:0.4"/>
		</radialGradient>
		<path class="st20" d="M854.2,233.4l5.6-14.2c0.6-1.5,2.7-1.5,3.3,0l5.6,14.2L883,239c1.5,0.6,1.5,2.7,0,3.3l-14.2,5.6l-5.6,14.2
			c-0.6,1.5-2.7,1.5-3.3,0l-5.6-14.2l-14.2-5.6c-1.5-0.6-1.5-2.7,0-3.3L854.2,233.4z"/>
	</g>
</g>
<g>
	<g>
		<g>
			
				<radialGradient id="SVGID_19_" cx="1677.8647" cy="1099.8743" r="53.1557" fx="1685.8344" fy="1098.2144" gradientTransform="matrix(1.0648 -0.2727 0.1107 1.1795 -1120.439 259.5625)" gradientUnits="userSpaceOnUse">
				<stop  offset="5.289270e-04" style="stop-color:#CE2094"/>
				<stop  offset="0.808" style="stop-color:#2B029B"/>
			</radialGradient>
			<path class="st21" d="M778.8,1144.5c-17.9,0-33.2-12.9-35-29.3c-2-18.9,12-38.5,30.6-42.8c2.8-0.7,5.8-1,8.7-1
				c18.5,0,34.2,13.2,34.9,29.5c1.1,23.4-9.3,37.8-30.8,42.7C784.5,1144.2,781.7,1144.5,778.8,1144.5z"/>
			<path class="st0" d="M783.1,1076.5c15.4,0,29.3,10.5,29.9,24.7c1,22.6-9.6,33.6-26.9,37.6c-2.5,0.6-4.9,0.8-7.3,0.8
				c-15.2,0-28.5-10.6-30-24.8c-1.7-15.7,9.8-33.4,26.8-37.4C778.1,1076.8,780.6,1076.5,783.1,1076.5 M783.1,1066.5L783.1,1066.5
				c-3.3,0-6.6,0.4-9.8,1.1c-10.4,2.4-19.8,8.9-26.3,18.3c-6.2,9-9.2,19.9-8.1,29.9c1,9.4,5.8,18.1,13.5,24.4
				c7.4,6,16.8,9.4,26.5,9.4c3.2,0,6.4-0.4,9.5-1.1c11.4-2.6,20.1-7.8,26-15.4c6.3-8.2,9.2-19.1,8.6-32.4c-0.4-9.7-5.1-18.5-13.2-25
				C802.4,1069.7,793,1066.5,783.1,1066.5L783.1,1066.5z"/>
		</g>
		
			<linearGradient id="SVGID_20_" gradientUnits="userSpaceOnUse" x1="270.0422" y1="888.3507" x2="248.5676" y2="917.3068" gradientTransform="matrix(-1.0293 -0.1958 -0.2979 1.015 1314.3219 229.1685)">
			<stop  offset="5.289270e-04" style="stop-color:#FFFFFF"/>
			<stop  offset="1" style="stop-color:#FFFFFF;stop-opacity:0"/>
		</linearGradient>
		<path class="st22" d="M757.9,1096.3c-2.5,10,5.1,18.7,17.1,19.4s23.7-7,26.3-17c2.5-10-5.1-18.7-17.1-19.4
			S760.4,1086.2,757.9,1096.3z"/>
	</g>
	<g>
		<g>
			
				<radialGradient id="SVGID_21_" cx="1888.636" cy="1101.0444" r="48.2758" fx="1896.5535" fy="1101.1193" gradientTransform="matrix(0.9666 0 -0.1839 0.9979 -698.5308 3.0323)" gradientUnits="userSpaceOnUse">
				<stop  offset="5.289270e-04" style="stop-color:#CE2094"/>
				<stop  offset="0.7641" style="stop-color:#2B029B"/>
			</radialGradient>
			<path class="st23" d="M912.7,1141.9c-10.3,0-18.9-4.3-24.3-12.2c-5.7-8.4-6.9-19.8-3.1-29.6c6.3-16.1,20.5-25.7,37.9-25.7
				c8.2,0,15.5,3.3,20.5,9.3c5.5,6.6,7.6,15.8,5.9,25.3C946.3,1127.2,929.7,1141.9,912.7,1141.9z"/>
			<path class="st0" d="M923.3,1079.4c14.8,0,24.4,12.9,21.4,28.7s-17.3,28.7-32,28.7c-20.5,0-28.6-20-22.7-35
				C895.7,1087.4,908.5,1079.4,923.3,1079.4 M923.3,1069.4c-19.3,0-35.6,11-42.6,28.8c-4.5,11.3-3.1,24.4,3.6,34.2
				c6.3,9.3,16.4,14.4,28.4,14.4c19.7,0,38.1-16.2,41.9-36.9c2-11-0.5-21.7-6.9-29.4C941.7,1073.4,933,1069.4,923.3,1069.4
				L923.3,1069.4z"/>
		</g>
		
			<linearGradient id="SVGID_22_" gradientUnits="userSpaceOnUse" x1="291.0634" y1="880.4215" x2="276.6741" y2="898.3545" gradientTransform="matrix(-1.1019 -1.0515 -1.1257 1.0642 2237.0649 445.7985)">
			<stop  offset="5.289270e-04" style="stop-color:#FFFFFF"/>
			<stop  offset="1" style="stop-color:#FFFFFF;stop-opacity:0"/>
		</linearGradient>
		<path class="st24" d="M934.5,1109.6c-8.1,6.1-20,5.2-26.5-2c-6.5-7.2-5.2-17.9,2.9-24c8.1-6.1,20-5.2,26.5,2
			C943.9,1092.8,942.6,1103.5,934.5,1109.6z"/>
	</g>
	<g>
		<g>
			
				<radialGradient id="SVGID_23_" cx="2258.2151" cy="1176.0376" r="48.1492" fx="2260.4153" fy="1176.0376" gradientTransform="matrix(0.7412 -5.802367e-02 -0.2041 0.9508 -407.668 114.1255)" gradientUnits="userSpaceOnUse">
				<stop  offset="5.289270e-04" style="stop-color:#CE2094"/>
				<stop  offset="1" style="stop-color:#2B029B"/>
			</radialGradient>
			<path class="st25" d="M1009.4,1139.3c-2.6,0-5.1-0.3-7.5-0.9l-1.8-0.4l-1.1-1.5c-8-11.1-7.3-26.8-3.3-36.7
				c5.2-12.8,12.8-20,24.8-23.3l0.5-0.1l0.5,0c0.5,0,0.9-0.1,1.4-0.1c6.3,0,12.6,3.3,16.8,9c5.6,7.5,7,18.2,3.8,29.3
				C1038.5,1131.6,1022.3,1139.3,1009.4,1139.3z"/>
			<path class="st0" d="M1022.9,1081.4c10.5,0,21.4,12.5,15.8,31.8c-4.2,14.3-17.7,21.2-29.3,21.2c-2.2,0-4.3-0.2-6.3-0.7
				c-6.6-9.1-6.4-22.9-2.7-31.8c4.5-11.1,11-17.4,21.5-20.4C1022.2,1081.4,1022.6,1081.4,1022.9,1081.4 M1022.9,1071.4
				L1022.9,1071.4L1022.9,1071.4c-0.6,0-1.2,0-1.8,0.1l-1,0.1l-0.9,0.3c-13.4,3.7-22.3,12.1-28,26.2c-4.6,11.2-5.3,28.9,3.9,41.5
				l2.2,3l3.6,0.9c2.7,0.7,5.7,1,8.6,1c8,0,16.2-2.4,22.9-6.8c7.8-5.1,13.4-12.6,16-21.5c3.7-12.6,2-24.9-4.6-33.7
				C1038.6,1075.5,1030.8,1071.4,1022.9,1071.4L1022.9,1071.4z"/>
		</g>
		
			<linearGradient id="SVGID_24_" gradientUnits="userSpaceOnUse" x1="-35.7206" y1="1273.5679" x2="-24.8823" y2="1299.252" gradientTransform="matrix(-0.8946 0.425 0.4156 0.9048 461.2543 -57.4404)">
			<stop  offset="5.289270e-04" style="stop-color:#FFFFFF"/>
			<stop  offset="1" style="stop-color:#FFFFFF;stop-opacity:0"/>
		</linearGradient>
		<path class="st26" d="M1034.5,1088.2c4,6.7,2.2,15.7-4,20.2c-6.3,4.5-14.6,2.8-18.6-3.9s-2.2-15.7,4-20.2
			C1022.1,1079.9,1030.4,1081.6,1034.5,1088.2z"/>
	</g>
	<g>
		<g>
			
				<radialGradient id="SVGID_25_" cx="2493.9441" cy="896.3652" r="41.6667" fx="2495.8479" fy="896.3652" gradientTransform="matrix(0.5954 0.1397 -0.3413 0.9058 -90.4099 -54.5565)" gradientUnits="userSpaceOnUse">
				<stop  offset="5.289270e-04" style="stop-color:#CE2094"/>
				<stop  offset="1" style="stop-color:#2B029B"/>
			</radialGradient>
			<path class="st27" d="M1071.9,1136.5c-1.9,0-3.7-0.2-5.4-0.6l-3.9-0.9l0-4c0.1-9.1,2-32.1,18.6-48.5l2-1.9l2.7,0.6
				c4.9,1.1,9.1,4.3,11.8,8.9c3.7,6.3,4.4,14.8,1.9,24C1095.1,1130.6,1081.9,1136.5,1071.9,1136.5z"/>
			<path class="st0" d="M1084.8,1086c8.1,1.9,14.1,11.6,10,26.7c-3.8,14-14.7,18.8-22.9,18.8c-1.5,0-2.9-0.2-4.2-0.5
				C1067.8,1116.7,1072.2,1098.4,1084.8,1086 M1081.7,1075l-3.9,3.9c-17.9,17.7-20,42.3-20.1,52.1l-0.1,8l7.8,1.8
				c2.1,0.5,4.2,0.7,6.5,0.7c11.7,0,27.3-6.8,32.6-26.1c2.9-10.5,2-20.4-2.4-27.9c-3.4-5.7-8.7-9.7-14.9-11.2L1081.7,1075
				L1081.7,1075z"/>
		</g>
		
			<linearGradient id="SVGID_26_" gradientUnits="userSpaceOnUse" x1="-130.4996" y1="1087.5861" x2="-130.5103" y2="1105.6622" gradientTransform="matrix(-1 0 0 1 957.6624 0)">
			<stop  offset="0" style="stop-color:#FFFFFF"/>
			<stop  offset="1" style="stop-color:#FFFFFF;stop-opacity:0"/>
		</linearGradient>
		<path class="st28" d="M1095.4,1109.6c-2.6,2.6-6.7,2.3-10.2-0.9c-4.4-4.1-6.2-11.4-4.1-16.4c1.7-4,5.6-5.3,9.3-3.4
			C1097.9,1095.4,1096.1,1108.9,1095.4,1109.6z"/>
	</g>
</g>
<g>
	<g>
		<g>
			
				<radialGradient id="SVGID_27_" cx="2082.7495" cy="1213.5629" r="53.1556" fx="2090.7192" fy="1211.903" gradientTransform="matrix(-1.0648 -0.2727 -0.1107 1.1795 2967.4358 235.8942)" gradientUnits="userSpaceOnUse">
				<stop  offset="5.289270e-04" style="stop-color:#CE2094"/>
				<stop  offset="0.808" style="stop-color:#2B029B"/>
			</radialGradient>
			<path class="st29" d="M624.5,1144.5c-2.8,0-5.7-0.3-8.4-1c-21.5-4.9-31.9-19.2-30.8-42.7c0.7-16.2,16.4-29.5,34.9-29.5
				c2.9,0,5.9,0.3,8.7,1c18.6,4.3,32.6,23.9,30.6,42.8C657.7,1131.7,642.3,1144.5,624.5,1144.5
				C624.5,1144.5,624.5,1144.5,624.5,1144.5z"/>
			<path class="st0" d="M620.2,1076.5c2.5,0,5.1,0.3,7.6,0.9c16.9,3.9,28.4,21.7,26.8,37.4c-1.5,14.2-14.8,24.8-30,24.8
				c-2.4,0-4.9-0.3-7.3-0.8c-17.3-3.9-27.9-14.9-26.9-37.6C590.9,1087,604.8,1076.5,620.2,1076.5 M620.2,1066.5
				c-9.8,0-19.3,3.3-26.7,9.2c-8.1,6.5-12.7,15.3-13.2,25c-0.6,13.3,2.3,24.1,8.6,32.4c5.9,7.6,14.7,12.8,26,15.4
				c3.1,0.7,6.4,1.1,9.5,1.1c9.7,0,19.1-3.3,26.5-9.4c7.7-6.3,12.5-15,13.5-24.4c1.1-10-1.9-20.9-8.1-29.9
				c-6.5-9.4-15.9-15.9-26.3-18.3C626.8,1066.9,623.5,1066.5,620.2,1066.5L620.2,1066.5z"/>
		</g>
		
			<linearGradient id="SVGID_28_" gradientUnits="userSpaceOnUse" x1="-136.2061" y1="809.9749" x2="-157.6807" y2="838.9308" gradientTransform="matrix(1.0293 -0.1958 0.2979 1.015 530.4535 229.1685)">
			<stop  offset="5.289270e-04" style="stop-color:#FFFFFF"/>
			<stop  offset="1" style="stop-color:#FFFFFF;stop-opacity:0"/>
		</linearGradient>
		<path class="st30" d="M645.4,1096.3c2.5,10-5.1,18.7-17.1,19.4c-12,0.7-23.7-7-26.3-17s5.1-18.7,17.1-19.4
			S642.9,1086.2,645.4,1096.3z"/>
	</g>
	<g>
		<g>
			
				<radialGradient id="SVGID_29_" cx="2345.3813" cy="1101.0444" r="48.2757" fx="2353.2988" fy="1101.1193" gradientTransform="matrix(-0.9666 0 0.1839 0.9979 2543.3062 3.0323)" gradientUnits="userSpaceOnUse">
				<stop  offset="5.289270e-04" style="stop-color:#CE2094"/>
				<stop  offset="0.7641" style="stop-color:#2B029B"/>
			</radialGradient>
			<path class="st31" d="M490.6,1141.9c-17,0-33.6-14.7-37-32.8c-1.8-9.5,0.4-18.7,5.9-25.3c5-6,12.3-9.3,20.5-9.3
				c17.4,0,31.6,9.6,37.9,25.7c3.9,9.8,2.7,21.1-3.1,29.6C509.5,1137.5,500.9,1141.9,490.6,1141.9z"/>
			<path class="st0" d="M480,1079.4c14.8,0,27.6,8,33.3,22.5c5.9,15-2.1,35-22.7,35c-14.8,0-29.1-12.9-32-28.7
				C455.6,1092.3,465.2,1079.4,480,1079.4 M480,1069.4c-9.7,0-18.4,4-24.3,11.1c-6.4,7.7-9,18.4-6.9,29.4
				c3.8,20.7,22.2,36.9,41.9,36.9c12,0,22.1-5.1,28.4-14.4c6.7-9.8,8-22.9,3.6-34.2C515.6,1080.5,499.3,1069.4,480,1069.4
				L480,1069.4z"/>
		</g>
		
			<linearGradient id="SVGID_30_" gradientUnits="userSpaceOnUse" x1="91.6647" y1="683.4096" x2="77.2754" y2="701.3427" gradientTransform="matrix(1.1019 -1.0515 1.1257 1.0642 -392.2896 445.7985)">
			<stop  offset="5.289270e-04" style="stop-color:#FFFFFF"/>
			<stop  offset="1" style="stop-color:#FFFFFF;stop-opacity:0"/>
		</linearGradient>
		<path class="st32" d="M468.8,1109.6c8.1,6.1,20,5.2,26.5-2c6.5-7.2,5.2-17.9-2.9-24c-8.1-6.1-20-5.2-26.5,2
			C459.3,1092.8,460.6,1103.5,468.8,1109.6z"/>
	</g>
	<g>
		<g>
			
				<radialGradient id="SVGID_31_" cx="2864.0637" cy="1211.7882" r="48.149" fx="2866.2639" fy="1211.7882" gradientTransform="matrix(-0.7412 -5.802367e-02 0.2041 0.9508 2252.6929 115.2875)" gradientUnits="userSpaceOnUse">
				<stop  offset="5.289270e-04" style="stop-color:#CE2094"/>
				<stop  offset="1" style="stop-color:#2B029B"/>
			</radialGradient>
			<path class="st33" d="M393.9,1139.3c-12.9,0-29.1-7.7-34.1-24.7c-3.2-11.1-1.9-21.7,3.8-29.3c4.2-5.6,10.5-9,16.8-9
				c0.5,0,0.9,0,1.4,0.1l0.5,0l0.5,0.1c11.9,3.3,19.5,10.5,24.8,23.3c4,9.9,4.7,25.6-3.3,36.7l-1.1,1.5l-1.8,0.4
				C399,1139,396.5,1139.3,393.9,1139.3C393.9,1139.3,393.9,1139.3,393.9,1139.3z"/>
			<path class="st0" d="M380.4,1081.4c0.3,0,0.7,0,1,0c10.5,2.9,16.9,9.2,21.5,20.4c3.7,9,3.9,22.7-2.7,31.8c-2,0.5-4.1,0.7-6.3,0.7
				c-11.6,0-25.1-6.8-29.3-21.2C358.9,1093.9,369.9,1081.4,380.4,1081.4 M380.4,1071.4c-7.9,0-15.7,4.1-20.8,11
				c-6.6,8.8-8.3,21.1-4.6,33.7c2.6,8.9,8.2,16.4,16,21.5c6.7,4.4,14.9,6.8,22.9,6.8c3,0,5.9-0.3,8.6-1l3.6-0.9l2.2-3
				c9.2-12.6,8.4-30.4,3.9-41.5c-5.8-14.1-14.7-22.5-28-26.2l-0.9-0.3l-1-0.1C381.6,1071.4,381,1071.4,380.4,1071.4L380.4,1071.4z"
				/>
		</g>
		
			<linearGradient id="SVGID_32_" gradientUnits="userSpaceOnUse" x1="-440.8228" y1="1463.8435" x2="-429.9844" y2="1489.5277" gradientTransform="matrix(0.8946 0.425 -0.4156 0.9048 1383.521 -57.4404)">
			<stop  offset="5.289270e-04" style="stop-color:#FFFFFF"/>
			<stop  offset="1" style="stop-color:#FFFFFF;stop-opacity:0"/>
		</linearGradient>
		<path class="st34" d="M368.8,1088.2c-4,6.7-2.2,15.7,4,20.2c6.3,4.5,14.6,2.8,18.6-3.9s2.2-15.7-4-20.2
			C381.2,1079.9,372.8,1081.6,368.8,1088.2z"/>
	</g>
	<g>
		<g>
			
				<radialGradient id="SVGID_33_" cx="3175.1958" cy="794.7433" r="41.6668" fx="3177.0996" fy="794.7433" gradientTransform="matrix(-0.5954 0.1397 0.3413 0.9058 1933.9998 -57.7031)" gradientUnits="userSpaceOnUse">
				<stop  offset="5.289270e-04" style="stop-color:#CE2094"/>
				<stop  offset="1" style="stop-color:#2B029B"/>
			</radialGradient>
			<path class="st35" d="M331.4,1136.5c-10,0-23.2-5.9-27.7-22.5c-2.5-9.2-1.8-17.7,1.9-24c2.7-4.6,6.9-7.7,11.8-8.9l2.7-0.6l2,1.9
				c16.6,16.4,18.5,39.4,18.6,48.5l0,4l-3.9,0.9C335.1,1136.3,333.3,1136.5,331.4,1136.5C331.4,1136.5,331.4,1136.5,331.4,1136.5z"
				/>
			<path class="st0" d="M318.5,1086c12.6,12.4,17,30.7,17.1,45c-1.3,0.3-2.7,0.5-4.2,0.5c-8.2,0-19.1-4.7-22.9-18.8
				C304.3,1097.6,310.4,1087.9,318.5,1086 M321.6,1075l-5.4,1.3c-6.2,1.5-11.5,5.4-14.9,11.2c-4.4,7.5-5.3,17.4-2.4,27.9
				c5.3,19.3,20.8,26.1,32.6,26.1c2.3,0,4.4-0.2,6.5-0.7l7.8-1.8l-0.1-8c-0.1-9.8-2.2-34.3-20.1-52.1L321.6,1075L321.6,1075z"/>
		</g>
		
			<linearGradient id="SVGID_34_" gradientUnits="userSpaceOnUse" x1="-571.989" y1="1087.5861" x2="-571.9997" y2="1105.6622" gradientTransform="matrix(1 0 0 1 887.113 0)">
			<stop  offset="0" style="stop-color:#FFFFFF"/>
			<stop  offset="1" style="stop-color:#FFFFFF;stop-opacity:0"/>
		</linearGradient>
		<path class="st36" d="M307.9,1109.6c2.6,2.6,6.7,2.3,10.2-0.9c4.4-4.1,6.2-11.4,4.1-16.4c-1.7-4-5.6-5.3-9.3-3.4
			C305.4,1095.4,307.2,1108.9,307.9,1109.6z"/>
	</g>
</g>
</svg>
