<?xml version="1.0" standalone="no"?>
<!DOCTYPE svg PUBLIC "-//W3C//DTD SVG 20010904//EN"
 "http://www.w3.org/TR/2001/REC-SVG-20010904/DTD/svg10.dtd">
<svg version="1.0" xmlns="http://www.w3.org/2000/svg"
 width="441.000000pt" height="441.000000pt" viewBox="0 0 441.000000 441.000000"
 preserveAspectRatio="xMidYMid meet">
<metadata>
Created by potrace 1.16, written by Peter Selinger 2001-2019
</metadata>
<g transform="translate(0.000000,441.000000) scale(0.100000,-0.100000)"
fill="#000000" stroke="none">
<path d="M2000 4403 c-646 -102 -1164 -532 -1364 -1134 -67 -202 -80 -288 -80
-534 0 -191 3 -234 22 -323 41 -186 68 -259 117 -307 90 -91 227 -98 316 -18
86 78 105 162 66 293 -43 144 -51 199 -51 350 0 201 31 338 113 516 109 233
310 438 548 558 600 302 1353 32 1624 -582 198 -450 109 -962 -230 -1315 -97
-100 -183 -168 -291 -226 -169 -91 -303 -125 -565 -146 -217 -17 -336 -31
-385 -45 -18 -5 -35 -8 -38 -6 -7 8 38 226 147 718 61 274 111 517 111 540 -1
118 -117 228 -240 228 -85 0 -183 -69 -214 -151 -14 -38 -225 -1005 -471
-2164 -82 -383 -84 -409 -46 -483 38 -74 103 -113 201 -119 57 -4 72 -1 120
24 89 47 103 76 150 308 51 251 64 296 105 370 46 84 104 146 183 199 105 69
186 92 400 110 216 19 341 43 483 92 380 132 715 411 914 764 177 312 248 681
200 1042 -96 725 -658 1309 -1379 1433 -82 14 -395 20 -466 8z"/>
<path d="M2190 561 c-47 -15 -85 -39 -122 -78 -138 -142 -99 -376 77 -459 72
-34 196 -34 264 0 51 26 100 76 127 128 25 48 29 144 10 210 -19 66 -87 148
-150 180 -44 23 -162 34 -206 19z"/>
</g>
</svg>
