<svg width="27" height="20" viewBox="0 0 27 20" fill="none" xmlns="http://www.w3.org/2000/svg">
<path d="M19.154 5.77532C18.6363 2.20673 15.5292 0 10.2417 0C4.88614 0 1.35662 2.295 1.37025 6.02751C1.35662 8.92777 3.3326 10.8067 7.42085 11.5633L11.0457 12.2316C12.8718 12.5721 13.7032 13.19 13.7304 14.1609C13.7032 15.3084 12.3541 16.128 10.3235 16.128C8.25212 16.128 6.87574 15.3084 6.52144 13.7322L0.811523 14.0096C1.35662 17.7168 4.7635 19.9993 10.3098 19.9993C15.7336 19.9993 19.6174 17.4394 19.6311 13.6187C19.6174 10.8193 17.6415 9.14211 13.5804 8.37296L9.79209 7.66687C7.84331 7.27592 7.12104 6.65801 7.13467 5.72488C7.12104 4.56478 8.5383 3.80818 10.3371 3.80818C12.3541 3.80818 13.5532 4.82958 13.8395 6.07796L19.154 5.77532Z" fill="#BD018B"/>
<path d="M26.1797 17.3737C26.1797 18.824 25.0041 19.9996 23.5539 19.9996C22.1038 19.9996 20.9282 18.824 20.9282 17.3737C20.9282 15.9236 22.1038 14.748 23.5539 14.748C25.0041 14.748 26.1797 15.9236 26.1797 17.3737Z" fill="#BD018B"/>
</svg>
