<svg width="757" height="300" viewBox="0 0 757 300" fill="none" xmlns="http://www.w3.org/2000/svg">
<path fill-rule="evenodd" clip-rule="evenodd" d="M607 300C689.843 300 757 232.843 757 150C757 67.1573 689.843 0 607 0C524.157 0 457 67.1573 457 150C457 232.843 524.157 300 607 300ZM520.262 218H554.441V75.8125H520.262V218ZM588.27 75.8125V218H635.047C647.352 217.935 658.484 215.005 668.445 209.211C678.471 203.352 686.219 195.279 691.688 184.992C697.221 174.641 699.988 162.954 699.988 149.934V143.391C699.923 130.5 697.059 118.879 691.395 108.527C685.796 98.1107 677.983 90.0703 667.957 84.4062C657.931 78.6771 646.635 75.8125 634.07 75.8125H588.27ZM622.547 191.633V102.277H634.07C644.161 102.277 651.844 105.76 657.117 112.727C662.391 119.693 665.027 130.044 665.027 143.781V149.934C665.027 163.736 662.391 174.152 657.117 181.184C651.844 188.15 644.292 191.633 634.461 191.633H622.547Z" fill="#943DBD"/>
<path fill-rule="evenodd" clip-rule="evenodd" d="M607 300C689.843 300 757 232.843 757 150C757 67.1573 689.843 0 607 0C524.157 0 457 67.1573 457 150C457 232.843 524.157 300 607 300ZM520.262 218H554.441V75.8125H520.262V218ZM588.27 75.8125V218H635.047C647.352 217.935 658.484 215.005 668.445 209.211C678.471 203.352 686.219 195.279 691.688 184.992C697.221 174.641 699.988 162.954 699.988 149.934V143.391C699.923 130.5 697.059 118.879 691.395 108.527C685.796 98.1107 677.983 90.0703 667.957 84.4062C657.931 78.6771 646.635 75.8125 634.07 75.8125H588.27ZM622.547 191.633V102.277H634.07C644.161 102.277 651.844 105.76 657.117 112.727C662.391 119.693 665.027 130.044 665.027 143.781V149.934C665.027 163.736 662.391 174.152 657.117 181.184C651.844 188.15 644.292 191.633 634.461 191.633H622.547Z" fill="url(#paint0_linear)"/>
<path d="M97.3586 200.2C101.759 200.2 105.359 199.867 108.159 199.2C111.092 198.4 113.425 197.4 115.159 196.2C116.892 194.867 118.092 193.333 118.759 191.6C119.425 189.867 119.759 187.933 119.759 185.8C119.759 181.267 117.625 177.533 113.359 174.6C109.092 171.533 101.759 168.267 91.3586 164.8C86.8253 163.2 82.2919 161.4 77.7586 159.4C73.2253 157.267 69.1586 154.667 65.5586 151.6C61.9586 148.4 59.0253 144.6 56.7586 140.2C54.4919 135.667 53.3586 130.2 53.3586 123.8C53.3586 117.4 54.5586 111.667 56.9586 106.6C59.3586 101.4 62.7586 97 67.1586 93.4C71.5586 89.8 76.8919 87.0667 83.1586 85.2C89.4253 83.2 96.4919 82.2 104.359 82.2C113.692 82.2 121.759 83.2 128.559 85.2C135.359 87.2 140.959 89.4 145.359 91.8L136.359 116.4C132.492 114.4 128.159 112.667 123.359 111.2C118.692 109.6 113.025 108.8 106.359 108.8C98.8919 108.8 93.4919 109.867 90.1586 112C86.9586 114 85.3586 117.133 85.3586 121.4C85.3586 123.933 85.9586 126.067 87.1586 127.8C88.3586 129.533 90.0253 131.133 92.1586 132.6C94.4253 133.933 96.9586 135.2 99.7586 136.4C102.692 137.467 105.892 138.6 109.359 139.8C116.559 142.467 122.825 145.133 128.159 147.8C133.492 150.333 137.892 153.333 141.359 156.8C144.959 160.267 147.625 164.333 149.359 169C151.092 173.667 151.959 179.333 151.959 186C151.959 198.933 147.425 209 138.359 216.2C129.292 223.267 115.625 226.8 97.3586 226.8C91.2253 226.8 85.6919 226.4 80.7586 225.6C75.8253 224.933 71.4253 224.067 67.5586 223C63.8253 221.933 60.5586 220.8 57.7586 219.6C55.0919 218.4 52.8253 217.267 50.9586 216.2L59.7586 191.4C63.8919 193.667 68.9586 195.733 74.9586 197.6C81.0919 199.333 88.5586 200.2 97.3586 200.2ZM273.765 220.4C268.698 221.867 262.165 223.2 254.165 224.4C246.165 225.733 237.765 226.4 228.965 226.4C220.032 226.4 212.565 225.2 206.565 222.8C200.698 220.4 196.032 217.067 192.565 212.8C189.098 208.4 186.632 203.2 185.165 197.2C183.698 191.2 182.965 184.6 182.965 177.4V118.8H212.765V173.8C212.765 183.4 214.032 190.333 216.565 194.6C219.098 198.867 223.832 201 230.765 201C232.898 201 235.165 200.933 237.565 200.8C239.965 200.533 242.098 200.267 243.965 200V118.8H273.765V220.4ZM379.138 170.6C379.138 151.4 372.072 141.8 357.938 141.8C354.872 141.8 351.805 142.2 348.738 143C345.805 143.8 343.405 144.8 341.538 146V200.2C343.005 200.467 344.872 200.733 347.138 201C349.405 201.133 351.872 201.2 354.538 201.2C362.672 201.2 368.805 198.4 372.938 192.8C377.072 187.2 379.138 179.8 379.138 170.6ZM409.538 171.4C409.538 179.8 408.272 187.4 405.738 194.2C403.338 201 399.805 206.8 395.138 211.6C390.472 216.4 384.738 220.133 377.938 222.8C371.138 225.333 363.405 226.6 354.738 226.6C351.138 226.6 347.338 226.4 343.338 226C339.472 225.733 335.605 225.333 331.738 224.8C328.005 224.267 324.405 223.667 320.938 223C317.472 222.2 314.405 221.4 311.738 220.6V73.6L341.538 68.8V121.2C344.872 119.733 348.338 118.6 351.938 117.8C355.538 117 359.405 116.6 363.538 116.6C371.005 116.6 377.605 117.933 383.338 120.6C389.072 123.133 393.872 126.8 397.738 131.6C401.605 136.4 404.538 142.2 406.538 149C408.538 155.667 409.538 163.133 409.538 171.4Z" fill="url(#paint1_linear)"/>
<defs>
<linearGradient id="paint0_linear" x1="607" y1="0" x2="607" y2="300" gradientUnits="userSpaceOnUse">
<stop stop-color="#F50083"/>
<stop offset="1" stop-color="#720497"/>
</linearGradient>
<linearGradient id="paint1_linear" x1="231" y1="0" x2="231" y2="300" gradientUnits="userSpaceOnUse">
<stop stop-color="#F50184"/>
<stop offset="1" stop-color="#770497"/>
</linearGradient>
</defs>
</svg>
