<svg width="124" height="54" viewBox="0 0 124 54" fill="none" xmlns="http://www.w3.org/2000/svg">
<path d="M99.7686 34.4939V18.4099H101.845C103.664 18.4099 105.049 19.0369 105.999 20.2908C106.949 21.5447 107.425 23.408 107.425 25.8806V26.988C107.425 29.4724 106.949 31.3474 105.999 32.613C105.049 33.867 103.688 34.4939 101.916 34.4939H99.7686Z" fill="white"/>
<path fill-rule="evenodd" clip-rule="evenodd" d="M96.9667 54C111.897 54 124 41.9117 124 27C124 12.0883 111.897 0 96.9667 0C82.0367 0 69.9335 12.0883 69.9335 27C69.9335 41.9117 82.0367 54 96.9667 54ZM81.3346 39.24H87.4946V13.6463H81.3346V39.24ZM93.5911 13.6463V39.24H102.021C104.239 39.2283 106.245 38.7009 108.041 37.658C109.847 36.6033 111.244 35.1502 112.229 33.2986C113.227 31.4353 113.725 29.3318 113.725 26.988V25.8103C113.714 23.49 113.197 21.3982 112.176 19.5349C111.167 17.6599 109.759 16.2127 107.953 15.1931C106.146 14.1619 104.11 13.6463 101.845 13.6463H93.5911Z" fill="white"/>
<path d="M8.36229 36.036C9.15526 36.036 9.80406 35.976 10.3087 35.856C10.8373 35.712 11.2579 35.532 11.5702 35.316C11.8826 35.076 12.0989 34.8 12.219 34.488C12.3392 34.176 12.3993 33.828 12.3993 33.444C12.3993 32.628 12.0148 31.956 11.2458 31.428C10.4769 30.876 9.15526 30.288 7.28096 29.664C6.46395 29.376 5.64695 29.052 4.82994 28.692C4.01294 28.308 3.28004 27.84 2.63124 27.288C1.98244 26.712 1.45379 26.028 1.04529 25.236C0.636783 24.42 0.432532 23.436 0.432532 22.284C0.432532 21.132 0.648798 20.1 1.08133 19.188C1.51386 18.252 2.12662 17.46 2.91959 16.812C3.71257 16.164 4.67375 15.672 5.80314 15.336C6.93253 14.976 8.2061 14.796 9.62384 14.796C11.3059 14.796 12.7597 14.976 13.9852 15.336C15.2107 15.696 16.22 16.092 17.0129 16.524L15.3909 20.952C14.6941 20.592 13.9131 20.28 13.0481 20.016C12.207 19.728 11.1858 19.584 9.98428 19.584C8.63863 19.584 7.66543 19.776 7.06469 20.16C6.48798 20.52 6.19963 21.084 6.19963 21.852C6.19963 22.308 6.30776 22.692 6.52403 23.004C6.74029 23.316 7.04066 23.604 7.42514 23.868C7.83364 24.108 8.2902 24.336 8.79482 24.552C9.32347 24.744 9.90018 24.948 10.5249 25.164C11.8225 25.644 12.9519 26.124 13.9131 26.604C14.8743 27.06 15.6673 27.6 16.292 28.224C16.9408 28.848 17.4214 29.58 17.7338 30.42C18.0462 31.26 18.2024 32.28 18.2024 33.48C18.2024 35.808 17.3854 37.62 15.7514 38.916C14.1174 40.188 11.6543 40.824 8.36229 40.824C7.25693 40.824 6.2597 40.752 5.37061 40.608C4.48151 40.488 3.68854 40.332 2.99168 40.14C2.31885 39.948 1.73013 39.744 1.22551 39.528C0.744916 39.312 0.336414 39.108 0 38.916L1.58595 34.452C2.33087 34.86 3.24399 35.232 4.32532 35.568C5.43068 35.88 6.77634 36.036 8.36229 36.036Z" fill="white"/>
<path d="M39.0732 39.672C38.1601 39.936 36.9826 40.176 35.5409 40.392C34.0991 40.632 32.5852 40.752 30.9993 40.752C29.3893 40.752 28.0436 40.536 26.9623 40.104C25.905 39.672 25.064 39.072 24.4392 38.304C23.8144 37.512 23.3699 36.576 23.1056 35.496C22.8412 34.416 22.7091 33.228 22.7091 31.932V21.384H28.0797V31.284C28.0797 33.012 28.308 34.26 28.7645 35.028C29.2211 35.796 30.0741 36.18 31.3237 36.18C31.7081 36.18 32.1166 36.168 32.5492 36.144C32.9817 36.096 33.3662 36.048 33.7026 36V21.384H39.0732V39.672Z" fill="white"/>
<path d="M56.9824 30.708C56.9824 27.252 55.7089 25.524 53.1618 25.524C52.6091 25.524 52.0564 25.596 51.5037 25.74C50.9751 25.884 50.5425 26.064 50.2061 26.28V36.036C50.4704 36.084 50.8069 36.132 51.2154 36.18C51.6239 36.204 52.0684 36.216 52.549 36.216C54.0148 36.216 55.1202 35.712 55.8651 34.704C56.61 33.696 56.9824 32.364 56.9824 30.708ZM62.4612 30.852C62.4612 32.364 62.2329 33.732 61.7763 34.956C61.3438 36.18 60.707 37.224 59.866 38.088C59.025 38.952 57.9917 39.624 56.7662 40.104C55.5407 40.56 54.147 40.788 52.585 40.788C51.9362 40.788 51.2514 40.752 50.5305 40.68C49.8337 40.632 49.1368 40.56 48.4399 40.464C47.7671 40.368 47.1183 40.26 46.4935 40.14C45.8688 39.996 45.3161 39.852 44.8355 39.708V13.248L50.2061 12.384V21.816C50.8069 21.552 51.4316 21.348 52.0804 21.204C52.7292 21.06 53.4261 20.988 54.171 20.988C55.5166 20.988 56.7061 21.228 57.7394 21.708C58.7727 22.164 59.6377 22.824 60.3346 23.688C61.0314 24.552 61.5601 25.596 61.9205 26.82C62.281 28.02 62.4612 29.364 62.4612 30.852Z" fill="white"/>
</svg>
