<svg width="14" height="14" viewBox="0 0 8 18" fill="#eb2f96"
  xmlns="http://www.w3.org/2000/svg">
  <path
    d="M3.99873 0.605957C1.79029 0.605957 -2.42932e-08 2.39625 0 4.60469L9.71727e-08 7.19846C2.91518e-07 9.4069 1.79029 11.1972 3.99873 11.1972C4.30871 11.1972 4.61045 11.1619 4.90016 11.0952C5.07412 11.0551 5.12295 10.8404 4.99385 10.7171L4.97221 10.6964L2.6686 8.49616C2.31138 8.1492 2.08943 7.66373 2.08943 7.12642V4.67674C2.08943 3.62226 2.94425 2.76744 3.99873 2.76744C5.05321 2.76744 5.90804 3.62226 5.90804 4.67674V4.7496C5.90804 5.32658 6.37577 5.79431 6.95275 5.79431C7.52973 5.79431 7.99746 5.32658 7.99746 4.7496V4.60469C7.99746 2.39625 6.20717 0.605957 3.99873 0.605957Z" />
  <path
    d="M4.00127 17.3945C6.20971 17.3945 8 15.6042 8 13.3958L8 10.802C8 8.59359 6.20971 6.80329 4.00127 6.80329C3.69129 6.80329 3.38955 6.83856 3.09984 6.90531V6.90531C2.92587 6.94539 2.87704 7.16011 3.00614 7.28341L3.02779 7.30409L5.3314 9.50433C5.68862 9.85129 5.91057 10.3368 5.91057 10.8741L5.91057 13.3237C5.91057 14.3782 5.05575 15.2331 4.00127 15.2331C2.94679 15.2331 2.09196 14.3782 2.09196 13.3237V13.2517C2.09196 12.6747 1.62423 12.207 1.04725 12.207V12.207C0.470266 12.207 0.0025313 12.6747 0.0025313 13.2517V13.3958C0.00253118 15.6042 1.79283 17.3945 4.00127 17.3945Z" />
</svg>