<svg width="20" height="20" viewBox="0 0 20 20" fill="none" xmlns="http://www.w3.org/2000/svg">
<path d="M18.8462 11.7807H18.8962V11.7307V8.26909V8.21909H18.8462H14.6154C13.6334 8.21909 12.8346 9.01788 12.8346 9.99987C12.8346 10.9819 13.6334 11.7807 14.6154 11.7807H18.8462ZM18.8462 7.16526H18.8962V7.11526V4.61526C18.8962 3.63327 18.0973 2.83448 17.1154 2.83448H2.88461C1.90262 2.83448 1.10383 3.63331 1.10383 4.61526V15.3845C1.10383 16.3665 1.90266 17.1653 2.88461 17.1653H17.1154C18.0974 17.1653 18.8962 16.3664 18.8962 15.3845V12.8845V12.8345H18.8462H14.6154C13.0524 12.8345 11.7808 11.5628 11.7808 9.99987C11.7808 8.4369 13.0524 7.16526 14.6154 7.16526H18.8462ZM2.88461 1.78065H17.1154C18.6784 1.78065 19.95 3.05229 19.95 4.61526V15.3845C19.95 16.9475 18.6784 18.2191 17.1154 18.2191H2.88461C1.32164 18.2191 0.05 16.9475 0.05 15.3845V4.61526C0.05 3.05229 1.32164 1.78065 2.88461 1.78065Z" fill="#888888" stroke="#888888" stroke-width="0.1"/>
<path d="M14.616 9.47316H15.3852C15.6762 9.47316 15.9121 9.70905 15.9121 10.0001C15.9121 10.291 15.6762 10.527 15.3852 10.527H14.616C14.325 10.527 14.0891 10.2911 14.0891 10.0001C14.0891 9.70909 14.325 9.47316 14.616 9.47316Z" fill="#888888" stroke="#888888" stroke-width="0.1"/>
</svg>
