<svg width="14" height="14" viewBox="0 0 14 14" fill="none" xmlns="http://www.w3.org/2000/svg">
<g clip-path="url(#clip0_1526_51509)">
<path d="M8.5013 2.25C5.92296 2.25 3.83463 4.33833 3.83463 6.91667C3.83463 9.495 5.92296 11.5833 8.5013 11.5833C11.0796 11.5833 13.168 9.495 13.168 6.91667C13.168 4.33833 11.0796 2.25 8.5013 2.25ZM8.5013 10.4167C6.57046 10.4167 5.0013 8.8475 5.0013 6.91667C5.0013 4.98583 6.57046 3.41667 8.5013 3.41667C10.4321 3.41667 12.0013 4.98583 12.0013 6.91667C12.0013 8.8475 10.4321 10.4167 8.5013 10.4167ZM3.56315 10.2708L5.16732 11L3.56315 11.7292L2.83398 13.3333L2.10482 11.7292L0.50065 11L2.10482 10.2708L2.83398 8.66667L3.56315 10.2708Z" fill="#888888"/>
<path d="M5.16667 2.83333L3.5625 2.10417L2.83333 0.5L2.10417 2.10417L0.5 2.83333L2.10417 3.5625L2.83333 5.16667L3.5625 3.5625L5.16667 2.83333Z" fill="#888888"/>
<path fill-rule="evenodd" clip-rule="evenodd" d="M7.90983 4.99679C8.5209 4.80132 9.20475 4.88682 9.63852 5.00644L9.36096 6.23108C9.03178 6.14031 8.57121 6.09957 8.22858 6.20917C8.06641 6.26104 7.9637 6.33577 7.90139 6.41851C7.8446 6.49393 7.7831 6.6259 7.7831 6.88109C7.7831 7.13629 7.8446 7.2682 7.90135 7.34354C7.96362 7.42621 8.06629 7.50088 8.22844 7.5527C8.57104 7.66219 9.03162 7.62131 9.36081 7.53043L9.63867 8.755C9.20492 8.87474 8.52106 8.96046 7.90997 8.76518C7.59528 8.66461 7.26879 8.47906 7.02111 8.15025C6.76791 7.81412 6.63867 7.3833 6.63867 6.88109C6.63867 6.37888 6.76791 5.94806 7.02107 5.61191C7.2687 5.28308 7.59515 5.09745 7.90983 4.99679Z" fill="#888888"/>
</g>
<defs>
<clipPath id="clip0_1526_51509">
<rect width="14" height="14" fill="white"/>
</clipPath>
</defs>
</svg>
