<svg width="16" height="16" viewBox="0 0 16 16" fill="none" xmlns="http://www.w3.org/2000/svg">
<g clip-path="url(#clip0_32_21)">
<path d="M9.71587 2.57141C6.76921 2.57141 4.38254 4.95808 4.38254 7.90474C4.38254 10.8514 6.76921 13.2381 9.71587 13.2381C12.6625 13.2381 15.0492 10.8514 15.0492 7.90474C15.0492 4.95808 12.6625 2.57141 9.71587 2.57141ZM9.71587 11.9047C7.50921 11.9047 5.71587 10.1114 5.71587 7.90474C5.71587 5.69808 7.50921 3.90474 9.71587 3.90474C11.9225 3.90474 13.7159 5.69808 13.7159 7.90474C13.7159 10.1114 11.9225 11.9047 9.71587 11.9047ZM4.07228 11.7381L5.90561 12.5714L4.07228 13.4047L3.23894 15.2381L2.40561 13.4047L0.572277 12.5714L2.40561 11.7381L3.23894 9.90474L4.07228 11.7381Z" fill="#888888"/>
<path d="M5.90487 3.23808L4.07153 2.40474L3.2382 0.571411L2.40487 2.40474L0.571533 3.23808L2.40487 4.07141L3.2382 5.90474L4.07153 4.07141L5.90487 3.23808Z" fill="#888888"/>
<path fill-rule="evenodd" clip-rule="evenodd" d="M9.03991 5.7106C9.73827 5.48721 10.5198 5.58492 11.0156 5.72162L10.6983 7.12122C10.3221 7.01748 9.79577 6.97092 9.4042 7.09618C9.21886 7.15546 9.10148 7.24086 9.03027 7.33542C8.96536 7.42162 8.89508 7.57244 8.89508 7.86409C8.89508 8.15574 8.96536 8.30649 9.03022 8.3926C9.10139 8.48708 9.21872 8.57242 9.40404 8.63164C9.79558 8.75677 10.322 8.71006 10.6982 8.60619L11.0157 10.0057C10.52 10.1425 9.73846 10.2405 9.04007 10.0173C8.68043 9.9024 8.30729 9.69034 8.02423 9.31456C7.73486 8.93041 7.58716 8.43804 7.58716 7.86409C7.58716 7.29014 7.73486 6.79777 8.02418 6.41359C8.30719 6.03779 8.68028 5.82563 9.03991 5.7106Z" fill="#888888"/>
</g>
<defs>
<clipPath id="clip0_32_21">
<rect width="16" height="16" fill="white"/>
</clipPath>
</defs>
</svg>
