<svg width="14" height="15" viewBox="0 0 14 15" fill="none" xmlns="http://www.w3.org/2000/svg">
<g id="Frame">
<path id="Vector" fill-rule="evenodd" clip-rule="evenodd" d="M3.9375 10.9024C3.9375 10.7864 3.98359 10.6751 4.06564 10.593C4.14769 10.511 4.25897 10.4649 4.375 10.4649H13.125C13.241 10.4649 13.3523 10.511 13.4344 10.593C13.5164 10.6751 13.5625 10.7864 13.5625 10.9024C13.5625 11.0184 13.5164 11.1297 13.4344 11.2118C13.3523 11.2938 13.241 11.3399 13.125 11.3399H4.375C4.25897 11.3399 4.14769 11.2938 4.06564 11.2118C3.98359 11.1297 3.9375 11.0184 3.9375 10.9024ZM2.1875 7.4024C2.1875 7.28637 2.23359 7.17509 2.31564 7.09305C2.39769 7.011 2.50897 6.9649 2.625 6.9649H11.375C11.491 6.9649 11.6023 7.011 11.6844 7.09305C11.7664 7.17509 11.8125 7.28637 11.8125 7.4024C11.8125 7.51844 11.7664 7.62972 11.6844 7.71176C11.6023 7.79381 11.491 7.8399 11.375 7.8399H2.625C2.50897 7.8399 2.39769 7.79381 2.31564 7.71176C2.23359 7.62972 2.1875 7.51844 2.1875 7.4024ZM0.4375 3.9024C0.4375 3.78637 0.483594 3.67509 0.565641 3.59305C0.647688 3.511 0.758968 3.4649 0.875 3.4649H9.625C9.74103 3.4649 9.85231 3.511 9.93436 3.59305C10.0164 3.67509 10.0625 3.78637 10.0625 3.9024C10.0625 4.01844 10.0164 4.12972 9.93436 4.21176C9.85231 4.29381 9.74103 4.3399 9.625 4.3399H0.875C0.758968 4.3399 0.647688 4.29381 0.565641 4.21176C0.483594 4.12972 0.4375 4.01844 0.4375 3.9024Z" fill="#888888" stroke="#888888" stroke-width="0.6"/>
</g>
</svg>
