<svg width="24" height="25" viewBox="0 0 24 25" fill="none" xmlns="http://www.w3.org/2000/svg">
<path d="M12 23.1358C18.2592 23.1358 23.3333 18.3287 23.3333 12.399C23.3333 6.46916 18.2592 1.66211 12 1.66211C5.74077 1.66211 0.666668 6.46916 0.666668 12.399C0.666668 18.3287 5.74077 23.1358 12 23.1358Z" fill="#22C55E" stroke="white"/>
<path fill-rule="evenodd" clip-rule="evenodd" d="M12.5762 18.2642C12.2638 18.5602 11.7572 18.5602 11.4448 18.2642L6.35366 13.441C6.04125 13.145 6.04125 12.6651 6.35366 12.3691C6.66609 12.0732 7.17261 12.0732 7.48504 12.3691L11.2105 15.8986V6.99141C11.2105 6.57284 11.5687 6.23352 12.0105 6.23352C12.4523 6.23352 12.8105 6.57284 12.8105 6.99141V15.8986L16.536 12.3691C16.8484 12.0732 17.3549 12.0732 17.6673 12.3691C17.9797 12.6651 17.9797 13.145 17.6673 13.441L12.5762 18.2642Z" fill="white"/>
</svg>
