<svg width="24" height="24" viewBox="0 0 24 24" fill="none" xmlns="http://www.w3.org/2000/svg">
<g clip-path="url(#clip0_30_10)">
<path d="M12 24.0001C18.6274 24.0001 24 18.6274 24 12.0001C24 5.37264 18.6274 5.53241e-05 12 5.53241e-05C5.37257 5.53241e-05 -1.71661e-05 5.37264 -1.71661e-05 12.0001C-1.71661e-05 18.6274 5.37257 24.0001 12 24.0001Z" fill="#22C55E"/>
<path fill-rule="evenodd" clip-rule="evenodd" d="M12.4568 17.5495C12.1444 17.8336 11.6378 17.8336 11.3254 17.5495L6.23431 12.9192C5.9219 12.635 5.9219 12.1743 6.23431 11.8902C6.54674 11.6061 7.05326 11.6061 7.36569 11.8902L11.0911 15.2785V6.72757C11.0911 6.32575 11.4493 6 11.8911 6C12.3329 6 12.6911 6.32575 12.6911 6.72757V15.2785L16.4166 11.8902C16.729 11.6061 17.2355 11.6061 17.5479 11.8902C17.8603 12.1743 17.8603 12.635 17.5479 12.9192L12.4568 17.5495Z" fill="white"/>
</g>
<defs>
<clipPath id="clip0_30_10">
<rect width="24" height="24" fill="white"/>
</clipPath>
</defs>
</svg>
