<svg width="18" height="19" viewBox="0 0 18 19" fill="none" xmlns="http://www.w3.org/2000/svg">
<g id="Transaction type">
<circle id="Ellipse 132" cx="9" cy="9.41998" r="8.5" fill="#22C55E" stroke="white"/>
<path id="Vector 39 (Stroke)" fill-rule="evenodd" clip-rule="evenodd" d="M9.43216 14.0633C9.19784 14.2976 8.81794 14.2976 8.58363 14.0633L4.76525 10.2449C4.53094 10.0106 4.53094 9.63069 4.76525 9.39637C4.99957 9.16206 5.37946 9.16206 5.61378 9.39637L8.40789 12.1905L8.40789 5.13901C8.40789 4.80764 8.67652 4.53901 9.00789 4.53901C9.33926 4.53901 9.60789 4.80764 9.60789 5.13901L9.60789 12.1905L12.402 9.39637C12.6363 9.16206 13.0162 9.16206 13.2505 9.39637C13.4848 9.63069 13.4848 10.0106 13.2505 10.2449L9.43216 14.0633Z" fill="white"/>
</g>
</svg>
