<svg width="24" height="25" viewBox="0 0 24 25" fill="none" xmlns="http://www.w3.org/2000/svg">
<path d="M12 23.1358C18.2592 23.1358 23.3333 18.3287 23.3333 12.399C23.3333 6.46916 18.2592 1.66211 12 1.66211C5.74077 1.66211 0.666667 6.46916 0.666667 12.399C0.666667 18.3287 5.74077 23.1358 12 23.1358Z" fill="#EF4444" stroke="white"/>
<path fill-rule="evenodd" clip-rule="evenodd" d="M11.4342 6.45478C11.7466 6.15879 12.2532 6.15879 12.5656 6.45478L17.6568 11.278C17.9692 11.574 17.9692 12.0538 17.6568 12.3498C17.3443 12.6458 16.8377 12.6458 16.5253 12.3498L12.7999 8.8204V17.7275C12.7999 18.1461 12.4417 18.4854 11.9999 18.4854C11.5581 18.4854 11.1999 18.1461 11.1999 17.7275V8.8204L7.47441 12.3498C7.16199 12.6458 6.65545 12.6458 6.34304 12.3498C6.03061 12.0538 6.03061 11.574 6.34304 11.278L11.4342 6.45478Z" fill="white"/>
</svg>
