<svg width="24" height="24" viewBox="0 0 24 24" fill="none" xmlns="http://www.w3.org/2000/svg">
<g clip-path="url(#clip0_30_7)">
<path d="M12 24C18.6274 24 24 18.6274 24 12C24 5.37258 18.6274 0 12 0C5.37259 0 0 5.37258 0 12C0 18.6274 5.37259 24 12 24Z" fill="#EF4444"/>
<path fill-rule="evenodd" clip-rule="evenodd" d="M11.3255 6.21311C11.6379 5.92896 12.1445 5.92896 12.4569 6.21311L17.5481 10.8434C17.8605 11.1276 17.8605 11.5882 17.5481 11.8723C17.2356 12.1565 16.729 12.1565 16.4166 11.8723L12.6912 8.48411V17.0349C12.6912 17.4368 12.333 17.7625 11.8912 17.7625C11.4494 17.7625 11.0912 17.4368 11.0912 17.0349V8.48411L7.36569 11.8723C7.05327 12.1565 6.54673 12.1565 6.23432 11.8723C5.92189 11.5882 5.92189 11.1276 6.23432 10.8434L11.3255 6.21311Z" fill="white"/>
</g>
<defs>
<clipPath id="clip0_30_7">
<rect width="24" height="24" fill="white"/>
</clipPath>
</defs>
</svg>
