<svg width="18" height="19" viewBox="0 0 18 19" fill="none" xmlns="http://www.w3.org/2000/svg">
<g id="Transaction type">
<circle id="Ellipse 132" cx="9" cy="9.41998" r="8.5" fill="#EF4444" stroke="white"/>
<path id="Vector 39 (Stroke)" fill-rule="evenodd" clip-rule="evenodd" d="M8.57566 4.71413C8.80997 4.47981 9.18987 4.47981 9.42418 4.71413L13.2426 8.5325C13.4769 8.76682 13.4769 9.14672 13.2426 9.38103C13.0082 9.61535 12.6283 9.61535 12.394 9.38103L9.59992 6.58692L9.59992 13.6384C9.59992 13.9698 9.33129 14.2384 8.99992 14.2384C8.66855 14.2384 8.39992 13.9698 8.39992 13.6384L8.39992 6.58692L5.60581 9.38103C5.37149 9.61535 4.99159 9.61535 4.75728 9.38103C4.52296 9.14672 4.52296 8.76682 4.75728 8.5325L8.57566 4.71413Z" fill="white"/>
</g>
</svg>
