<svg width="12" height="12" viewBox="0 0 12 12" fill="none" xmlns="http://www.w3.org/2000/svg">
<path d="M10 3.50488H5.5" stroke="black" stroke-linecap="round" stroke-linejoin="round"/>
<path d="M7 8.50488H2.5" stroke="black" stroke-linecap="round" stroke-linejoin="round"/>
<path d="M8.5 10.0049C9.32843 10.0049 10 9.33331 10 8.50488C10 7.67646 9.32843 7.00488 8.5 7.00488C7.67157 7.00488 7 7.67646 7 8.50488C7 9.33331 7.67157 10.0049 8.5 10.0049Z" stroke="black" stroke-linecap="round" stroke-linejoin="round"/>
<path d="M3.5 5.00488C4.32843 5.00488 5 4.33331 5 3.50488C5 2.67646 4.32843 2.00488 3.5 2.00488C2.67157 2.00488 2 2.67646 2 3.50488C2 4.33331 2.67157 5.00488 3.5 5.00488Z" stroke="black" stroke-linecap="round" stroke-linejoin="round"/>
</svg>
