<svg width="16" height="16" viewBox="0 0 16 16" fill="none" xmlns="http://www.w3.org/2000/svg">
<g clip-path="url(#clip0_32_18)">
<path d="M5.99862 3.14618C3.05195 3.14618 0.665283 5.53285 0.665283 8.47951C0.665283 11.4262 3.05195 13.8128 5.99862 13.8128C8.94528 13.8128 11.3319 11.4262 11.3319 8.47951C11.3319 5.53285 8.94528 3.14618 5.99862 3.14618ZM5.99862 12.4795C3.79195 12.4795 1.99862 10.6862 1.99862 8.47951C1.99862 6.27285 3.79195 4.47951 5.99862 4.47951C8.20528 4.47951 9.99862 6.27285 9.99862 8.47951C9.99862 10.6862 8.20528 12.4795 5.99862 12.4795ZM7.99862 7.47951H6.66528V10.8128H5.33195V7.47951H3.99862V6.47951H7.99862V7.47951ZM13.4986 2.97951L15.3319 3.81285L13.4986 4.64618L12.6653 6.47951L11.8319 4.64618L9.99862 3.81285L11.8319 2.97951L12.6653 1.14618L13.4986 2.97951ZM13.4986 12.3128L15.3319 13.1462L13.4986 13.9795L12.6653 15.8128L11.8319 13.9795L9.99862 13.1462L11.8319 12.3128L12.6653 10.4795L13.4986 12.3128Z" fill="#888888"/>
</g>
<defs>
<clipPath id="clip0_32_18">
<rect width="16" height="16" fill="white"/>
</clipPath>
</defs>
</svg>
