<svg width="14" height="14" viewBox="0 0 14 14" fill="none" xmlns="http://www.w3.org/2000/svg">
<g clip-path="url(#clip0_1377_127529)">
<path d="M5.2487 2.75293C2.67036 2.75293 0.582031 4.84126 0.582031 7.4196C0.582031 9.99793 2.67036 12.0863 5.2487 12.0863C7.82703 12.0863 9.91536 9.99793 9.91536 7.4196C9.91536 4.84126 7.82703 2.75293 5.2487 2.75293ZM5.2487 10.9196C3.31786 10.9196 1.7487 9.35043 1.7487 7.4196C1.7487 5.48876 3.31786 3.9196 5.2487 3.9196C7.17953 3.9196 8.7487 5.48876 8.7487 7.4196C8.7487 9.35043 7.17953 10.9196 5.2487 10.9196ZM6.9987 6.5446H5.83203V9.46126H4.66536V6.5446H3.4987V5.6696H6.9987V6.5446ZM11.8112 2.6071L13.4154 3.33626L11.8112 4.06543L11.082 5.6696L10.3529 4.06543L8.7487 3.33626L10.3529 2.6071L11.082 1.00293L11.8112 2.6071ZM11.8112 10.7738L13.4154 11.5029L11.8112 12.2321L11.082 13.8363L10.3529 12.2321L8.7487 11.5029L10.3529 10.7738L11.082 9.1696L11.8112 10.7738Z" fill="#888888"/>
</g>
<defs>
<clipPath id="clip0_1377_127529">
<rect width="14" height="14" fill="white"/>
</clipPath>
</defs>
</svg>
