<svg width="24" height="24" viewBox="0 0 24 24" fill="none" xmlns="http://www.w3.org/2000/svg">
<path d="M24 12C24 18.6274 18.6274 24 12 24C5.37258 24 0 18.6274 0 12C0 5.37258 5.37258 0 12 0C18.6274 0 24 5.37258 24 12Z" fill="#E2E8F0"/>
<g clip-path="url(#clip0_1867_58986)">
<path d="M12 12C12.7956 12 13.5587 11.6839 14.1213 11.1213C14.6839 10.5587 15 9.79565 15 9C15 8.20435 14.6839 7.44129 14.1213 6.87868C13.5587 6.31607 12.7956 6 12 6C11.2044 6 10.4413 6.31607 9.87868 6.87868C9.31607 7.44129 9 8.20435 9 9C9 9.79565 9.31607 10.5587 9.87868 11.1213C10.4413 11.6839 11.2044 12 12 12ZM10.9289 13.125C8.62031 13.125 6.75 14.9953 6.75 17.3039C6.75 17.6883 7.06172 18 7.44609 18H16.5539C16.9383 18 17.25 17.6883 17.25 17.3039C17.25 14.9953 15.3797 13.125 13.0711 13.125H10.9289Z" fill="#94A3B8"/>
</g>
<defs>
<clipPath id="clip0_1867_58986">
<rect width="12" height="12" fill="white" transform="translate(6 6)"/>
</clipPath>
</defs>
</svg>
