<svg version="1.2" xmlns="http://www.w3.org/2000/svg" viewBox="0 0 48 48" width="48" height="48"><style>.a{fill:#fff}</style><path  d="m-7-7h65v65h-65z"/><path fill-rule="evenodd" class="a" d="m24.6 34.4l-3.3-10.4-1.6 10c-1.3 7.5-8.3 12.3-15.8 10.7l5-30.7c1.2-7.5 8.3-12.3 15.7-10.7l-0.1 0.7 0.2-0.6 3.4 10.5c1.3-7.7 8.5-12.4 16.1-10.5l-3.4 20.6c-1.2 7.7-8.5 12.5-16.1 10.6l0.1-0.9zm1.2-0.5c6.8 1.1 12.9-3.1 14-10l3.2-19.6c-6.7-1.2-12.8 3.1-14 9.9l-0.1 0.8 9.3 3.9-9.9 4.2-1.4 4.4zm-2.3-29.6c-6.6-1-12.6 3.3-13.7 10l-4.9 29.8c6.6 0.9 12.7-3.4 13.7-10.1l1.8-11-9.4-4 9.9-4.2 1.7-5.1z"/></svg>