<svg version="1.2" xmlns="http://www.w3.org/2000/svg" viewBox="0 0 48 48" width="48" height="48"><style>.a{fill:#f0f}.b{fill:#fff}</style><path  d="m-10-8h76v64h-76z"/><path class="a" d="m31.2 8.2c0 2.3-3.2 4.2-7.2 4.2-4 0-7.2-1.9-7.2-4.2 0-2.3 3.2-4.2 7.2-4.2 4 0 7.2 1.9 7.2 4.2z"/><path class="a" d="m13.9 18.2c2-3.5 2-7.2 0-8.3-2-1.2-5.2 0.6-7.2 4.1-2 3.4-2 7.2 0 8.3 2 1.2 5.2-0.7 7.2-4.1z"/><path class="a" d="m13.9 38.1c2-1.1 2-4.8 0-8.3-2-3.4-5.2-5.3-7.2-4.1-2 1.1-2 4.8 0 8.3 2 3.4 5.2 5.3 7.2 4.1z"/><path class="a" d="m41.3 14c2 3.5 2 7.2 0 8.3-2 1.2-5.2-0.7-7.2-4.1-2-3.5-2-7.2 0-8.3 2-1.2 5.2 0.7 7.2 4.1z"/><path class="a" d="m29.8 42.3c-1.4 1-3.4 1.7-5.8 1.7-4 0-7.2-1.9-7.2-4.2 0-2.3 3.2-4.2 7.2-4.2q1.1 0 2 0.2c0.3 2.7 1.7 5 3.8 6.5z"/><path class="b" d="m38.2 40q-1.8 0-3.2-0.8-1.4-0.7-2.2-2.1-0.8-1.3-0.8-3.1 0-1.8 0.8-3.1 0.8-1.4 2.2-2.1 1.4-0.8 3.2-0.8 2.3 0 3.8 1.2 1.6 1.1 2 3.1h-3.2q-0.3-0.8-1-1.3-0.7-0.5-1.6-0.5-1.3 0-2.2 0.9-0.9 1-0.9 2.6 0 1.6 0.9 2.6 0.9 0.9 2.2 0.9 0.9 0 1.6-0.5 0.7-0.4 1-1.3h3.2q-0.4 1.9-2 3.1-1.5 1.2-3.8 1.2z"/></svg>