<svg version="1.2" xmlns="http://www.w3.org/2000/svg" viewBox="0 0 48 48" width="48" height="48"><style>.a{fill:#fff}</style><path  d="m0-1h48v49h-48z"/><path fill-rule="evenodd" class="a" d="m0 21.1l2.5-7.1h1.8l2.5 7.1h-1.6l-0.6-1.5h-2.4l-0.5 1.5zm2.6-2.9h1.6l-0.8-2.6zm5.5 3l-1.7-5.1h1.5l0.8 2.8h0.1l0.8-2.8h1.2l0.8 2.8 0.9-2.8h1.5l-1.7 5.1h-1.3l-0.8-2.8-0.9 2.8zm6.6-1.1q-0.4-0.6-0.4-1.4 0-0.8 0.3-1.4 0.3-0.6 0.9-1 0.6-0.3 1.4-0.3 0.8 0 1.3 0.3 0.6 0.4 0.8 0.9 0.3 0.6 0.3 1.4v0.4h-3.3q0 0.5 0.2 0.8 0.3 0.3 0.7 0.3 0.3 0 0.6-0.1 0.2-0.2 0.3-0.5h1.5q-0.1 0.6-0.4 1-0.4 0.4-0.9 0.6-0.5 0.2-1.1 0.2-0.7 0-1.3-0.3-0.6-0.4-0.9-0.9zm2.8-2.7q-0.2-0.3-0.6-0.3-0.4 0-0.7 0.3-0.2 0.3-0.2 0.6h1.7q0-0.3-0.2-0.6zm4.9 3.9q-0.5 0-1.1-0.2-0.5-0.2-0.8-0.6-0.4-0.4-0.5-1h1.5q0 0.3 0.2 0.4 0.2 0.1 0.3 0.2 0.2 0.1 0.4 0.1 0.3 0 0.6-0.2 0.2-0.1 0.2-0.3 0-0.1-0.1-0.2-0.2-0.1-0.5-0.2l-0.9-0.2q-0.7-0.1-1.1-0.4-0.4-0.4-0.4-1.1 0-0.4 0.2-0.8 0.3-0.4 0.8-0.6 0.5-0.2 1.2-0.2 1 0 1.6 0.4 0.6 0.5 0.6 1.2h-1.4q-0.1-0.2-0.3-0.4-0.2-0.1-0.5-0.1-0.3 0-0.6 0.1-0.2 0.1-0.2 0.3 0 0.2 0.2 0.3 0.2 0.1 0.6 0.1l0.8 0.2q0.6 0.1 0.9 0.4 0.3 0.3 0.4 0.6 0.1 0.3 0.1 0.5 0 0.6-0.3 0.9-0.3 0.4-0.8 0.6-0.5 0.2-1.1 0.2zm3.2-1.3q-0.3-0.6-0.3-1.3 0-0.8 0.3-1.4 0.3-0.7 0.9-1 0.6-0.3 1.3-0.3 0.8 0 1.4 0.3 0.5 0.4 0.9 1 0.3 0.6 0.3 1.4 0 0.7-0.3 1.3-0.3 0.6-0.9 0.9-0.6 0.4-1.4 0.4-0.7 0-1.3-0.3-0.6-0.4-0.9-1zm3-0.7q0.1-0.4 0.1-0.7 0-0.3 0-0.7-0.1-0.3-0.3-0.5-0.2-0.2-0.6-0.2-0.3 0-0.5 0.2-0.2 0.2-0.3 0.5-0.1 0.3-0.1 0.7 0 0.3 0.1 0.7 0.1 0.3 0.3 0.5 0.2 0.2 0.5 0.2 0.4 0 0.6-0.2 0.2-0.2 0.2-0.5zm2.7 1.9v-5.1h1.6v0.7q0.2-0.3 0.6-0.6 0.4-0.2 1-0.2 0.4 0 0.8 0.2 0.4 0.2 0.7 0.6 0.2-0.3 0.6-0.6 0.4-0.2 0.9-0.2 0.4 0 0.8 0.2 0.4 0.1 0.6 0.5 0.3 0.4 0.3 1.1v3.4h-1.7v-3.2q0-0.3-0.2-0.5-0.3-0.2-0.5-0.2-0.3 0-0.5 0.2-0.3 0.2-0.3 0.5v3.2h-1.6v-3.2q0-0.3-0.3-0.5-0.2-0.2-0.4-0.2-0.3 0-0.5 0.2-0.3 0.2-0.3 0.5v3.2zm9.1-1.1q-0.3-0.6-0.3-1.4 0-0.8 0.3-1.4 0.3-0.6 0.9-1 0.6-0.3 1.4-0.3 0.8 0 1.3 0.3 0.5 0.4 0.8 0.9 0.3 0.6 0.3 1.4v0.4h-3.3q0 0.5 0.2 0.8 0.3 0.3 0.7 0.3 0.3 0 0.5-0.1 0.3-0.2 0.4-0.5h1.5q-0.1 0.6-0.4 1-0.4 0.4-0.9 0.6-0.5 0.2-1.1 0.2-0.7 0-1.3-0.3-0.6-0.4-1-0.9zm2.9-2.7q-0.2-0.3-0.6-0.3-0.4 0-0.7 0.3-0.2 0.3-0.2 0.6h1.7q0-0.3-0.2-0.6zm-31.2 8.2v5.8h3v1.4h-4.7v-7.2zm3.9 6q-0.3-0.6-0.3-1.4 0-0.8 0.3-1.4 0.3-0.6 0.9-0.9 0.6-0.3 1.3-0.3 0.8 0 1.4 0.3 0.5 0.3 0.9 0.9 0.3 0.6 0.3 1.4 0 0.8-0.3 1.4-0.4 0.6-0.9 0.9-0.6 0.4-1.4 0.4-0.7 0-1.3-0.4-0.6-0.3-0.9-0.9zm3-0.7q0.1-0.4 0.1-0.7 0-0.4-0.1-0.7 0-0.3-0.2-0.5-0.2-0.2-0.6-0.2-0.3 0-0.5 0.2-0.2 0.2-0.3 0.5-0.1 0.3-0.1 0.7 0 0.3 0.1 0.7 0.1 0.3 0.3 0.5 0.2 0.2 0.5 0.2 0.4 0 0.6-0.2 0.2-0.2 0.2-0.5zm5 3.6q-1.4 0-2.1-0.4-0.8-0.3-0.8-0.9 0-0.2 0.2-0.4 0.1-0.2 0.3-0.3 0.2-0.1 0.4-0.1 0.1 0 0.1-0.1 0 0-0.2-0.1-0.2-0.1-0.3-0.2-0.1-0.2-0.1-0.5 0-0.3 0.2-0.5 0.3-0.2 0.9-0.3-0.6-0.3-0.8-0.7-0.3-0.4-0.3-0.8 0-0.5 0.4-0.9 0.3-0.3 0.9-0.5 0.5-0.2 1.2-0.2 0.6 0 0.9 0.1 0.3 0.1 0.6 0.3 0.2-0.1 0.5-0.2 0.2-0.1 0.6-0.2 0.3-0.2 0.5-0.3v1.3l-0.9 0.1q0.1 0.1 0.1 0.3 0 0.1 0 0.2 0 0.4-0.3 0.8-0.2 0.4-0.8 0.6-0.5 0.3-1.3 0.3-0.1 0-0.3 0-0.2 0-0.3 0-0.2 0-0.2 0-0.1 0.1-0.1 0.1 0 0.1 0.2 0.2 0.2 0 0.7 0 0.1 0 0.4 0 0.3 0.1 0.6 0.1 1 0 1.5 0.5 0.4 0.4 0.4 1 0 0.7-0.7 1.2-0.7 0.5-2.1 0.5zm0-4.5q0.3 0 0.5-0.2 0.2-0.2 0.2-0.6 0-0.3-0.2-0.5-0.2-0.3-0.5-0.3-0.4 0-0.6 0.3-0.2 0.2-0.2 0.5 0 0.4 0.2 0.6 0.2 0.2 0.6 0.2zm0.3 3.5q0.5 0 0.7-0.1 0.2-0.1 0.2-0.3 0-0.4-0.7-0.5h-1q-0.4-0.1-0.6 0.1-0.1 0.2-0.1 0.3 0 0.3 0.3 0.4 0.4 0.1 1.2 0.1zm3.5-1.9q-0.3-0.6-0.3-1.4 0-0.8 0.3-1.4 0.3-0.6 0.9-0.9 0.5-0.3 1.3-0.3 0.8 0 1.3 0.3 0.6 0.3 0.9 0.9 0.3 0.6 0.3 1.4 0 0.8-0.3 1.4-0.3 0.6-0.9 0.9-0.5 0.4-1.3 0.4-0.8 0-1.3-0.4-0.6-0.3-0.9-0.9zm3-0.7q0.1-0.4 0.1-0.7 0-0.4-0.1-0.7-0.1-0.3-0.3-0.5-0.2-0.2-0.5-0.2-0.4 0-0.5 0.2-0.2 0.2-0.3 0.5-0.1 0.3-0.1 0.7 0 0.3 0.1 0.7 0 0.3 0.2 0.5 0.2 0.2 0.6 0.2 0.3 0 0.5-0.2 0.2-0.2 0.3-0.5z"/></svg>