<svg version="1.2" xmlns="http://www.w3.org/2000/svg" viewBox="0 0 48 48" width="48" height="48"><style>.a{fill:#fff}.b{fill:#f0f}</style><path class="a" d="m0 0h48v48h-48z"/><path class="b" d="m23.4 29.7c-1.9 3.2-5.4 5.3-9.4 5.3-6.1 0-11-4.9-11-11 0-6.1 4.9-11 11-11 4 0 7.5 2.1 9.4 5.3q0.3-0.5 0.6-0.9c-2.1-3.3-5.8-5.4-10-5.4-6.6 0-12 5.4-12 12 0 6.6 5.4 12 12 12 4.2 0 7.9-2.1 10-5.4q-0.3-0.4-0.6-0.9z"/><path fill-rule="evenodd" class="b" d="m22 24c0-6.6 5.4-12 12-12 6.6 0 12 5.4 12 12 0 6.6-5.4 12-12 12-6.6 0-12-5.4-12-12zm12 11c6.1 0 11-4.9 11-11 0-6.1-4.9-11-11-11-6.1 0-11 4.9-11 11 0 6.1 4.9 11 11 11z"/><path fill-rule="evenodd" class="b" d="m40.6 29h-9.3q0 0-0.1-0.1l-3.3-2q-0.1-0.1-0.1-0.1 0-0.1 0-0.2 0-0.1 0.1-0.1 0-0.1 0.1-0.1h9.2q0.1 0 0.2 0.1l3.3 2q0.1 0.1 0.1 0.1 0 0.1 0 0.2 0 0.1-0.1 0.1-0.1 0.1-0.1 0.1zm-9.2-0.5h8.3l-2.5-1.6h-8.4z"/><path fill-rule="evenodd" class="b" d="m30.8 20.7q-0.1 0-0.2 0l-3.3-2.1q-0.1 0-0.1-0.1 0-0.1 0-0.2 0 0 0.1-0.1 0.1 0 0.1 0h9.3q0 0 0.1 0l3.3 2.1q0.1 0 0.1 0.1 0 0.1 0 0.1 0 0.1-0.1 0.2 0 0-0.1 0zm0.1-0.5h8.3l-2.6-1.6h-8.3z"/><path class="b" d="m34.2 23.4c0.2 0 0.4 0 0.5-0.1q0.1-0.1 0.1-0.1 0.1-0.1 0.1-0.2c0-0.3-0.3-0.4-0.6-0.4h-0.4l0.1 0.8q0.1 0 0.2 0z"/><path class="b" d="m34.4 23.7h-0.4v1c0.1 0 0.3 0 0.3 0q0 0 0.1 0c0.3 0 0.6-0.1 0.6-0.5q0-0.1 0-0.2-0.1-0.1-0.1-0.1c-0.2-0.2-0.5-0.2-0.5-0.2z"/><path fill-rule="evenodd" class="b" d="m36.6 23.1q0.2 0.7-0.1 1.4-0.3 0.6-0.8 1.1-0.6 0.4-1.4 0.4c-0.6 0-1.2-0.2-1.7-0.7-0.5-0.4-0.7-1-0.7-1.6-0.1-0.7 0.2-1.3 0.6-1.7 0.4-0.5 1-0.8 1.7-0.8 0.6 0 1.2 0.2 1.7 0.7q0.5 0.5 0.7 1.2zm-1 1.2c0-0.7-0.6-0.8-0.6-0.8 0 0 0.5-0.1 0.5-0.6 0-0.5-0.7-0.6-0.8-0.6v-0.6h-0.4v0.6h-0.4v-0.6h-0.3v0.6h-0.6v0.3h0.2q0.2 0 0.2 0.2v1.7q0 0.1-0.1 0.2 0 0-0.1 0h-0.2v0.2h0.6v0.6h0.4v-0.6h0.3v0.6h0.4v-0.5-0.1q0.3 0 0.5-0.1 0.4-0.1 0.4-0.5z"/><path class="b" d="m13.7 19.6c1.5 0 2.8-0.8 2.8-1.6 0-0.9-1.3-1.7-2.8-1.7-1.5 0-2.8 0.8-2.8 1.7 0 0.8 1.3 1.6 2.8 1.6z"/><path class="b" d="m13.7 31.6c1.5 0 2.8-0.7 2.8-1.6 0-0.8-1.3-1.6-2.8-1.6-1.5 0-2.8 0.8-2.8 1.6 0 0.9 1.3 1.6 2.8 1.6z"/><path class="b" d="m9.9 21.8c0.7-1.3 0.7-2.8-0.1-3.2-0.7-0.5-2 0.3-2.7 1.6-0.8 1.3-0.8 2.7 0 3.2 0.8 0.4 2-0.3 2.8-1.6z"/><path class="b" d="m20.3 27.8c0.8-1.3 0.8-2.7 0-3.2-0.8-0.4-2 0.3-2.8 1.6-0.7 1.3-0.7 2.8 0.1 3.2 0.7 0.5 2-0.3 2.7-1.6z"/><path class="b" d="m9.8 29.4c0.8-0.4 0.8-1.9 0.1-3.2-0.8-1.3-2-2-2.8-1.6-0.8 0.5-0.8 1.9 0 3.2 0.7 1.3 2 2.1 2.7 1.6z"/><path class="b" d="m20.3 23.4c0.8-0.5 0.8-1.9 0-3.2-0.7-1.3-2-2.1-2.7-1.6-0.8 0.4-0.8 1.9-0.1 3.2 0.8 1.3 2 2 2.8 1.6z"/></svg>