<svg version="1.2" xmlns="http://www.w3.org/2000/svg" viewBox="0 0 48 48" width="48" height="48"><defs><clipPath clipPathUnits="userSpaceOnUse" id="cp1"><path d="m0 5c0-2.76 2.24-5 5-5h38c2.76 0 5 2.24 5 5v38c0 2.76-2.24 5-5 5h-38c-2.76 0-5-2.24-5-5z"/></clipPath></defs><style>.a{opacity:0;fill:#181920}.b{fill:#181920}.c{fill:#fff}</style><path class="a" d="m0 5c0-2.8 2.2-5 5-5h38c2.8 0 5 2.2 5 5v38c0 2.8-2.2 5-5 5h-38c-2.8 0-5-2.2-5-5z"/><g clip-path="url(#cp1)"><path class="b" d="m0 0h48v48h-48z"/><path class="c" d="m13.8 6l-0.1 36h6.4v-11.2l12.7-5.5-0.2-6.4-12.5 5.3v-12.2h16.1v-6z"/></g></svg>