<svg version="1.2" xmlns="http://www.w3.org/2000/svg" viewBox="0 0 48 48" width="48" height="48"><style>.a{fill:#181920}.b{fill:#fff}</style><path class="a" d="m0 0h48v48h-48z"/><path class="b" d="m18.4 6c0.2-2.8 2.6-5 5.5-5 2.9 0 5.2 2.2 5.5 5h2.4c0.2 0 0.5 0.2 0.5 0.5 0 0.3-0.3 0.5-0.5 0.5h-15.8c-0.3 0-0.5-0.2-0.5-0.5 0-0.3 0.2-0.5 0.5-0.5z"/><path class="b" d="m6.6 10l16.9 9.6c0.3 0.2 0.6 0.2 0.9 0l17-9.6c0.6-0.3 1.4 0.1 1.4 0.8v25.6c0 0.6-0.5 1-1 1h-2.9c-0.5 0-1-0.4-1-1v-17.3c0-0.7-0.7-1.2-1.3-0.8l-6.4 3.6c-0.6 0.3-0.6 1.2 0 1.6l4.5 2.5c0.3 0.2 0.4 0.5 0.4 0.8v4.4c0 0.5-0.4 0.9-0.9 0.9h-3c-0.5 0-0.9-0.4-0.9-0.9v-1.6c0-0.4-0.2-0.7-0.4-0.8l-5.5-3.1c-0.3-0.2-0.6-0.2-0.9 0l-5.4 3c-0.3 0.2-0.5 0.5-0.5 0.8v7.6c0 0.3 0.2 0.6 0.5 0.8l5.6 3.3c0.3 0.2 0.7 0.2 1 0l2.1-1.3c0.6-0.3 0.5-1.2-0.1-1.6l-2.7-1.5c-0.4-0.3-0.6-0.8-0.3-1.3l1.4-2.5c0.3-0.5 0.9-0.6 1.3-0.4l8.2 4.7c0.3 0.2 0.5 0.5 0.5 0.8v1.8c0 0.3-0.2 0.6-0.5 0.7l-9.8 6.3c-0.3 0.1-0.7 0.1-1 0l-10.6-6.2c-0.2-0.2-0.4-0.5-0.4-0.8v-13.2c0-0.3 0.2-0.6 0.5-0.8l4.4-2.5c0.6-0.3 0.6-1.2 0-1.6l-6.3-3.6c-0.6-0.3-1.3 0.1-1.3 0.8v17.4c0 0.5-0.5 0.9-1 0.9h-2.9c-0.5 0-0.9-0.4-0.9-0.9v-25.6c0-0.8 0.7-1.2 1.3-0.8z"/></svg>