<svg version="1.2" xmlns="http://www.w3.org/2000/svg" viewBox="0 0 48 48" width="48" height="48"><style>.a{fill:#181920}.b{fill:#fff}</style><path class="a" d="m0 0h48v48h-48z"/><path class="b" d="m29.6 7c-0.2 2.9-2.6 5.1-5.6 5.1-2.9 0-5.3-2.2-5.6-5.1h-2.4c-0.3 0-0.5-0.2-0.5-0.5 0-0.3 0.2-0.5 0.5-0.5h16.1c0.3 0 0.5 0.2 0.5 0.5 0 0.3-0.2 0.5-0.5 0.5z"/><path class="b" d="m36.6 26.2c0.7 0.3 1.6-0.2 1.6-0.9v-13.1c0-0.3 0.2-0.7 0.5-0.9l3-1.6c0.5-0.3 1 0 1 0.6v23.5c0 0.7-0.6 1.1-1.1 0.8l-16.8-9c-0.3-0.1-0.7-0.1-0.9 0l-5.6 3.2c-0.3 0.1-0.4 0.4-0.4 0.8v7.8c0 0.3 0.1 0.6 0.4 0.8l5.8 3.4c0.3 0.2 0.7 0.2 1 0l2.1-1.4c0.6-0.3 0.6-1.2 0-1.6l-2.8-1.6c-0.5-0.2-0.6-0.8-0.4-1.3l1.5-2.6c0.3-0.4 0.9-0.6 1.3-0.3l8.4 4.8c0.3 0.2 0.5 0.5 0.5 0.8v1.8c0 0.3-0.2 0.6-0.5 0.8l-10.1 6.4c-0.2 0.1-0.6 0.1-0.9 0l-10.8-6.4c-0.3-0.2-0.5-0.5-0.5-0.8v-13.5c0-0.3 0.2-0.6 0.5-0.8l4.5-2.6c0.7-0.3 0.7-1.2 0-1.6l-6.3-3.7c-0.7-0.3-1.4 0.1-1.4 0.8v17.8c0 0.5-0.5 1-1 1h-3c-0.5 0-1-0.5-1-1v-26.2c0-0.8 0.8-1.2 1.5-0.9z"/></svg>