<svg version="1.2" xmlns="http://www.w3.org/2000/svg" viewBox="0 0 48 48" width="48" height="48"><style>.a{fill:#181920}.b{fill:#fff}</style><path class="a" d="m0 0h48v48h-48z"/><path fill-rule="evenodd" class="b" d="m24.6 0.1l-21 12 0.5 0.3-1.1 0.7v-1.3l0.5 0.3 21-12.1zm-17.1 14.3l-4.5 2.6v-1.2l3.4-2 0.5 0.2 21-12 0.2 0.1-21 12.1zm24-10.4l-21 12.1 0.3 0.2-7.8 4.5v-1.1l6.9-4 0.3 0.2 21-12zm13.5 8.1l-16.5 9.5 2.3 1.3v0.5l14.2-8.2v0.8l-14.2 8.2v0.7l-5.1 2.9 2 1.2 17.3-9.9v0.9l-16.5 9.4 2.3 1.3v0.4l14.2-8.1v1l-14.2 8.1v0.6l-3.7 2.1-0.5-0.3-2.6 1.5v-0.3l-10.6 6.1-0.4-0.2 11-6.3v-0.3l1.7-1-0.3-0.2 3.7-2.1-2.3-1.3-2.8 1.7v-0.2l-14 8-0.4-0.3 14.4-8.3v-0.2l2-1.1-2.1-1.2-6.8 3.9v-0.7l-10.4 6-0.6-0.3 11-6.4v-0.6l5.1-2.9-2.3-1.3-16.6 9.5-0.3-0.1v-0.4l16.3-9.4-2.2-1.2v-0.7l-14.1 8.2v-0.9l14.1-8.1v-0.5l5.1-3-2.3-1.3-2.5 1.4 0.2 0.1-14.6 8.4v-0.9l13.8-8 0.2 0.1 2.4-1.4-2.3-1.3v-0.8l-3.1 1.8 0.2 0.2-11.2 6.4v-1l10.3-6 0.3 0.2 3.5-2v-0.8l3.7-2.1 0.7 0.3 13.1-7.5 0.3 0.2-13 7.6 0.7 0.4-3.8 2.1 2.3 1.3 16.8-9.6 0.5 0.2-16.8 9.7 2.3 1.3 6.9-3.9v0.6l10.5-6 0.5 0.3-11 6.4v0.7l-5.1 2.9 2.2 1.3 16.8-9.7 0.3 0.2zm-24 13.1l2.7-1.6 2.4-1.4-2.2-1.2-5.1 2.9zm5.8-2.6l-2.8 1.6-2.3 1.4 2.2 1.3 5.2-3zm-10.3 21.1l7.5-4.3v-0.4l21-12.1v1.1l-21 12.1v-0.4l-7.2 4.2zm7.5-0.9l21-12.1v1.3l-21 12v-0.5l-3.9 2.3-0.2-0.1 4.1-2.4zm0 3.9l21-12.1v1.3l-21 12.1v-0.6l-0.5 0.3-0.1-0.1 0.6-0.3z"/></svg>