<svg version="1.2" xmlns="http://www.w3.org/2000/svg" viewBox="0 0 48 48" width="48" height="48"><style>.a{fill:#181920}.b{fill:#fff}</style><path class="a" d="m0 0h48v48h-48z"/><path fill-rule="evenodd" class="b" d="m45.6 19.6c0.8 4.3 0.4 8.7-1.3 12.8-1.7 4-4.5 7.4-8.1 9.9-3.6 2.4-7.9 3.7-12.3 3.7-2.9 0-5.8-0.6-8.4-1.7-2.7-1.1-5.2-2.7-7.2-4.8-4.1-4.1-6.3-9.7-6.3-15.5 0-5.9 2.4-11.4 6.5-15.5 4.1-4.1 9.6-6.5 15.5-6.5 5.8 0 11.4 2.2 15.5 6.3 3.1 3.1 5.2 7 6.1 11.3zm-21.3 23.6c3.8 0 7.5-1.2 10.6-3.4 3.1-2.1 5.5-5.2 7-8.7 1.4-3.5 1.7-7.4 1-11.1-0.8-3.7-2.6-7.1-5.3-9.8-2.7-2.6-6.1-4.5-9.8-5.2-3.7-0.8-7.6-0.4-11.1 1-3.5 1.4-6.6 3.8-8.7 6.9-2.2 3.1-3.3 6.8-3.4 10.6 0.7-2.2 2-4.2 3.6-5.9 1.7-1.7 3.7-2.9 5.9-3.7 2.2-0.8 4.5-1.1 6.9-0.8 2.3 0.2 4.5 1 6.5 2.2 2 1.3 3.7 2.9 4.9 4.9 1.3 2 2.1 4.2 2.3 6.5 0.3 2.4 0.1 4.7-0.7 6.9-0.8 2.3-2.1 4.3-3.7 5.9-1.7 1.7-3.7 3-6 3.7zm-4.3-27.4c-2.5-0.2-5.1 0.4-7.3 1.8-2.3 1.3-4 3.3-5.1 5.7-1 2.4-1.4 5-0.9 7.5 0.5 2.6 1.7 4.9 3.5 6.8 1.9 1.8 4.2 3.1 6.8 3.5 2.5 0.5 5.2 0.2 7.5-0.9 2.4-1.1 4.4-2.8 5.7-5 1.4-2.3 2-4.8 1.9-7.4-0.6 1.2-1.4 2.2-2.4 3.1-1 0.8-2.2 1.4-3.5 1.7-1.3 0.4-2.6 0.4-3.9 0.2-1.3-0.2-2.5-0.8-3.6-1.5-1.1-0.8-2-1.8-2.6-2.9-0.7-1.1-1.1-2.4-1.2-3.7-0.1-1.3 0.1-2.6 0.5-3.9 0.5-1.2 1.2-2.3 2.1-3.3q1.1-1.1 2.5-1.7zm3.9 1.8c-1.7 0-3.2 0.7-4.4 1.9-0.9 0.9-1.5 2-1.7 3.2-0.3 1.2-0.2 2.5 0.3 3.6 0.5 1.2 1.3 2.1 2.3 2.8 1.1 0.7 2.3 1.1 3.5 1.1 1.3 0 2.5-0.4 3.5-1.1 1-0.7 1.8-1.6 2.3-2.8 0.5-1.1 0.6-2.4 0.4-3.6-0.3-1.2-0.9-2.3-1.8-3.2-1.1-1.2-2.7-1.9-4.4-1.9z"/></svg>