<svg version="1.2" xmlns="http://www.w3.org/2000/svg" viewBox="0 0 48 48" width="48" height="48"><style>.a{fill:#181920}.b{fill:#fff}</style><path class="a" d="m0 0h48v48h-48z"/><path fill-rule="evenodd" class="b" d="m40.8 36.6l-9.6-5q-0.6-0.2-1.2-0.1l2.6 5 3.9 1.4c0.5 0.2 0.4 0.8-0.1 0.7l-3-0.5 1.2 2.3 1.7 0.6q-1.7 1.2-3.6 2.1l0.3-2.1-1.2-1.8-0.9 2.7c-0.2 0.4-0.7 0.3-0.7-0.2l0.6-4.1-3.1-4.8q-0.4 0.5-0.5 1l-0.6 11q-1.3 0.2-2.6 0.2-1.3 0-2.5-0.2l-0.6-10.9q-0.1-0.6-0.4-1l-3.2 4.9 0.7 3.9c0.1 0.5-0.5 0.7-0.7 0.2l-1-2.6-1.2 1.9 0.3 2q-1.9-0.9-3.6-2.1l1.8-0.7 1.1-2.2-2.9 0.6c-0.5 0.1-0.7-0.5-0.2-0.7l4-1.5 2.5-5.1q-0.5 0-1 0.1l-9.8 5q-1.6-2-2.6-4.4l9-5.8q0.5-0.4 0.8-1l-5.8-0.3-3.1 2.7c-0.4 0.3-0.8-0.1-0.5-0.5l1.8-2.2-2.7-0.1-1.1 0.9q-0.1-0.9-0.1-1.9 0-0.8 0.1-1.7l1.2 1 2.6-0.1-1.9-2.2c-0.3-0.4 0.1-0.9 0.5-0.5l3.2 2.5 5.8-0.3q-0.3-0.7-0.9-1.2l-8.9-5.7q1-2.4 2.5-4.4l9.1 4.6q0.2 0.1 0.4 0.1 0 0.1 0 0.1 0.1 0 0.3 0 0 0.1 0 0.1 0.1 0 0.1 0 0 0 0 0 0.2 0 0.3 0 0 0 0 0 0.1 0.1 0.1 0.1h0.4q0.1 0 0.1 0l-2.6-5-3.9-1.4c-0.5-0.2-0.3-0.8 0.2-0.7l2.9 0.4-1.2-2.2-1.6-0.6q1.6-1.1 3.5-2l-0.3 2 1.2 1.8 0.9-2.7c0.2-0.4 0.8-0.3 0.7 0.2l-0.6 4.1 3.1 4.7c0.3-0.4 0.6-1 0.6-1.6l0.6-10.2q1.2-0.2 2.5-0.2 1.3 0 2.6 0.2l0.5 10.4q0.1 0.8 0.5 1.3l3.1-4.8-0.7-3.9c-0.1-0.5 0.5-0.7 0.7-0.2l1 2.6 1.2-2-0.3-1.8q1.8 0.9 3.5 2l-1.7 0.7-1.1 2.1 2.9-0.5c0.5-0.1 0.7 0.5 0.2 0.7l-4 1.5-2.5 5q0.6 0.1 1.2-0.1l9.6-4.9c1 1.3 1.9 2.8 2.6 4.4l-8.7 5.6q-0.7 0.5-1 1.2l5.7 0.3 3.1-2.7c0.4-0.3 0.8 0.1 0.5 0.5l-1.8 2.2 2.7 0.2 1.1-1q0.1 1 0.1 2 0 0.8-0.1 1.5l-1.2-0.9-2.6 0.1 1.9 2.2c0.3 0.4-0.1 0.9-0.5 0.5l-3.2-2.5-5.8 0.3q0.3 0.6 0.8 1.1l9.1 5.9q-1 2.3-2.6 4.4zm-16.8-17.6c-2.7 0-4.9 2.2-4.9 4.9 0 2.7 2.2 4.9 4.9 4.9 2.7 0 4.9-2.2 4.9-4.9 0-2.7-2.2-4.9-4.9-4.9z"/></svg>