<svg version="1.2" xmlns="http://www.w3.org/2000/svg" viewBox="0 0 48 48" width="48" height="48"><style>.a{fill:#181920}.b{fill:#fff}</style><path class="a" d="m0 0h48v48h-48z"/><path class="b" d="m23.4 29.7c-1.9 3.2-5.4 5.3-9.4 5.3-6.1 0-11-4.9-11-11 0-6.1 4.9-11 11-11 4 0 7.5 2.1 9.4 5.3q0.3-0.5 0.6-0.9c-2.1-3.3-5.8-5.4-10-5.4-6.6 0-12 5.4-12 12 0 6.6 5.4 12 12 12 4.2 0 7.9-2.1 10-5.4q-0.3-0.4-0.6-0.9z"/><path fill-rule="evenodd" class="b" d="m22 24c0-6.6 5.4-12 12-12 6.6 0 12 5.4 12 12 0 6.6-5.4 12-12 12-6.6 0-12-5.4-12-12zm12 11c6.1 0 11-4.9 11-11 0-6.1-4.9-11-11-11-6.1 0-11 4.9-11 11 0 6.1 4.9 11 11 11z"/><path fill-rule="evenodd" class="b" d="m29.7 18h8.8c0.2 0 0.4 0.1 0.5 0.3l2.6 4.3c0.1 0.2 0.1 0.5-0.1 0.7l-7.1 6.8c-0.2 0.2-0.6 0.2-0.8 0l-7.1-6.8c-0.2-0.2-0.2-0.5-0.1-0.7l2.8-4.3c0.1-0.2 0.3-0.3 0.5-0.3zm1 1.9v1.3h2.5v0.8c-1.8 0.1-3.1 0.5-3.1 0.9v0.9c0 0.5 1.3 0.8 3.1 0.9v2.1h1.6v-2.1c1.8-0.1 3.1-0.4 3.1-0.9v-0.9c0-0.4-1.3-0.8-3.1-0.9v-0.8h2.6v-1.3zm-0.5 3.5c0.3-0.4 1.5-0.7 3-0.8v0.9q0.4 0.1 0.8 0.1 0.4 0 0.8-0.1v-0.9c1.5 0.1 2.7 0.4 3 0.8-0.3 0.4-1.9 0.7-3.8 0.7-1.9 0-3.5-0.3-3.8-0.7z"/><path fill-rule="evenodd" class="b" d="m20.1 21.2h-9.8q-0.1 0-0.2-0.1l-3.5-2.2c-0.1 0-0.1-0.1-0.1-0.2 0-0.2 0.1-0.2 0.2-0.2h9.8q0.1 0 0.2 0l3.5 2.2c0.1 0.1 0.1 0.2 0.1 0.3 0 0.1-0.1 0.2-0.2 0.2zm-9.8-0.5h8.9l-2.7-1.7h-8.9zm10.3 9.3h-9.7q-0.1 0-0.2-0.1l-3.5-2.2c-0.1 0-0.2-0.1-0.1-0.2 0-0.2 0.1-0.2 0.2-0.2h9.8q0.1 0 0.1 0l3.6 2.2c0.1 0 0.1 0.2 0.1 0.3 0 0.1-0.1 0.2-0.3 0.2zm-9.7-0.5h8.9l-2.8-1.7h-8.8zm1.9-6.3c0.3-0.3 0.7-0.5 1.1-0.5q0 0 0 0c0.4 0 0.8 0.2 1.1 0.4 0.3 0.3 0.5 0.7 0.5 1.1 0 0.9-0.7 1.6-1.6 1.6-0.8 0-1.5-0.7-1.5-1.5 0-0.4 0.1-0.8 0.4-1.1z"/></svg>