<svg version="1.2" xmlns="http://www.w3.org/2000/svg" viewBox="0 0 428 428" width="428" height="428"><defs><linearGradient id="P" gradientUnits="userSpaceOnUse"/><linearGradient id="g1" x1="474.3" y1="250.1" x2="277.8" y2="20.1" href="#P"><stop stop-color="#e40c5b"/><stop offset="1" stop-color="#ff4c3b"/></linearGradient></defs><style>.a{fill:#181920}.b{fill:none;stroke:#fff;stroke-width:2}.c{fill:#f2f2f2}.d{fill:none;stroke:#4f4f4f;stroke-width:6}.e{fill:#fff}.f{fill:none;stroke:url(#g1);stroke-width:8}.g{fill:#333}</style><path class="a" d="m0 0h428v428h-428z"/><g style="opacity:.1"><path class="b" d="m214 399c-104.5 0-189-84.5-189-189 0-104.5 84.5-189 189-189 104.5 0 189 84.5 189 189 0 104.5-84.5 189-189 189z"/></g><path class="c" d="m216.2 376.2c-91.9 0-166.2-74.3-166.2-166.2 0-91.9 74.3-166.2 166.2-166.2 91.9 0 166.1 74.3 166.1 166.2 0 91.9-74.2 166.2-166.1 166.2z"/><path class="d" d="m216.2 373.2c-90.3 0-163.2-73-163.2-163.2 0-90.2 72.9-163.2 163.2-163.2 90.2 0 163.1 73 163.1 163.2 0 90.2-72.9 163.2-163.1 163.2z"/><path class="e" d="m215.9 339.2c-71.3 0-128.9-57.6-128.9-128.9 0-71.3 57.6-128.9 128.9-128.9 71.2 0 128.9 57.6 128.9 128.9 0 71.3-57.7 128.9-128.9 128.9z"/><path class="f" d="m215.9 335.2c-69.1 0-124.9-55.8-124.9-124.9 0-69.1 55.8-124.9 124.9-124.9 69 0 124.9 55.8 124.9 124.9 0 69.1-55.9 124.9-124.9 124.9z"/><path class="g" d="m253.5 131.3l-48.6 44.2c-5.1 4.6-11.6 7.1-18.4 7.1l-14.5 0.1-0.1-51.4h-26.2v146.8h14.3c8 0 15.5-4.2 19.4-11.2q0-0.1 0.1-0.1c2.6-4.7 3.9-13.9 3.6-20.2-0.5-14.4-2.9-18.1-2.9-18.1-0.5 9.8-10.7 10.4-10.7 10.4 7.3-7 3.3-12.3 3.3-12.3-13 9.2-16.2-0.7-16.5-1.5 0.4 0.3 4.1 3.4 11.1-6.2 7.4-10.2 17.3-27.1 23.6-31.4 6.3-4.4 12.3-4 12.3-4 0 0 3.4-4.7 12.5-8.6 9.2-3.8 15 1.8 15 1.8-9.3 7.5-22 19.9-22.7 37.5-0.6 14.3 30.3 38.8 24.8 75 3.3-8.2 4.6-16.4 3.5-26.6-1-8.2-6.2-25.4-6.2-25.4l29.6 40.8h32.7l-64-87.8 64-58.9z"/><path class="g" d="m201.1 194.5c-2 3.5-2 4.5-2 4.5 0 0 7.2-1.2 9.1-9.8 0 0-4.6 1.2-7.1 5.3z"/></svg>