<svg version="1.2" xmlns="http://www.w3.org/2000/svg" viewBox="0 0 48 48" width="48" height="48"><style>.a{fill:#181920}.b{fill:#fff}</style><path class="a" d="m0 0h48v48h-48z"/><path fill-rule="evenodd" class="b" d="m34 12c6.6 0 12 5.4 12 12 0 6.6-5.4 12-12 12-4.2 0-7.9-2.1-10-5.4-2.1 3.3-5.8 5.4-10 5.4-6.6 0-12-5.4-12-12 0-6.6 5.4-12 12-12 4.2 0 7.9 2.1 10 5.4 2.1-3.3 5.8-5.4 10-5.4zm-20 23c4 0 7.5-2.1 9.4-5.3-0.9-1.7-1.4-3.6-1.4-5.7 0-2.1 0.5-4 1.4-5.7-1.9-3.2-5.4-5.3-9.4-5.3-6.1 0-11 4.9-11 11 0 6.1 4.9 11 11 11zm20-22c-6.1 0-11 4.9-11 11 0 6.1 4.9 11 11 11 6.1 0 11-4.9 11-11 0-6.1-4.9-11-11-11z"/><path fill-rule="evenodd" class="b" d="m29.7 20.9q-0.4 0-0.8-0.1-0.9-0.1-1-0.4c-0.1-0.4 0.5-0.8 0.9-1 1.7-0.8 5.4-1.6 8.2-1.9 0.9 0 1.6 0 2.1 0q0.9 0.1 1 0.5c0.1 0.4-0.5 0.7-0.9 0.9-1.7 0.8-5.3 1.7-8.2 1.9q-0.7 0.1-1.3 0.1zm8.6-3.1q-0.5 0-1.3 0.1c-2.8 0.2-6.4 1-8 1.8-0.7 0.4-0.7 0.6-0.7 0.6 0 0 0.5 0.3 2.7 0.2 2.8-0.3 6.4-1.1 8-1.9 0.7-0.3 0.8-0.5 0.8-0.5-0.1-0.1-0.4-0.3-1.5-0.3zm-1.4 5.6c0.2 0.6 0.1 1.1-0.1 1.7-0.2 0.5-0.6 1-1.1 1.3-0.5 0.3-1 0.5-1.6 0.5-0.8 0-1.6-0.3-2.1-0.8-0.6-0.6-0.9-1.3-0.9-2.1 0-0.8 0.3-1.5 0.9-2.1 0.5-0.5 1.3-0.9 2-0.9h0.1c0.7 0 1.5 0.3 2 0.9 0.4 0.4 0.7 0.9 0.8 1.5zm-9 6.6c-0.1-0.4 0.5-0.7 0.9-0.9 1.7-0.8 5.3-1.7 8.2-1.9 0.9-0.1 1.6-0.1 2.1 0q0.9 0.1 1 0.4c0.1 0.4-0.5 0.8-0.9 1-1.7 0.8-5.4 1.6-8.2 1.9q-0.7 0-1.3 0-0.4 0-0.8 0-0.9-0.1-1-0.5zm1.1-0.6c-0.7 0.3-0.8 0.5-0.8 0.5 0.1 0.1 0.6 0.4 2.8 0.2 2.8-0.2 6.4-1 8-1.8 0.7-0.4 0.7-0.6 0.7-0.6 0 0-0.3-0.2-1.5-0.2q-0.5 0-1.2 0c-2.8 0.3-6.4 1.1-8 1.9z"/><path class="b" d="m20.6 19.6c-0.2-0.2-0.5-0.4-1-0.5-0.4 0-0.9 0.3-1.2 0.5-0.3 0.2-0.9 0.8-1.2 1-0.2 0.2-0.9 0.3-1.9 0.9-1 0.7-5 3.2-5 3.2h1l-4.6 2.4h0.5l-0.7 0.6c0 0 0.6 0.1 1.1-0.2v0.1c0 0 5.5-2.1 6.6-1.6l-0.7 0.2c0.1 0 1.1 0.1 1.1 0.1q0.1 0.3 0.3 0.6 0.1 0.3 0.4 0.5c0.6 0.4 0.7 0.6 0.7 0.6 0 0-0.4 0.1-0.4 0.3 0 0 0.5-0.1 1-0.1q0.4 0 0.8 0.1c0 0 0-0.2-0.5-0.3-0.4-0.1-0.8-0.6-1.1-0.8q-0.1-0.3-0.2-0.6 0-0.3 0.1-0.6c0.1-0.4 0.7-0.7 1.7-1.2 1.3-0.7 1.6-1.2 1.8-1.6 0.2-0.4 0.5-1.1 0.6-1.5 0.2-0.5 0.4-0.7 0.6-0.9 0.2-0.1 1.1-0.4 1.1-0.4 0 0-0.7-0.6-0.9-0.8z"/></svg>