<svg version="1.2" xmlns="http://www.w3.org/2000/svg" viewBox="0 0 48 48" width="48" height="48"><style>.a{fill:#181920}.b{fill:#f0f}.c{fill:#fff}</style><path class="a" d="m0 0h48v48h-48z"/><path class="b" d="m31.2 8.2c0 2.3-3.2 4.2-7.2 4.2-4 0-7.2-1.9-7.2-4.2 0-2.3 3.2-4.2 7.2-4.2 4 0 7.2 1.9 7.2 4.2z"/><path class="b" d="m29.8 42.3c-1.4 1-3.4 1.7-5.8 1.7-4 0-7.2-1.9-7.2-4.2 0-2.3 3.2-4.2 7.2-4.2q1.1 0 2 0.2c0.3 2.7 1.7 5 3.8 6.5z"/><path class="b" d="m42.7 30.3c0.4-2.1-0.1-3.9-1.4-4.6-1.1-0.7-2.6-0.4-4.1 0.6 2.3 0.6 4.3 2 5.5 4z"/><path class="b" d="m13.9 18.2c2-3.5 2-7.2 0-8.3-2-1.2-5.2 0.6-7.2 4.1-2 3.4-2 7.2 0 8.3 2 1.2 5.2-0.7 7.2-4.1z"/><path class="b" d="m13.9 38.1c2-1.1 2-4.8 0-8.3-2-3.4-5.2-5.3-7.2-4.1-2 1.1-2 4.8 0 8.3 2 3.4 5.2 5.3 7.2 4.1z"/><path class="b" d="m41.3 14c2 3.5 2 7.2 0 8.3-2 1.2-5.2-0.7-7.2-4.1-2-3.5-2-7.2 0-8.3 2-1.2 5.2 0.7 7.2 4.1z"/><path fill-rule="evenodd" class="c" d="m25 35c0-5.5 4.5-10 10-10 5.5 0 10 4.5 10 10 0 5.5-4.5 10-10 10-5.5 0-10-4.5-10-10zm10-8.9c-4.9 0-8.9 4-8.9 8.9 0 4.9 4 8.9 8.9 8.9 4.9 0 8.9-4 8.9-8.9 0-4.9-4-8.9-8.9-8.9z"/><path class="c" d="m35.2 30q1.1 0 1.9 0.4 0.8 0.5 1.3 1.2 0.5 0.8 0.6 1.8h-2q-0.1-0.5-0.3-0.9-0.2-0.4-0.6-0.7-0.4-0.2-0.9-0.2-0.7 0-1.2 0.3-0.4 0.4-0.7 1.1-0.2 0.7-0.2 1.9 0 1.9 0.5 2.7 0.6 0.8 1.6 0.8 0.5 0 0.9-0.3 0.4-0.2 0.6-0.7 0.2-0.4 0.3-0.9h2q-0.1 0.7-0.3 1.3-0.3 0.7-0.7 1.1-0.4 0.5-1.1 0.8-0.7 0.3-1.7 0.3-1.3 0-2.2-0.6-1-0.7-1.5-1.8-0.5-1.2-0.5-2.7 0-1.5 0.5-2.6 0.5-1.1 1.5-1.7 0.9-0.6 2.2-0.6z"/></svg>