<svg version="1.2" xmlns="http://www.w3.org/2000/svg" viewBox="0 0 48 48" width="48" height="48"><style>.a{fill:#181920}.b{fill:#fff}</style><path class="a" d="m0 0h48v48h-48z"/><path fill-rule="evenodd" class="b" d="m24 46l-22-22 12.1-12.1 0.1-0.1 9.8-9.8 22 22zm-12.7-28.9c-3.9 4-3.9 10.6 0.1 14.6l2.8 2.7c5.4 5.5 14.2 5.5 19.6 0l2.8-2.7c4-4 4-10.6 0.1-14.6 0.6 3.3-0.3 6.8-2.9 9.4-5.4 5.4-14.2 5.4-19.6 0-2.6-2.6-3.5-6.1-2.9-9.4zm18 1c1.9-1.9 2-4.8 0.5-6.8l-5.8-5.8-5.8 5.8c-1.6 2-1.4 4.9 0.5 6.8 2.9 3 7.7 3 10.6 0zm2.8 6.6c2.8-2.8 3-7.3 0.6-10.4 0.1 1.9-0.6 3.7-2 5.1-3.7 3.7-9.7 3.7-13.4 0-1.4-1.4-2.1-3.2-2-5.1-2.4 3.1-2.2 7.6 0.6 10.4 4.5 4.5 11.7 4.5 16.2 0z"/></svg>