<svg width="40" height="40" viewBox="0 0 40 40" fill="none" xmlns="http://www.w3.org/2000/svg">
<path d="M40 20C40 31.0457 31.0457 40 20 40C8.9543 40 0 31.0457 0 20C0 8.9543 8.9543 0 20 0C31.0457 0 40 8.9543 40 20Z" fill="url(#paint0_linear_10555_140969)"/>
<path d="M20 28C20.7767 28 21.4062 27.3704 21.4062 26.5938C21.4062 25.8171 20.7767 25.1875 20 25.1875C19.2233 25.1875 18.5938 25.8171 18.5938 26.5938C18.5938 27.3704 19.2233 28 20 28Z" fill="white"/>
<path d="M24.681 16.4401C24.5544 14.0001 22.5404 12.0502 20.096 12.0009C20.0639 12.0003 20.0322 12 20.0003 12C17.6678 12 15.6808 13.7193 15.3577 16.0354C15.3277 16.2502 15.3125 16.4695 15.3125 16.6875C15.3125 17.4642 15.9421 18.0938 16.7187 18.0938C17.4954 18.0938 18.125 17.4642 18.125 16.6875C18.125 16.5992 18.1311 16.5106 18.1432 16.4242C18.2741 15.4865 19.0876 14.794 20.0394 14.8129C20.5088 14.8223 20.9569 15.011 21.3012 15.3442C21.6453 15.677 21.8481 16.118 21.8723 16.5858C21.8994 17.1067 21.7173 17.6011 21.3597 17.9778C21.0016 18.3548 20.5188 18.5625 20 18.5625C19.2233 18.5625 18.5937 19.1921 18.5937 19.9688V22.75C18.5937 23.5267 19.2233 24.1562 20 24.1562C20.7766 24.1562 21.4062 23.5267 21.4062 22.75V21.1573C22.1585 20.9196 22.8487 20.4942 23.3993 19.9143C24.2932 18.9727 24.7484 17.7389 24.681 16.4401Z" fill="white"/>
<defs>
<linearGradient id="paint0_linear_10555_140969" x1="6.5" y1="5" x2="33.5" y2="35.5" gradientUnits="userSpaceOnUse">
<stop stop-color="#FFB1D3"/>
<stop offset="0.0001" stop-color="#FF9BD7"/>
<stop offset="1" stop-color="#E860FF"/>
</linearGradient>
</defs>
</svg>
