<svg version="1.2" xmlns="http://www.w3.org/2000/svg" viewBox="0 0 100 100" width="100" height="100"><style>.a{fill:#181920}.b{fill:#eff2f5}.c{fill:#a6b0c3}</style><path class="a" d="m0 0h100v100h-100z"/><path class="b" d="m50 100c-27.7 0-50-22.3-50-50 0-27.7 22.3-50 50-50 27.7 0 50 22.3 50 50 0 27.7-22.3 50-50 50z"/><path fill-rule="evenodd" class="c" d="m63.6 23.4c2.5-1.2 5-2 7.3-2.3 2.3-0.3 4.8-0.1 6.8 1.3 1.7 1.1 2.2 3 2.3 4.4 0.1 1.5-0.2 3.1-0.6 4.6-0.8 3-2.5 6.6-4.3 9.8-1.8 3.2-3.9 6.2-5.9 8.3-1 1-2.1 2-3.3 2.6-0.6 0.2-1.5 0.5-2.4 0.4-1 0-1.9-0.5-2.6-1.3-1.1-1.2-1.8-2.2-2.6-3.1-1.9-2.5-3.8-4.9-9.8-10v-0.1q-0.1 0-0.2-0.1-0.2-0.2-0.6-0.5c-0.5-0.4-1.3-1-2.3-1.7-1.9-1.4-4.5-3.3-7.2-5-2.8-1.7-5.7-3.2-8.1-4.1q-1.8-0.6-3-0.7c-0.8 0-1.1 0.1-1.3 0.2q0 0 0 0.2c-0.1 0.5-0.1 1.3 0.2 2.5 0.6 2.4 1.9 5.4 3.6 8.5 1.6 3.1 3.4 6.1 4.8 8.3 0.7 1.1 1.3 2 1.7 2.6q0.3 0.5 0.5 0.7 0.1 0.2 0.2 0.2v0.1c0.7 1 0.7 2.3 0 3.4l-0.1 0.1-0.1 0.2q-0.3 0.4-0.7 1c-0.5 0.9-1.3 2-2.1 3.2-1.6 2.4-3.4 5.1-4.2 6.3-0.7 1.1-2.2 3.8-3 6.4-0.4 1.3-0.5 2.4-0.4 3.1 0.1 0.6 0.3 0.9 0.6 1 0.1 0.1 0.9 0.3 2.8-0.2 1.7-0.6 3.9-1.6 6.1-2.9 4.6-2.7 9.3-6.4 11.9-8.9q0.1-0.1 0.2-0.2c4.4-3.2 9.1-5.6 13.1-6.7 2.1-0.5 4-0.8 5.8-0.7 1.8 0.1 3.7 0.7 5 2.2 1.7 1.9 4 5.7 5.5 9.5 0.8 1.9 1.4 4 1.5 6 0.1 1.9-0.1 4.3-2 5.9-2.3 2.3-5.6 2.3-8.2 1.8-2.9-0.5-6-1.8-8.8-3.3-2.9-1.6-5.6-3.5-7.9-5.4-1-0.8-2-1.7-2.8-2.6-2.8 2.4-6.6 5.2-10.4 7.5-2.5 1.4-5 2.7-7.4 3.4-2.2 0.7-5 1.1-7.3-0.3-2.1-1.2-3.1-3.2-3.4-5.3-0.2-1.9 0.1-3.9 0.6-5.6 1-3.4 2.9-6.6 3.8-8 0.8-1.2 2.6-3.9 4.2-6.3 0.7-1.1 1.3-2.1 1.9-2.9q-0.6-0.9-1.4-2.1c-1.5-2.3-3.4-5.4-5.1-8.7-1.7-3.2-3.3-6.8-4.1-9.9-0.3-1.5-0.5-3.2-0.3-4.8 0.2-1.6 1-3.3 2.7-4.3 1.5-1 3.1-1.2 4.6-1.1 1.5 0.1 3 0.5 4.6 1 3 1.1 6.2 2.9 9.1 4.7 3 1.8 5.7 3.8 7.7 5.2 0.5 0.4 1.1 0.8 1.5 1.1 4.2-3.5 8.9-6.6 13.3-8.6zm-8.8 12.4c4.6 4.1 6.5 6.7 8.2 8.8q0.6 0.8 1.2 1.6 0.4-0.3 0.9-0.8c1.5-1.6 3.4-4.3 5.1-7.2 1.6-2.9 3-6 3.7-8.4 0.3-1.2 0.4-2.1 0.4-2.6l-0.1-0.1c-0.5-0.2-1.3-0.3-2.6-0.2-1.5 0.2-3.5 0.8-5.7 1.8-3.5 1.7-7.4 4.2-11.1 7.1zm-1.2 29q0.8 0.8 1.9 1.7c1.9 1.6 4.3 3.3 6.9 4.7 2.5 1.4 5 2.4 7.1 2.7 2.2 0.5 3 0 3.2-0.2q0.1-0.1 0.2-0.2c0 0 0.1-0.3 0.1-1.1-0.1-1.1-0.5-2.5-1.1-4.2-1.3-3.3-3.3-6.5-4.4-7.7 0 0-0.2-0.2-1.2-0.3-0.9-0.1-2.3 0-3.9 0.5-2.6 0.7-5.6 2.1-8.8 4.1z"/></svg>