<svg version="1.2" xmlns="http://www.w3.org/2000/svg" viewBox="0 0 48 48" width="48" height="48"><style>.a{fill:#181920}.b{fill:#f0f}.c{fill:#fff}</style><path class="a" d="m0 0h48v48h-48z"/><path class="b" d="m31.2 8.2c0 2.3-3.2 4.2-7.2 4.2-4 0-7.2-1.9-7.2-4.2 0-2.3 3.2-4.2 7.2-4.2 4 0 7.2 1.9 7.2 4.2z"/><path class="b" d="m29.8 42.3c-1.4 1-3.4 1.7-5.8 1.7-4 0-7.2-1.9-7.2-4.2 0-2.3 3.2-4.2 7.2-4.2q1.1 0 2 0.2c0.3 2.7 1.7 5 3.8 6.5z"/><path class="b" d="m13.9 9.9c2 1.1 2 4.8 0 8.3-2 3.4-5.2 5.3-7.2 4.1-2-1.1-2-4.9 0-8.3 2-3.5 5.2-5.3 7.2-4.1z"/><path class="b" d="m13.9 38.1c2-1.1 2-4.8 0-8.3-2-3.4-5.2-5.3-7.2-4.1-2 1.1-2 4.8 0 8.3 2 3.4 5.2 5.3 7.2 4.1z"/><path class="b" d="m41.3 22.3c2-1.1 2-4.8 0-8.3-2-3.4-5.2-5.3-7.2-4.1-2 1.1-2 4.8 0 8.3 2 3.4 5.2 5.3 7.2 4.1z"/><path class="c" d="m34.4 39.5q1.2 0.5 2.6 0.5 1.6 0 2.6-0.5 1.1-0.5 1.6-1.4 0.6-0.8 0.6-1.8-0.1-1.1-0.5-1.8-0.5-0.7-1.4-1.2-0.8-0.4-1.8-0.7-0.9-0.3-1.6-0.6-0.8-0.2-1.2-0.6-0.4-0.3-0.4-1 0-0.7 0.5-1.1 0.6-0.4 1.4-0.4 0.9 0 1.4 0.6 0.6 0.5 0.6 1.1h2.6q0-1.1-0.6-1.9-0.6-0.8-1.6-1.3-1-0.4-2.4-0.4-1.3 0-2.3 0.4-1 0.5-1.6 1.3-0.6 0.8-0.6 1.9 0 1.3 0.8 2.1 0.8 0.8 2.4 1.3 1 0.3 1.8 0.6 0.8 0.2 1.3 0.7 0.5 0.4 0.5 1.2 0.1 0.7-0.5 1.1-0.6 0.5-1.6 0.5-1.1 0-1.7-0.6-0.7-0.6-0.7-1.5h-2.6q0 1.3 0.7 2.2 0.6 0.8 1.7 1.3z"/></svg>