<svg version="1.2" xmlns="http://www.w3.org/2000/svg" viewBox="0 0 48 48" width="48" height="48"><style>.a{fill:#181920}.b{fill:#fff}</style><path class="a" d="m0 0h48v48h-48z"/><path class="b" d="m41.7 12.3q-0.1 0-0.2-0.1c-0.6-0.5-1.3-1-2.5-1.2-1.2-0.1-2.4 0.7-3.2 1.2h-0.1c-0.5 0.3-1.2 1-1.9 1.6-0.5 0.5-0.9 0.9-1.2 1.1-0.3 0.2-0.7 0.4-1.3 0.6-0.9 0.4-2.1 1-3.8 1.9-2.7 1.7-13.3 8.6-13.3 8.6h2.7l-12.4 6.4h1.3l-1.8 1.4c0 0 1.6 0.4 2.9-0.5v0.4c0 0 14.7-5.8 17.6-4.3l-1.8 0.5c0.2 0 3 0.2 3 0.2q0 0.4 0.2 0.8c1.5-3.5 5-5.9 9.1-5.9q0 0 0 0c1.9-1.3 2.5-2.3 2.9-3.1 0.3-0.6 0.7-1.6 1-2.5 0.2-0.6 0.4-1.1 0.6-1.5 0.5-1.3 1.1-1.9 1.7-2.3 0.5-0.4 2.8-1.3 2.8-1.3 0 0-1.8-1.5-2.3-2z"/><path fill-rule="evenodd" class="b" d="m25 35c0-5.5 4.5-10 10-10 5.5 0 10 4.5 10 10 0 5.5-4.5 10-10 10-5.5 0-10-4.5-10-10zm10-8.9c-4.9 0-8.9 4-8.9 8.9 0 4.9 4 8.9 8.9 8.9 4.9 0 8.9-4 8.9-8.9 0-4.9-4-8.9-8.9-8.9z"/><path class="b" d="m35.1 40q-1.1 0-2-0.4-0.9-0.3-1.5-1-0.5-0.7-0.5-1.7h2.1q0 0.7 0.5 1.2 0.5 0.4 1.4 0.4 0.8 0 1.2-0.3 0.5-0.4 0.5-0.9 0-0.6-0.4-0.9-0.4-0.4-1.1-0.6-0.6-0.2-1.4-0.4-1.2-0.4-1.9-1-0.6-0.6-0.6-1.6-0.1-0.9 0.4-1.5 0.5-0.6 1.3-1 0.8-0.3 1.8-0.3 1.1 0 1.9 0.3 0.8 0.4 1.3 1 0.5 0.6 0.5 1.5h-2.1q0-0.5-0.4-0.9-0.4-0.4-1.2-0.4-0.6 0-1.1 0.3-0.4 0.3-0.4 0.8 0 0.5 0.3 0.8 0.4 0.3 1 0.5 0.5 0.2 1.3 0.4 0.8 0.2 1.4 0.6 0.7 0.3 1.1 0.9 0.4 0.5 0.4 1.4 0 0.7-0.4 1.4-0.5 0.6-1.3 1-0.9 0.4-2.1 0.4z"/></svg>