<svg version="1.2" xmlns="http://www.w3.org/2000/svg" viewBox="0 0 48 48" width="48" height="48"><style>.a{fill:#181920}.b{fill:#fff}</style><path class="a" d="m0 0h48v48h-48z"/><path class="b" d="m14.1 20.6c3.6 0 6.5-2.9 6.5-6.5 0-1.7-0.8-3.6-2.2-5q-0.2-0.2-0.3-0.3c-4.4 1.7-7.9 5.2-9.5 9.7 1.6 1.3 3.7 2.1 5.5 2.1z"/><path class="b" d="m7.8 21.7q1.4 0.9 2.9 1.4v10.4c-1.9-2.7-3.1-5.9-3.1-9.5q0-1.2 0.2-2.3z"/><path class="b" d="m13.1 36.2v-12.6q0.5 0 1 0 0.7 0 1.4-0.1l6.4 16.7c-3.4-0.4-6.4-1.9-8.8-4z"/><path class="b" d="m24.5 40.3c4-0.1 7.6-1.6 10.4-4.1l-14.8-14.7q-1 0.9-2.3 1.4z"/><path class="b" d="m21.7 19.8l14.8 14.7c2.2-2.6 3.6-6 3.8-9.6l-17.4-7.1q-0.5 1.1-1.2 2z"/><path class="b" d="m23.5 15.5q0.1-0.7 0.1-1.4 0-0.4 0-0.8h12.8c2.1 2.5 3.5 5.6 3.9 9z"/><path class="b" d="m21.4 7.9c0.7 0.9 1.3 1.9 1.7 3h10.7c-2.7-2-6.1-3.3-9.8-3.3q-1.3 0-2.6 0.3z"/><path fill-rule="evenodd" class="b" d="m46 24c0 12.2-9.8 22-22 22-12.2 0-22-9.8-22-22 0-12.2 9.8-22 22-22 12.2 0 22 9.8 22 22zm-22-19.2c-10.6 0-19.2 8.6-19.2 19.2 0 10.6 8.6 19.2 19.2 19.2 10.6 0 19.2-8.6 19.2-19.2 0-10.6-8.6-19.2-19.2-19.2z"/></svg>