<svg version="1.2" xmlns="http://www.w3.org/2000/svg" viewBox="0 0 48 48" width="48" height="48"><style>.a{fill:#181920}.b{fill:#fff}</style><path class="a" d="m0 0h48v48h-48z"/><path fill-rule="evenodd" class="b" d="m31.2 8.2c0 2.3-3.2 4.2-7.2 4.2-4 0-7.2-1.9-7.2-4.2 0-2.3 3.2-4.2 7.2-4.2 4 0 7.2 1.9 7.2 4.2zm0 31.6c0 2.3-3.2 4.2-7.2 4.2-4 0-7.2-1.9-7.2-4.2 0-2.3 3.2-4.2 7.2-4.2 4 0 7.2 1.9 7.2 4.2zm-24.5-17.5c-2-1.1-2-4.9 0-8.3 2-3.5 5.2-5.3 7.2-4.1 2 1.1 2 4.8 0.1 8.3-2 3.4-5.3 5.3-7.3 4.1zm34.6 3.4c2 1.1 2 4.8 0 8.3-2 3.4-5.2 5.3-7.2 4.1-2-1.1-2-4.8-0.1-8.3 2-3.4 5.3-5.3 7.3-4.1zm-34.6 8.3c-2-3.5-2-7.2 0-8.3 2-1.2 5.3 0.7 7.3 4.1 1.9 3.5 1.9 7.2-0.1 8.3-2 1.2-5.2-0.7-7.2-4.1zm34.6-20c2 3.5 2 7.2 0 8.3-2 1.2-5.3-0.7-7.3-4.1-1.9-3.5-1.9-7.2 0.1-8.3 2-1.2 5.2 0.7 7.2 4.1zm-16.9 9.6q0.2-0.1 0.5-0.1c0.4 0 0.8 0.2 0.8 0.5 0 0.3-0.4 0.5-0.8 0.5q-0.3 0-0.5-0.1 0.1 0.2 0.1 0.4c0 0.4-0.2 0.8-0.5 0.9-0.3-0.2-0.5-0.5-0.5-0.9q0-0.2 0.1-0.4-0.2 0.1-0.4 0.1c-0.5 0-0.9-0.2-0.9-0.5 0-0.3 0.4-0.5 0.9-0.5q0.2 0 0.4 0.1-0.1-0.2-0.1-0.5c0-0.3 0.2-0.6 0.5-0.8 0.3 0.2 0.5 0.5 0.5 0.8q0 0.3-0.1 0.5zm-5.5 2.5c-1.4 0-2.6-0.8-3.3-1.9l-0.1-0.2 0.1-0.2c0.7-1.1 1.9-1.9 3.3-1.9 1.3 0 2.6 0.8 3.2 1.9l0.1 0.2-0.1 0.2c-0.6 1.1-1.9 1.9-3.2 1.9zm-2.6-2.1c0.6 0.8 1.6 1.4 2.6 1.4 1 0 2-0.6 2.5-1.4-0.5-0.9-1.5-1.4-2.5-1.4-1 0-2 0.5-2.6 1.4zm9.5 0l0.1-0.2c0.7-1.1 1.9-1.9 3.2-1.9 1.4 0 2.6 0.8 3.3 1.9l0.1 0.2-0.1 0.2c-0.7 1.1-1.9 1.9-3.3 1.9-1.3 0-2.6-0.8-3.2-1.9zm5.9 0c-0.6-0.9-1.5-1.4-2.6-1.4-1 0-1.9 0.5-2.5 1.4 0.6 0.8 1.5 1.3 2.5 1.3 1.1 0 2-0.5 2.6-1.3zm-7.7 8.5l-0.2-0.1c-1.1-0.7-1.9-2-1.9-3.3 0-1.3 0.8-2.6 1.9-3.2l0.2-0.2 0.2 0.2c1.1 0.6 1.9 1.9 1.9 3.2 0 1.3-0.8 2.6-1.9 3.3zm0-6c-0.9 0.6-1.4 1.6-1.4 2.6 0 1 0.5 2 1.4 2.5 0.8-0.5 1.3-1.5 1.3-2.5 0-1-0.5-2-1.3-2.6zm-2.1-7.7c0-1.3 0.8-2.6 1.9-3.2l0.2-0.1 0.2 0.1c1.1 0.6 1.9 1.9 1.9 3.2 0 1.4-0.8 2.6-1.9 3.3l-0.2 0.1-0.2-0.1c-1.2-0.7-1.9-1.9-1.9-3.3zm2.1 2.6c0.8-0.6 1.3-1.5 1.3-2.5 0-1.1-0.5-2-1.3-2.6-0.9 0.6-1.4 1.5-1.4 2.6 0 1 0.5 1.9 1.4 2.5zm-2.1 4.7c0.2 0.7 0 1.5-0.6 2-0.5 0.5-1.3 0.7-2 0.5-0.2-0.6 0-1.4 0.5-2 0.6-0.5 1.4-0.7 2.1-0.5zm6.8 2.5c-0.7 0.2-1.5 0-2-0.5-0.6-0.5-0.8-1.3-0.6-2 0.7-0.2 1.5 0 2 0.5 0.6 0.6 0.8 1.3 0.6 2zm-8.9-7.3c-0.5-0.5-0.7-1.3-0.5-2 0.7-0.2 1.5 0 2 0.5 0.6 0.5 0.8 1.3 0.6 2-0.7 0.2-1.5 0-2.1-0.5zm8.3 0c-0.5 0.5-1.3 0.7-2 0.5-0.2-0.6 0-1.4 0.6-2 0.5-0.5 1.3-0.7 2-0.5 0.2 0.7 0 1.5-0.6 2z"/></svg>