<svg version="1.2" xmlns="http://www.w3.org/2000/svg" viewBox="0 0 48 48" width="48" height="48"><defs><clipPath clipPathUnits="userSpaceOnUse" id="cp1"><path d="m5 2h39.2v42h-39.2z"/></clipPath></defs><style>.a{fill:#181920}.b{fill:#fff}</style><path class="a" d="m0 0h48v48h-48z"/><g clip-path="url(#cp1)"><path class="b" d="m16.6 6.3c-0.5 0-0.5 0-0.3-0.1 0.5-0.1 1.6 0 2.4 0.2 1.8 0.4 3.4 1.5 5.2 3.5l0.5 0.5 0.6-0.1c2.8-0.5 5.7-0.1 8.1 1 0.6 0.3 1.7 0.9 1.8 1 0 0.1 0.1 0.4 0.2 0.8q0.2 1.7-0.3 2.7c-0.2 0.3-0.2 0.5-0.1 0.8q0.1 0.2 0.3 0.3 0.2 0.1 0.4 0.1c0.6 0 1.2-0.9 1.5-2.3l0.1-0.5 0.3 0.3c1.3 1.4 2.3 3.4 2.4 4.8l0.1 0.3-0.2-0.3q-0.5-0.8-1.3-1.3c-0.8-0.5-1.7-0.7-4.1-0.9-2.2-0.1-3.4-0.3-4.6-0.7-2.1-0.6-3.1-1.5-5.6-4.7-1.1-1.4-1.8-2.2-2.4-2.9-1.6-1.4-3.1-2.2-5-2.5z"/><path class="b" d="m35.4 9.5c0-0.9 0.2-1.6 0.4-2.1q0.1-0.3 0.2-0.4c0.1 0 0 0.1-0.1 0.3-0.2 0.6-0.2 1.3 0 2.2 0.1 1.2 0.2 1.3 1.4 2.5 0.6 0.6 1.2 1.3 1.5 1.6l0.4 0.6-0.4-0.4c-0.6-0.5-1.8-1.5-2-1.6-0.2-0.1-0.3-0.1-0.4 0-0.1 0.1-0.1 0.3-0.1 1 0 1.1-0.2 1.8-0.5 2.5-0.2 0.4-0.3 0.4-0.1-0.1 0.1-0.3 0.2-0.5 0.2-1.5 0-2.2-0.3-2.7-1.8-3.6q-0.7-0.4-1.4-0.7-0.4-0.2-0.7-0.4c0 0 1.5 0.4 2.1 0.6 0.9 0.4 1 0.4 1.1 0.4 0.1-0.1 0.1-0.3 0.2-0.9zm-17.8 3.7c-1-1.4-1.7-3.7-1.5-5.3v-0.6l0.2 0.1c0.5 0.1 1.3 0.4 1.7 0.6 1 0.6 1.4 1.4 1.9 3.5 0.1 0.6 0.3 1.2 0.3 1.5 0.2 0.4 0.6 1.2 1 1.8q0.4 0.6-0.5 0.5c-0.9 0-2.2-0.9-3.1-2.1zm16.5 10.9c-5-2-6.8-3.7-6.8-6.6 0-0.5 0-0.8 0.1-0.8 0 0 0.2 0.1 0.4 0.3 1 0.8 2.1 1.1 5.3 1.6 1.8 0.3 2.9 0.5 3.8 0.8 3.1 1 5 3 5.4 5.8 0.1 0.8 0.1 2.3-0.2 3.1-0.1 0.7-0.6 1.8-0.8 1.9 0 0 0-0.2 0-0.4-0.1-1-0.6-2-1.5-2.8-1-0.9-2.4-1.6-5.7-2.9zm-3.5 0.9q-0.1-0.6-0.3-1.1l-0.1-0.4 0.2 0.3q0.5 0.5 0.8 1.4c0.2 0.5 0.2 0.7 0.2 1.4 0 0.8 0 1-0.1 1.4q-0.4 0.9-1.1 1.6c-0.9 1-2.1 1.5-3.8 1.7-0.3 0-1.1 0.1-1.9 0.1-1.9 0.1-3.1 0.3-4.3 0.7q-0.1 0.1-0.3 0.1c0 0 0.7-0.5 1.4-0.8 0.9-0.4 1.7-0.7 3.7-1 1-0.2 2-0.3 2.3-0.4 2.4-0.8 3.7-2.7 3.3-5z"/><path class="b" d="m32.9 29q-1-2.1-0.5-4.1c0.1-0.1 0.1-0.2 0.2-0.2 0 0 0.1 0.1 0.3 0.2 0.3 0.2 0.9 0.5 2.6 1.4 2 1.1 3.2 2 3.9 2.9 0.7 0.9 1.2 1.9 1.4 3.1 0.1 0.6 0 2.3-0.2 2.9-0.5 2.2-1.8 3.9-3.6 4.8-0.3 0.2-0.5 0.3-0.5 0.3-0.1 0 0-0.2 0.2-0.5 0.6-1.3 0.7-2.6 0.2-3.9-0.3-0.9-0.9-1.9-2-3.6-1.4-2.1-1.7-2.6-2-3.3zm-18.8 7.6c1.9-1.5 4.2-2.6 6.3-3q1.6-0.2 3.2 0.2c1.4 0.3 2.6 1.1 3.2 2 0.6 0.9 0.9 1.7 1.1 3.4 0.1 0.7 0.3 1.4 0.3 1.5 0.2 0.9 0.6 1.6 1.1 2 0.8 0.6 2.1 0.6 3.5 0.1q0.2-0.1 0.4-0.2c0 0.1-0.6 0.5-1.1 0.8q-0.9 0.4-1.8 0.4-1.8 0-3.1-1.9-0.5-0.8-0.8-1.6c-0.9-2-1.3-2.6-2.4-3.3-0.9-0.6-2-0.7-2.9-0.3-1.2 0.6-1.5 2-0.7 3 0.4 0.4 0.9 0.6 1.5 0.7q0.3 0 0.6-0.1 0.3 0 0.6-0.3 0.2-0.2 0.4-0.5 0.1-0.3 0.1-0.6c0-0.6-0.2-1-0.8-1.2-0.8-0.4-1.7 0-1.7 0.8 0 0.3 0.2 0.5 0.5 0.6q0.3 0.2 0 0.1c-0.7-0.1-0.9-1-0.3-1.6 0.7-0.7 2.2-0.4 2.7 0.5 0.2 0.5 0.2 1.3 0.1 1.7-0.5 1.1-1.7 1.7-2.9 1.4-0.8-0.2-1.2-0.4-2.2-1.5-1.8-1.8-2.4-2.1-5-2.5l-0.5-0.1z"/><path fill-rule="evenodd" class="b" d="m5 3.4c0.1 0 11.5 9.8 12.7 11.2l0.3 0.4v0.5q-0.1 0.6-0.3 1-0.2 0.5-0.6 0.9c-0.7 0.6-1.5 0.9-2.8 1.1-0.8 0.1-1.1 0.2-1.4 0.6-0.3 0.3-0.4 0.7-0.5 1.8-0.1 1.6-0.3 2.3-1.1 3.9-0.7 1.6-0.9 2.2-0.8 3 0.2 1 0.8 1.8 2.1 2.7 1.1 0.7 1.5 1.2 1.8 1.7 0.2 0.3 0.2 0.5 0.2 1 0 0.9-0.2 1.3-0.8 2-1 1-2.7 1.9-4.9 2.4-0.9 0.2-1 0.2-1-0.1 0-0.2-0.3-0.9-0.9-1.8-0.7-1-0.9-1.6-1.2-2.4-0.3-0.9-0.4-1.5-0.3-2.4 0-0.9 0.1-1.3 0.5-2 0.3-0.6 0.4-0.8 1.6-2.2 1.9-2.4 2.6-3.8 2.8-5.8 0.3-1.8 0.6-2.6 1.2-3.4 0.5-0.4 0.5-0.6 0.5-0.9 0-0.2 0.4-0.6-0.1-1.7-3-5.5-3-5.5-2.9-5.4q1.6 2.4 3.1 4.8c1.2 2.2 1.4 2.1 1.6 2.4 0 0 0.2 0.1 0.6 0.1q0.7-0.1 1.4-0.4 1-0.5 0.4-1.3c-0.4-0.6-4.5-3.6-10.3-10.6-0.5-0.6-0.9-1.1-0.9-1.1zm3.6 28.6q0.2-0.4 0.1-0.8-0.1-0.4-0.4-0.6c-0.4-0.3-1.1-0.2-1.1 0.2q0 0.2 0.2 0.3c0.2 0.1 0.2 0.2 0.1 0.5q-0.3 0.4 0 0.7c0.4 0.3 0.8 0.1 1.1-0.3zm11.7-13.1c0.8 0.4 1.3 1.2 1.2 1.8-0.2 0.8-1.4 1.4-2.7 1.4-0.7 0-1-0.1-1.3-0.5-0.1-0.2-0.2-0.9-0.1-1.3 0.2-0.7 0.8-1.3 1.4-1.5 0.5-0.1 1-0.1 1.5 0.1zm0.1 1.1c0.2-0.3 0.1-0.6-0.2-0.8-0.7-0.4-1.8-0.1-1.8 0.6 0 0.3 0.6 0.6 1.1 0.6 0.3 0 0.8-0.1 0.9-0.4z"/></g></svg>