<svg version="1.2" xmlns="http://www.w3.org/2000/svg" viewBox="0 0 48 48" width="48" height="48"><style>.a{fill:#181920}.b{fill:#fff}</style><path class="a" d="m0 0h48v48h-48z"/><path class="b" d="m14 35.4c8 3.9 17.5 0.7 21.4-7.2 3.9-7.9 0.7-17.5-7.2-21.4q-1-0.5-2.2-0.8c2 0.2 4 0.8 5.9 1.8 9 4.4 12.6 15.2 8.2 24.1-4.4 9-15.3 12.6-24.2 8.2-5.7-2.7-9.2-8.1-9.9-13.9 1.3 3.9 4.1 7.3 8 9.2z"/><path class="b" d="m35.4 22.8c-0.9 0-2.3 0.2-3.9 0.6 0 0-0.1 0-0.2 0-0.1 0-0.1 0.1-0.2 0.1q-1.2 0.3-2.2 0.9-1.1 0.5-1.9 1.1-0.1 0.1-0.2 0.2c-0.1 0-0.2 0.1-0.3 0.1-1.8 1.6-3.2 3.6-4 6.2q-0.2 0.5-0.4 1.1-0.3 1.2-0.5 2.6h0.1c3.5-0.1 6.8-1.6 9.4-3.9 2.6-2.4 4.2-5.5 4.6-9 0 0-0.2 0-0.3 0z"/><path class="b" d="m19.9 31.9c-0.8-2.5-2.2-4.6-4.1-6.1 0-0.1-0.1-0.1-0.2-0.2 0 0-0.1-0.1-0.2-0.2-0.6-0.4-1.2-0.7-1.9-1.1q-1-0.5-2.2-0.9c0 0-0.1 0-0.2 0-0.1 0-0.1-0.1-0.2-0.1-1.6-0.4-3-0.5-3.9-0.5-0.2 0-0.3 0-0.4 0 0.4 3.4 2.1 6.6 4.6 9 2.6 2.3 6 3.7 9.5 3.8-0.2-0.9-0.3-1.8-0.5-2.6-0.1-0.3-0.2-0.7-0.3-1.1z"/><path class="b" d="m23.7 28.1q1.2-1.8 2.8-3.1c0 0 0.2-0.1 0.2-0.1q0.1-0.1 0.2-0.2 0.8-0.6 1.7-1c0.8-0.4 1.6-0.7 2.4-1 0.3-3.6-0.5-6.6-0.8-7.7-0.7 0.3-2.4 1.2-4.2 2.8q-0.1 0.1-0.2 0.1-0.1 0.1-0.2 0.2c-0.5 0.5-1 1.1-1.5 1.6-1.1 1.3-2 2.8-2.6 4.3 0 0.1 0 0.2-0.1 0.3-0.1 0.1-0.1 0.2-0.1 0.3-0.8 2.3-1 4.7-0.8 7.3q0.4 1.3 0.7 2.7 0.2-1.4 0.6-2.7c0.1-0.2 0.2-0.5 0.3-0.8 0.1-0.1 0.2-0.3 0.3-0.5 0.4-0.9 0.8-1.7 1.3-2.5z"/><path class="b" d="m13.8 23.7q0.9 0.5 1.7 1.1 0.1 0 0.2 0.1 0.2 0.1 0.3 0.2c1 0.8 2 1.9 2.7 3.1 0.4 0.6 0.8 1.2 1.1 1.9q0-2 0.4-3.8 0.3-1.2 0.7-2.3c-0.6-1.5-1.5-3-2.6-4.3-0.4-0.5-1-1.1-1.5-1.6q-0.1-0.1-0.2-0.2-0.1-0.1-0.2-0.1c-1.8-1.6-3.5-2.4-4.2-2.8-0.3 1.1-1 4.2-0.8 7.7q1.3 0.5 2.4 1z"/><path class="b" d="m18.8 19.3c1 1.2 1.8 2.5 2.4 3.9 0.6-1.4 1.4-2.7 2.5-3.9q0.7-0.9 1.6-1.7c-1.4-3.4-3.3-5.8-4.1-6.6-0.7 0.8-2.7 3.2-4 6.6q0.8 0.8 1.6 1.7z"/></svg>