<svg version="1.2" xmlns="http://www.w3.org/2000/svg" viewBox="0 0 48 48" width="48" height="48"><style>.a{fill:#181920}.b{fill:#fff}</style><path class="a" d="m0 0h48v48h-48z"/><path class="b" d="m23.7 3l10.4 17.8-10.4-4.8-10.4 4.8z"/><path fill-rule="evenodd" class="b" d="m34.8 34.3c0.8 0.1 1.5 0.6 1.9 1.2 0.5 0.6 0.6 1.4 0.5 2.2-0.1 0.7-0.6 1.4-1.2 1.8-0.6 0.5-1.4 0.7-2.2 0.5-0.7-0.1-1.4-0.5-1.9-1.2-0.4-0.6-0.6-1.4-0.4-2.2 0.1-0.7 0.5-1.4 1.2-1.8 0.6-0.5 1.4-0.6 2.1-0.5zm0 0.1c-0.7-0.1-1.5 0.1-2.1 0.5-0.6 0.4-1 1.1-1.1 1.8-0.1 0.7 0 1.4 0.5 2 0.4 0.6 1 1 1.7 1.2 0.8 0.1 1.5-0.1 2.1-0.5 0.6-0.4 1-1 1.1-1.8 0.2-0.7 0-1.4-0.4-2-0.4-0.6-1.1-1-1.8-1.2z"/><path fill-rule="evenodd" class="b" d="m36 29c1.6 0.3 3 1.2 3.9 2.5 0.9 1.3 1.2 2.9 1 4.5-0.3 1.6-1.2 3-2.5 3.9-1.3 0.9-2.9 1.2-4.5 1-1.6-0.3-3-1.2-3.9-2.5-0.9-1.3-1.2-2.9-1-4.5 0.3-1.6 1.2-2.9 2.5-3.9 1.3-0.9 2.9-1.2 4.5-1zm-0.1 0.5c-1.4-0.3-2.9 0.1-4.1 0.9-1.2 0.9-2 2.1-2.3 3.6-0.3 1.4 0.1 2.9 0.9 4.1-0.5-1-0.8-2.1-0.6-3.3 0.3-1.3 1-2.4 2.1-3.2 1.1-0.7 2.4-1 3.7-0.8 1.3 0.2 2.5 1 3.2 2 0.8 1.1 1.1 2.5 0.8 3.8-0.2 1.3-0.9 2.4-2 3.2q-0.2 0.1-0.5 0.2 0.6-0.2 1-0.5c1.2-0.8 2.1-2.1 2.3-3.6 0.3-1.4-0.1-2.9-0.9-4.1-0.8-1.2-2.1-2-3.6-2.3zm-0.4 1.6c-1.2-0.2-2.4 0.1-3.4 0.8-1 0.7-1.7 1.8-1.9 3-0.2 1.2 0.1 2.4 0.8 3.4q0.3 0.5 0.6 0.8-0.1-0.2-0.3-0.4c-0.6-0.9-0.8-1.9-0.6-3 0.1-1 0.7-1.9 1.6-2.5 0.8-0.6 1.9-0.8 2.9-0.7 1 0.2 2 0.8 2.6 1.7 0.6 0.8 0.8 1.9 0.6 2.9-0.2 1-0.8 2-1.6 2.5q-0.6 0.4-1.2 0.6 0.9-0.2 1.8-0.7c1-0.7 1.7-1.8 1.9-3 0.2-1.2-0.1-2.4-0.8-3.5-0.7-1-1.7-1.6-3-1.9zm2.7 6c0.1-1-0.1-2-0.6-2.8-0.6-0.8-1.5-1.3-2.4-1.5-1-0.2-2 0-2.8 0.6-0.8 0.6-1.3 1.4-1.5 2.4-0.2 0.9 0.1 1.9 0.6 2.7 0.6 0.8 1.4 1.4 2.4 1.5 1 0.2 1.9 0 2.7-0.6 0.8-0.5 1.4-1.4 1.6-2.3z"/><path fill-rule="evenodd" class="b" d="m12 24.9l11.7 5.5 3.5-1.7c1.9-2.3 4.7-3.7 7.8-3.7q0 0 0.1 0l0.2-0.1v0.1c5.4 0.1 9.7 4.6 9.7 10 0 5.5-4.5 10-10 10-3.6 0-6.8-1.9-8.5-4.8l-2.8 4.8zm23.1 0.1q0 0 0.1 0-0.1 0-0.1 0zm-0.1 18.9c4.9 0 8.9-4 8.9-8.9 0-4.9-4-8.9-8.9-8.9-4.9 0-8.9 4-8.9 8.9 0 4.9 4 8.9 8.9 8.9z"/><path class="b" d="m14.2 23.1l9.5 4.5 9.5-4.5-9.5-4.4z"/></svg>