<svg width="48" height="48" xmlns="http://www.w3.org/2000/svg"><g fill="none" fill-rule="evenodd"><path d="M8.775 24c0-6.729 4.364-12.437 10.415-14.448l-1.603-5.984C8.895 6.292 2.59 14.412 2.59 24a21.331 21.331 0 0 0 5.643 14.486l4.379-4.379A15.172 15.172 0 0 1 8.775 24" fill="#B2B2B2"><animate attributeName="opacity" values="1;1;0.3;0.3" keyTimes="0;0.33;0.66;1" repeatCount="indefinite" dur="0.6s" calcMode="linear"/></path><path d="m44.9 28.663-20.161-5.401-5.401-20.16c1.5-.335 3.06-.512 4.662-.512 11.825 0 21.41 9.586 21.41 21.41 0 1.601-.175 3.163-.51 4.663" fill="#999"><animate attributeName="opacity" values="1;1;0.3;0.3" keyTimes="0;0.33;0.66;1" repeatCount="indefinite" dur="0.6s" begin="0.2s" calcMode="linear"/></path><path d="M44.432 30.413 38.45 28.81C36.434 34.86 30.726 39.224 24 39.224c-3.878 0-7.419-1.45-10.106-3.837l-4.378 4.378A21.324 21.324 0 0 0 24 45.41c9.59 0 17.707-6.306 20.432-14.997" fill="#CCC"><animate attributeName="opacity" values="1;1;0.3;0.3" keyTimes="0;0.33;0.66;1" repeatCount="indefinite" dur="0.6s" begin="0.4s" calcMode="linear"/></path></g></svg>