<svg width="14" height="14" viewBox="0 0 14 14" fill="none" xmlns="http://www.w3.org/2000/svg">
<g id="messenger 1" clip-path="url(#clip0_10866_11965)">
<g id="Mask group">
<mask id="mask0_10866_11965" style="mask-type:luminance" maskUnits="userSpaceOnUse" x="0" y="0" width="14" height="14">
<g id="Group">
<path id="bg" d="M14 0H0V14H14V0Z" fill="white"/>
<g id="Group_2">
<path id="path901" d="M7.68359 7C7.68359 7.37754 7.37753 7.68359 7 7.68359C6.62246 7.68359 6.31641 7.37754 6.31641 7C6.31641 6.62247 6.62246 6.31641 7 6.31641C7.37753 6.31641 7.68359 6.62247 7.68359 7Z" fill="white"/>
<path id="path905" d="M10.418 7C10.418 7.37754 10.1119 7.68359 9.73437 7.68359C9.35684 7.68359 9.05078 7.37754 9.05078 7C9.05078 6.62247 9.35684 6.31641 9.73437 6.31641C10.1119 6.31641 10.418 6.62247 10.418 7Z" fill="white"/>
<path id="path909" d="M4.94922 7C4.94922 7.37754 4.64316 7.68359 4.26562 7.68359C3.88809 7.68359 3.58203 7.37754 3.58203 7C3.58203 6.62247 3.88809 6.31641 4.26562 6.31641C4.64316 6.31641 4.94922 6.62247 4.94922 7Z" fill="white"/>
</g>
</g>
</mask>
<g mask="url(#mask0_10866_11965)">
<g id="Group_3">
<g id="g885">
<g id="g887">
<g id="Clip path group">
<mask id="mask1_10866_11965" style="mask-type:luminance" maskUnits="userSpaceOnUse" x="0" y="0" width="14" height="14">
<g id="clipPath893">
<path id="path891" d="M0 9.53674e-07H14V14H0V9.53674e-07Z" fill="white"/>
</g>
</mask>
<g mask="url(#mask1_10866_11965)">
<g id="g889">
<g id="g895">
<path id="path897 (Stroke)" fill-rule="evenodd" clip-rule="evenodd" d="M0.16019 13.8398C0.305241 13.9849 0.519266 14.0365 0.714524 13.9737L3.51533 13.0717C4.54177 13.662 5.73202 14 7.00001 14C10.866 14 14 10.866 14 6.99999C14 3.134 10.866 -1.33514e-05 7.00001 -1.33514e-05C3.13403 -1.33514e-05 1.45185e-05 3.134 1.45185e-05 6.99999C1.45185e-05 8.26798 0.337963 9.45823 0.928293 10.4847L0.0263407 13.2855C-0.0365386 13.4807 0.0151401 13.6948 0.16019 13.8398ZM7.00001 12.9062C5.85097 12.9062 4.78023 12.5783 3.8737 12.0114C3.73702 11.926 3.56958 11.9052 3.41613 11.9546L1.39432 12.6057L2.04541 10.5839C2.09483 10.4304 2.07403 10.263 1.98856 10.1263C1.42173 9.21977 1.09376 8.14903 1.09376 6.99999C1.09376 3.73806 3.73809 1.09374 7.00001 1.09374C10.2619 1.09374 12.9063 3.73806 12.9063 6.99999C12.9063 10.2619 10.2619 12.9062 7.00001 12.9062Z" fill="#818CF8"/>
</g>
<g id="g899">
<path id="path901_2" d="M7.68359 7C7.68359 7.37754 7.37753 7.68359 7 7.68359C6.62246 7.68359 6.31641 7.37754 6.31641 7C6.31641 6.62247 6.62246 6.31641 7 6.31641C7.37753 6.31641 7.68359 6.62247 7.68359 7Z" fill="#818CF8"/>
</g>
<g id="g903">
<path id="path905_2" d="M10.418 7C10.418 7.37754 10.1119 7.68359 9.73437 7.68359C9.35684 7.68359 9.05078 7.37754 9.05078 7C9.05078 6.62247 9.35684 6.31641 9.73437 6.31641C10.1119 6.31641 10.418 6.62247 10.418 7Z" fill="#818CF8"/>
</g>
<g id="g907">
<path id="path909_2" d="M4.94922 7C4.94922 7.37754 4.64316 7.68359 4.26562 7.68359C3.88809 7.68359 3.58203 7.37754 3.58203 7C3.58203 6.62247 3.88809 6.31641 4.26562 6.31641C4.64316 6.31641 4.94922 6.62247 4.94922 7Z" fill="#818CF8"/>
</g>
</g>
</g>
</g>
</g>
</g>
</g>
</g>
</g>
</g>
<defs>
<clipPath id="clip0_10866_11965">
<rect width="14" height="14" fill="white"/>
</clipPath>
</defs>
</svg>
