<svg width="14" height="14" viewBox="0 0 14 14" fill="none" xmlns="http://www.w3.org/2000/svg">
<path d="M3.543 3.50012C4.06758 3.50012 4.52202 3.59968 4.90634 3.79879C5.29065 3.9979 5.5852 4.27946 5.78998 4.64346C5.99477 5.00746 6.09716 5.43057 6.09716 5.91279C6.09716 6.39501 5.99477 6.81812 5.78998 7.18212C5.5852 7.54612 5.29065 7.82768 4.90634 8.02679C4.52202 8.2259 4.06758 8.32546 3.543 8.32546H1.74625V10.5001H0V3.50012H3.543ZM3.44201 6.77612C3.72253 6.77612 3.94134 6.6999 4.09843 6.54746C4.25553 6.39501 4.33407 6.18346 4.33407 5.91279C4.33407 5.64212 4.25553 5.43057 4.09843 5.27812C3.94134 5.12568 3.72253 5.04946 3.44201 5.04946H1.74625V6.77612H3.44201Z" fill="#6366F1"/>
<path d="M8.02066 3.50012L10.0951 8.69879L12.1612 3.50012H14L11.0629 10.5001H9.08525L6.14818 3.50012H8.02066Z" fill="#6366F1"/>
</svg>
