<svg width="24" height="25" viewBox="0 0 24 25" fill="none" xmlns="http://www.w3.org/2000/svg">
<path d="M22.249 17.75L14.164 3.75001C13.9446 3.36999 13.629 3.05443 13.2489 2.83503C12.8689 2.61563 12.4378 2.50012 11.999 2.50012C11.5602 2.50012 11.1291 2.61563 10.7491 2.83503C10.369 3.05443 10.0534 3.36999 9.834 3.75001L1.749 17.75C1.5295 18.1302 1.41398 18.5615 1.41406 19.0005C1.41415 19.4395 1.52983 19.8707 1.74948 20.2509C1.96913 20.631 2.285 20.9465 2.66532 21.1658C3.04564 21.3851 3.47699 21.5004 3.916 21.5H20.082C20.5208 21.5 20.9519 21.3845 21.332 21.1651C21.712 20.9456 22.0276 20.63 22.247 20.25C22.4664 19.8699 22.5819 19.4388 22.5819 19C22.5819 18.5612 22.4664 18.1301 22.247 17.75H22.249Z" fill="url(#paint0_linear_1023_41426)"/>
<path d="M11.9972 14.9C12.2518 14.9011 12.4977 14.81 12.6865 14.6446C12.8753 14.4792 12.9935 14.2514 13.0177 14.0059L13.5911 8.45296C13.6115 8.25645 13.5891 8.05798 13.5253 7.87039C13.4616 7.68279 13.3579 7.51023 13.2209 7.36387C13.084 7.21751 12.9169 7.1006 12.7304 7.0207C12.5438 6.94081 12.3421 6.89969 12.1381 6.90003H11.8563C11.6526 6.90002 11.4511 6.94138 11.2649 7.02142C11.0786 7.10147 10.9118 7.21842 10.7751 7.36474C10.6384 7.51107 10.535 7.68351 10.4713 7.87094C10.4077 8.05838 10.3854 8.25665 10.4057 8.45296L10.9792 14.0059C11.0034 14.2509 11.1212 14.4784 11.3095 14.6438C11.4978 14.8092 11.743 14.9005 11.9972 14.9Z" fill="white"/>
<path d="M12 19.5C12.9665 19.5 13.75 18.7165 13.75 17.75C13.75 16.7835 12.9665 16 12 16C11.0335 16 10.25 16.7835 10.25 17.75C10.25 18.7165 11.0335 19.5 12 19.5Z" fill="white"/>
<defs>
<linearGradient id="paint0_linear_1023_41426" x1="6.066" y1="10.668" x2="21.0125" y2="21.1945" gradientUnits="userSpaceOnUse">
<stop stop-color="#FED200"/>
<stop offset="1" stop-color="#F59815"/>
</linearGradient>
</defs>
</svg>
